<mxfile host="Electron" modified="2024-04-16T18:24:36.692Z" agent="Mozilla/5.0 (Macintosh; Intel Mac OS X 10_15_7) AppleWebKit/537.36 (KHTML, like Gecko) draw.io/22.0.2 Chrome/114.0.5735.289 Electron/25.8.4 Safari/537.36" etag="HBmhGGekt1jD2Z-iuHrn" version="22.0.2" type="device">
  <diagram name="Page-1" id="Cs9zcC-0nloMIOX7j2Pm">
    <mxGraphModel dx="1796" dy="1843" grid="1" gridSize="10" guides="1" tooltips="1" connect="1" arrows="1" fold="1" page="1" pageScale="1" pageWidth="850" pageHeight="1100" math="0" shadow="0">
      <root>
        <mxCell id="0" />
        <mxCell id="1" parent="0" />
        <mxCell id="krAw0Bd3Zgh0rd1mKWKc-14" value="" style="group" vertex="1" connectable="0" parent="1">
          <mxGeometry x="130" y="-120" width="594" height="710" as="geometry" />
        </mxCell>
        <mxCell id="krAw0Bd3Zgh0rd1mKWKc-15" value="&lt;b&gt;&lt;font style=&quot;font-size: 12px&quot;&gt;OCI Region&lt;/font&gt;&lt;/b&gt;" style="whiteSpace=wrap;html=1;align=left;fontFamily=Oracle Sans;verticalAlign=top;fillColor=#F5F4F2;fontColor=#312D2A;strokeColor=#9E9892;rounded=1;arcSize=1;fontSize=11;spacingRight=5;container=0;spacingLeft=3;" vertex="1" parent="krAw0Bd3Zgh0rd1mKWKc-14">
          <mxGeometry y="160" width="594" height="501" as="geometry" />
        </mxCell>
        <mxCell id="krAw0Bd3Zgh0rd1mKWKc-18" value="&lt;b&gt;&lt;font color=&quot;#bb511c&quot;&gt;Oracle Services Network&lt;/font&gt;&lt;/b&gt;" style="whiteSpace=wrap;html=1;strokeWidth=2;dashed=1;align=left;fontFamily=Oracle Sans;verticalAlign=top;labelBackgroundColor=none;fillColor=none;fontColor=#AE562C;strokeColor=#AE562C;container=0;spacingLeft=3;" vertex="1" parent="krAw0Bd3Zgh0rd1mKWKc-14">
          <mxGeometry x="9" y="194" width="577" height="372" as="geometry" />
        </mxCell>
        <mxCell id="krAw0Bd3Zgh0rd1mKWKc-16" value="" style="whiteSpace=wrap;html=1;strokeWidth=1;align=center;fontFamily=Oracle Sans;verticalAlign=top;fillColor=#DFDCD8;fontColor=#312D2A;strokeColor=#9E9892;rounded=1;arcSize=1;fontStyle=1;container=0;" vertex="1" parent="krAw0Bd3Zgh0rd1mKWKc-14">
          <mxGeometry x="142" y="220" width="127" height="338" as="geometry" />
        </mxCell>
        <mxCell id="krAw0Bd3Zgh0rd1mKWKc-17" value="" style="whiteSpace=wrap;html=1;strokeWidth=1;align=center;fontFamily=Oracle Sans;verticalAlign=top;fillColor=#DFDCD8;fontColor=#312D2A;strokeColor=#9E9892;rounded=1;arcSize=1;fontStyle=1;container=0;" vertex="1" parent="krAw0Bd3Zgh0rd1mKWKc-14">
          <mxGeometry x="330" y="220" width="130" height="338" as="geometry" />
        </mxCell>
        <mxCell id="krAw0Bd3Zgh0rd1mKWKc-22" value="" style="shape=image;verticalLabelPosition=bottom;verticalAlign=top;imageAspect=0;aspect=fixed;image=data:image/svg+xml,PHN2ZyB4bWxucz0iaHR0cDovL3d3dy53My5vcmcvMjAwMC9zdmciIHhtbG5zOnhsaW5rPSJodHRwOi8vd3d3LnczLm9yZy8xOTk5L3hsaW5rIiB2ZXJzaW9uPSIxLjEiIGlkPSJMYXllcl8xIiB4PSIwcHgiIHk9IjBweCIgdmlld0JveD0iMCAwIDQzLjUgNDIiIHN0eWxlPSJlbmFibGUtYmFja2dyb3VuZDpuZXcgMCAwIDQzLjUgNDI7IiB4bWw6c3BhY2U9InByZXNlcnZlIiB3aWR0aD0iNDMuNSIgaGVpZ2h0PSI0MiI+JiN4YTs8Zz4mI3hhOwk8Zz4mI3hhOwkJPHBhdGggc3R5bGU9ImZpbGw6I0ZGRkZGRjsiIGQ9Ik0zMS4yLDQxLjVjLTIuOCwwLTUuMy0yLTUuOS00LjhoLTcuMWMtMC42LDIuNy0zLDQuOC01LjksNC44Yy0zLjMsMC02LTIuNy02LTYmIzEwOyYjOTsmIzk7JiM5O2MwLTIuMSwxLjItNC4xLDMtNS4ybC0yLjItNi43Yy0wLjIsMC0wLjQsMC0wLjYsMGMtMy4zLDAtNi0yLjctNi02YzAtMy4zLDIuNy02LDYtNmMxLjUsMCwyLjksMC41LDQsMS42TDE2LjMsOSYjMTA7JiM5OyYjOTsmIzk7Yy0wLjMtMC44LTAuNS0xLjYtMC41LTIuNWMwLTMuMywyLjctNiw2LTZzNiwyLjcsNiw2YzAsMC44LTAuMiwxLjctMC41LDIuNWw1LjcsNC4yYzEuMS0xLDIuNS0xLjYsNC0xLjZjMy4zLDAsNiwyLjcsNiw2JiMxMDsmIzk7JiM5OyYjOTtzLTIuNyw2LTYsNmMtMC4yLDAtMC40LDAtMC42LDBsLTIuMiw2LjdjMS44LDEuMSwzLDMuMSwzLDUuMkMzNy4yLDM4LjgsMzQuNSw0MS41LDMxLjIsNDEuNXoiLz4mI3hhOwkJPHBhdGggc3R5bGU9ImZpbGw6I0ZGRkZGRjsiIGQ9Ik0yMS43LDFjMywwLDUuNSwyLjUsNS41LDUuNWMwLDAuOS0wLjIsMS44LTAuNywyLjZsNi40LDQuN2MxLTEuMSwyLjQtMS43LDQtMS43JiMxMDsmIzk7JiM5OyYjOTtjMywwLDUuNSwyLjUsNS41LDUuNWMwLDMtMi41LDUuNS01LjUsNS41Yy0wLjMsMC0wLjcsMC0xLTAuMWwtMi41LDcuNWMxLjgsMC45LDMuMSwyLjgsMy4xLDVjMCwzLTIuNSw1LjUtNS41LDUuNSYjMTA7JiM5OyYjOTsmIzk7Yy0yLjgsMC01LjEtMi4xLTUuNS00LjhoLTcuOWMtMC40LDIuNy0yLjcsNC44LTUuNSw0LjhjLTMsMC01LjUtMi41LTUuNS01LjVjMC0yLjIsMS4zLTQuMSwzLjEtNUw3LjUsMjNjLTAuMywwLjEtMC43LDAuMS0xLDAuMSYjMTA7JiM5OyYjOTsmIzk7Yy0zLDAtNS41LTIuNS01LjUtNS41czIuNS01LjUsNS41LTUuNWMxLjYsMCwzLDAuNyw0LDEuN2w2LjQtNC43Yy0wLjQtMC44LTAuNy0xLjctMC43LTIuNkMxNi4yLDMuNSwxOC43LDEsMjEuNywxIE0yMS43LDAmIzEwOyYjOTsmIzk7JiM5O2MtMy42LDAtNi41LDIuOS02LjUsNi41YzAsMC44LDAuMSwxLjYsMC40LDIuM2wtNS4xLDMuN2MtMS4xLTAuOS0yLjYtMS40LTQtMS40QzIuOSwxMS4xLDAsMTQsMCwxNy42czIuOSw2LjUsNi41LDYuNSYjMTA7JiM5OyYjOTsmIzk7YzAuMSwwLDAuMiwwLDAuMywwbDEuOSw2Yy0xLjgsMS4yLTIuOSwzLjItMi45LDUuNGMwLDMuNiwyLjksNi41LDYuNSw2LjVjMi45LDAsNS41LTIsNi4zLTQuOGg2LjNjMC44LDIuOCwzLjMsNC44LDYuMyw0LjgmIzEwOyYjOTsmIzk7JiM5O2MzLjYsMCw2LjUtMi45LDYuNS02LjVjMC0yLjItMS4xLTQuMi0yLjktNS40bDEuOS02YzAuMSwwLDAuMiwwLDAuMywwYzMuNiwwLDYuNS0yLjksNi41LTYuNWMwLTMuNi0yLjktNi41LTYuNS02LjUmIzEwOyYjOTsmIzk7JiM5O2MtMS41LDAtMi45LDAuNS00LjEsMS40bC01LjEtMy43YzAuMy0wLjcsMC40LTEuNSwwLjQtMi4zQzI4LjMsMi45LDI1LjMsMCwyMS43LDBMMjEuNywweiIvPiYjeGE7CTwvZz4mI3hhOwk8Zz4mI3hhOwkJPHBhdGggc3R5bGU9ImZpbGw6I0JCNTAxQzsiIGQ9Ik0zNywxMi4xYy0xLjYsMC0zLDAuNy00LDEuN2wtNi40LTQuN2MwLjQtMC44LDAuNy0xLjcsMC43LTIuNmMwLTMtMi41LTUuNS01LjUtNS41JiMxMDsmIzk7JiM5OyYjOTtzLTUuNSwyLjUtNS41LDUuNWMwLDAuOSwwLjIsMS44LDAuNywyLjZsLTYuNCw0LjdjLTEtMS0yLjQtMS43LTQtMS43Yy0zLDAtNS41LDIuNS01LjUsNS41czIuNSw1LjUsNS41LDUuNWMwLjMsMCwwLjcsMCwxLTAuMSYjMTA7JiM5OyYjOTsmIzk7bDIuNCw3LjVjLTEuOCwwLjktMy4xLDIuOC0zLjEsNWMwLDMsMi41LDUuNSw1LjUsNS41YzIuOCwwLDUuMS0yLjEsNS41LTQuOGg3LjljMC40LDIuNywyLjcsNC44LDUuNSw0LjhjMywwLDUuNS0yLjUsNS41LTUuNSYjMTA7JiM5OyYjOTsmIzk7YzAtMi4yLTEuMy00LjEtMy4xLTVMMzYsMjNjMC4zLDAuMSwwLjcsMC4xLDEsMC4xYzMsMCw1LjUtMi41LDUuNS01LjVTNDAsMTIuMSwzNywxMi4xeiBNMzEuMiwzOS41Yy0yLjIsMC00LTEuOC00LTQmIzEwOyYjOTsmIzk7JiM5O2MwLTIuMiwxLjgtNCw0LTRzNCwxLjgsNCw0QzM1LjIsMzcuNywzMy40LDM5LjUsMzEuMiwzOS41eiBNMTcuOCwzNC44Yy0wLjItMS4zLTAuOC0yLjQtMS43LTMuM2wzLTQuMmMwLjgsMC40LDEuNywwLjcsMi42LDAuNyYjMTA7JiM5OyYjOTsmIzk7YzAuOSwwLDEuOC0wLjIsMi42LTAuN2wzLDQuMmMtMC45LDAuOC0xLjUsMi0xLjcsMy4zSDE3Ljh6IE04LjMsMzUuNWMwLTIuMiwxLjgtNCw0LTRzNCwxLjgsNCw0YzAsMi4yLTEuOCw0LTQsNCYjMTA7JiM5OyYjOTsmIzk7UzguMywzNy43LDguMywzNS41eiBNNi41LDEzLjVjMi4yLDAsNCwxLjgsNCw0cy0xLjgsNC00LDRzLTQtMS44LTQtNFM0LjMsMTMuNSw2LjUsMTMuNXogTTE3LjcsNi41YzAtMi4yLDEuOC00LDQtNHM0LDEuOCw0LDQmIzEwOyYjOTsmIzk7JiM5O3MtMS44LDQtNCw0UzE3LjcsOC43LDE3LjcsNi41eiBNMzEuNiwxOC41bC00LjksMS42Yy0wLjgtMS42LTIuNC0yLjgtNC4yLTMuMVYxMmMxLjMtMC4yLDIuNC0wLjgsMy4yLTEuN2w2LjQsNC43JiMxMDsmIzk7JiM5OyYjOTtjLTAuNCwwLjgtMC43LDEuNy0wLjcsMi42QzMxLjUsMTcuOSwzMS41LDE4LjIsMzEuNiwxOC41eiBNMjUuOCwyMi41YzAsMi4yLTEuOCw0LTQsNHMtNC0xLjgtNC00czEuOC00LDQtNFMyNS44LDIwLjIsMjUuOCwyMi41eiYjMTA7JiM5OyYjOTsmIzk7IE0yMSwxMlYxN2MtMS45LDAuMy0zLjUsMS40LTQuMiwzLjFsLTQuOS0xLjZjMC4xLTAuMywwLjEtMC42LDAuMS0xYzAtMC45LTAuMi0xLjgtMC43LTIuNmw2LjQtNC43QzE4LjYsMTEuMiwxOS43LDExLjgsMjEsMTJ6JiMxMDsmIzk7JiM5OyYjOTsgTTExLjUsMTkuOWw0LjksMS42Yy0wLjEsMC4zLTAuMSwwLjYtMC4xLDFjMCwxLjYsMC43LDMsMS43LDRsLTMsNC4yYy0wLjgtMC40LTEuNy0wLjctMi42LTAuN2MtMC4zLDAtMC43LDAtMSwwLjFsLTIuNC03LjUmIzEwOyYjOTsmIzk7JiM5O0MxMCwyMiwxMC45LDIxLjEsMTEuNSwxOS45eiBNMzEuMiwzMGMtMC45LDAtMS44LDAuMi0yLjYsMC43bC0zLTQuMmMxLjEtMSwxLjctMi40LDEuNy00YzAtMC4zLDAtMC43LTAuMS0xbDQuOS0xLjYmIzEwOyYjOTsmIzk7JiM5O2MwLjUsMS4xLDEuNSwyLDIuNiwyLjZsLTIuNSw3LjVDMzEuOCwzMCwzMS41LDMwLDMxLjIsMzB6IE0zMywxNy42YzAtMi4yLDEuOC00LDQtNHM0LDEuOCw0LDRzLTEuOCw0LTQsNFMzMywxOS44LDMzLDE3LjZ6Ii8+JiN4YTsJPC9nPiYjeGE7PC9nPiYjeGE7PC9zdmc+;dashed=1;dashPattern=1 1;strokeColor=#bb511c;strokeWidth=3;fontColor=#312D2A;fillColor=#FCFBFA;container=0;" vertex="1" parent="krAw0Bd3Zgh0rd1mKWKc-14">
          <mxGeometry x="558" y="177.99658932714624" width="30" height="28.64" as="geometry" />
        </mxCell>
        <mxCell id="krAw0Bd3Zgh0rd1mKWKc-26" value="Identity &amp; Access&#xa;Management" style="shape=image;verticalLabelPosition=bottom;verticalAlign=top;imageAspect=0;aspect=fixed;image=data:image/svg+xml,PHN2ZyB4bWxucz0iaHR0cDovL3d3dy53My5vcmcvMjAwMC9zdmciIHhtbG5zOnhsaW5rPSJodHRwOi8vd3d3LnczLm9yZy8xOTk5L3hsaW5rIiB2ZXJzaW9uPSIxLjEiIGlkPSJMYXllcl8xIiB4PSIwcHgiIHk9IjBweCIgdmlld0JveD0iMCAwIDQ0LjQwMDAwMTUyNTg3ODkwNiA0Mi4xMDAwMDIyODg4MTgzNiIgc3R5bGU9ImVuYWJsZS1iYWNrZ3JvdW5kOm5ldyAwIDAgNDQuNiA0Mi4xOyIgeG1sOnNwYWNlPSJwcmVzZXJ2ZSIgd2lkdGg9IjQ0LjQwMDAwMTUyNTg3ODkwNiIgaGVpZ2h0PSI0Mi4xMDAwMDIyODg4MTgzNiI+JiN4YTs8Zz4mI3hhOwk8Zz4mI3hhOwkJPHBhdGggc3R5bGU9ImZpbGw6I0ZGRkZGRjsiIGQ9Ik0zMy43LDQxLjNjLTUuNy0yLjgtOS4xLTcuMy05LjMtMTIuMmwwLTQuM0gwLjVWMC41aDM1djE1LjdsOC43LDMuN2wwLDkuMSYjMTA7JiM5OyYjOTsmIzk7Yy0wLjMsNC45LTMuNyw5LjQtOS40LDEyLjJsLTAuNiwwLjNMMzMuNyw0MS4zeiIvPiYjeGE7CQk8cGF0aCBzdHlsZT0iZmlsbDojRkZGRkZGOyIgZD0iTTM1LDF2MTUuNmw4LjcsMy43bDAsOC44Yy0wLjMsNC43LTMuNiw5LTkuMSwxMS44TDM0LjIsNDFsLTAuMy0wLjJjLTUuNS0yLjgtOC44LTctOS4xLTExLjdsMCwwJiMxMDsmIzk7JiM5OyYjOTt2LTQuN0gxVjFIMzUgTTM2LDBoLTFIMUgwdjF2MjMuM3YxaDFoMjIuOFYyOXYwbDAsMC4xYzAuMyw1LjEsMy44LDkuNyw5LjYsMTIuNmwwLjMsMC4ybDAuNCwwLjJsMC40LTAuMmwwLjMtMC4yJiMxMDsmIzk7JiM5OyYjOTtjNS44LTIuOSw5LjMtNy41LDkuNi0xMi42bDAsMHYwbDAtOC44di0wLjdMNDQsMTkuNEwzNiwxNS45VjFWMEwzNiwweiIvPiYjeGE7CTwvZz4mI3hhOwk8Zz4mI3hhOwkJPHBhdGggc3R5bGU9ImZpbGw6bm9uZTsiIGQ9Ik0zNSwyNC4zdjAuNGgtMS41di0xLjl2LTQuN2wtNy4yLDMuMVYyOWMwLjIsMy45LDIuOCw3LjQsNy4yLDkuOVYyNi40SDM1djEyLjZjNC40LTIuNSw3LTYuMSw3LjItOS45JiMxMDsmIzk7JiM5OyYjOTt2LTcuOEwzNSwxOC4yVjI0LjN6Ii8+JiN4YTsJCTxwYXRoIHN0eWxlPSJmaWxsOm5vbmU7IiBkPSJNMTAuOSwxMS4xYzEuMSwwLDItMC45LDItMnMtMC45LTItMi0ycy0yLDAuOS0yLDJTOS45LDExLjEsMTAuOSwxMS4xeiIvPiYjeGE7CQk8cG9seWdvbiBzdHlsZT0iZmlsbDojMkM1OTY3OyIgcG9pbnRzPSIyLjUsMi41IDMzLjUsMi41IDMzLjUsMTUuNCAzNC4yLDE1LjEgMzUsMTUuNCAzNSwxIDEsMSAxLDI0LjMgMjMuNywyNC4zIDIzLjcsMjIuOSAmIzEwOyYjOTsmIzk7JiM5OzIuNSwyMi45ICYjOTsmIzk7Ii8+JiN4YTsJCTxwYXRoIHN0eWxlPSJmaWxsOiMyQzU5Njc7IiBkPSJNMzQuMiwxNi4zbC05LjQsNFYyOWwwLDBjMC4zLDQuNywzLjYsOSw5LjEsMTEuN2wwLjMsMC4ybDAuMy0wLjJjNS41LTIuOCw4LjgtNyw5LjEtMTEuOGwwLTguOCYjMTA7JiM5OyYjOTsmIzk7TDM0LjIsMTYuM3ogTTQyLjIsMjljLTAuMiwzLjktMi44LDcuNC03LjIsOS45VjI2LjRoLTEuNXYxMi42Yy00LjQtMi41LTctNi4xLTcuMi05Ljl2LTcuOGw3LjItMy4xdjQuN3YxLjlIMzV2LTAuNHYtNi4ybDcuMiwzLjEmIzEwOyYjOTsmIzk7JiM5O1YyOXoiLz4mI3hhOwkJPHBvbHlnb24gc3R5bGU9ImZpbGw6IzJDNTk2NzsiIHBvaW50cz0iMjEsNy41IDIwLDguNSAyMi44LDExLjMgMjguMSw2IDI3LDQuOSAyMi44LDkuMiAmIzk7JiM5OyIvPiYjeGE7CQk8cG9seWdvbiBzdHlsZT0iZmlsbDojMkM1OTY3OyIgcG9pbnRzPSIyNi43LDE3LjYgMjQuOCwxNS42IDI2LjcsMTMuNyAyNS43LDEyLjYgMjMuNywxNC42IDIxLjgsMTIuNiAyMC44LDEzLjcgMjIuNywxNS42ICYjMTA7JiM5OyYjOTsmIzk7MjAuOCwxNy42IDIxLjgsMTguNiAyMy43LDE2LjcgMjUuNywxOC42ICYjOTsmIzk7Ii8+JiN4YTsJCTxwYXRoIHN0eWxlPSJmaWxsOiMyQzU5Njc7IiBkPSJNMTYsMTkuNnYtMy4yYzAtMS40LTEuMS0yLjUtMi41LTIuNWgtNWMtMS40LDAtMi41LDEuMS0yLjUsMi41djMuMmgxLjV2LTMuMiYjMTA7JiM5OyYjOTsmIzk7YzAtMC42LDAuNS0xLjEsMS4xLTEuMWg1YzAuNiwwLDEuMSwwLjUsMS4xLDEuMXYzLjJIMTZ6Ii8+JiN4YTsJCTxwYXRoIHN0eWxlPSJmaWxsOiMyQzU5Njc7IiBkPSJNMTAuOSwxMi42YzEuOSwwLDMuNC0xLjUsMy40LTMuNHMtMS41LTMuNC0zLjQtMy40QzksNS43LDcuNSw3LjMsNy41LDkuMlM5LDEyLjYsMTAuOSwxMi42eiYjMTA7JiM5OyYjOTsmIzk7IE0xMC45LDcuMmMxLjEsMCwyLDAuOSwyLDJzLTAuOSwyLTIsMnMtMi0wLjktMi0yUzkuOSw3LjIsMTAuOSw3LjJ6Ii8+JiN4YTsJPC9nPiYjeGE7PC9nPiYjeGE7PC9zdmc+;fontColor=#312D2A;strokeColor=#9E9892;fillColor=#FCFBFA;container=0;" vertex="1" parent="krAw0Bd3Zgh0rd1mKWKc-14">
          <mxGeometry x="50" y="368" width="44" height="42" as="geometry" />
        </mxCell>
        <mxCell id="krAw0Bd3Zgh0rd1mKWKc-113" value="" style="group;aspect=fixed;" vertex="1" connectable="0" parent="krAw0Bd3Zgh0rd1mKWKc-14">
          <mxGeometry x="230" y="203.46" width="58.44" height="54.96" as="geometry" />
        </mxCell>
        <mxCell id="krAw0Bd3Zgh0rd1mKWKc-98" style="vsdxID=166;fillColor=#FFFFFF;gradientColor=none;shape=stencil(lZbRctwgDEW/xq8akADBc5r8R6bZdD3d7mY2mzb9+8pjYywaK+2bQ64wezgID3T3enx8OQzoXm/Xy/fDr/Hpdhzoy4A4no+H63iTp4HuB7p7vlwP366Xt/PT/PfL45Scnn5cfk4zvM91kYCnInS/54FcAOeRhzl/Gs+bfCgQs13w9e06v8EvJQy5LCV+rQk0D73jkkqASwj/DtESChDSkqJ/Wi9liEGttxQo+3n04DSQgkDZKAjAXgNxwMkCgjIjaSCcIUcNBB141kQ4QUqaiM/1569EOADG/QXLHGq5zBCNuFPhWCDhftg7cKQLgkWiNHbLSHRQsgaxCeFqVMGOw+bNTZZs7LT+YeJJMXZ5ZVTz4kkIBojStmUpiOCjxUJmXPe7icLcWUFARdMQUVJHQ16WUdMQUdhY8ORkUQtmcN7oA2Kn7gPOCEdgHZbtYsMj6TLpk4IeX/Rrt6j4pCZ2+KTd9Ydqm6IqLRTf4bMXnERbLb7wMXTKEHxHO1n50PazCWYeLTnWvuu6k2Fd1+UCpHFMgnU2ZV/VXXGIYGw0DemZudMfIRgF3unj2PT6MJ7ltOr55frwxeIh90TfdMUyRM1jm6rKIGDugGxeX5WJQMYGyqWTtB/J15fvEXT6BIgz+lrpkLi6gLUg1DtlT5EMFDUSsQZ7RYRs0EgmazokTK1LN23QWPAkaHczo9mD5e4h3YSrNR/H//PL5vO8PLTPqOfxdJq/wrb/7z+7ZGj+ZKP7Pw==);strokeColor=none;spacingTop=-3;spacingBottom=-3;spacingLeft=-3;spacingRight=-3;points=[];labelBackgroundColor=none;rounded=0;html=1;whiteSpace=wrap;container=0;" vertex="1" parent="krAw0Bd3Zgh0rd1mKWKc-113">
          <mxGeometry x="30.611428571428572" y="41.046075949367086" width="13.914285714285715" height="13.913924050632911" as="geometry" />
        </mxCell>
        <mxCell id="krAw0Bd3Zgh0rd1mKWKc-99" style="vsdxID=167;fillColor=#FFFFFF;gradientColor=none;shape=stencil(lVnRdtxGCP2afeWMYGaYeU7T/8hpnHpPXTvHcVr774u6y8yCJBy/rWUQmssFLtKJPv24//L97oTpx8vz0193/56/vtyf6LcT4vnx/u75/CK/TvT5RJ++PT3f/fn89PPx6+Xv719Wy/XX30//rHd4vfhRB2yrF6a3y5VlgZT/v/L7xeHh/HjjkBN0tg4ZsAQOBJ2sQ4dWA4cCjB9ykH8vscMfP58vp14uBgUB1WWZPpdjpFe8WmUo9Wp1vYQJlutpXulqVaHrvWhY1eCB6wK8eNA5cujQs3UoQBg4VA86Zj3eASScoDhIkGFxkDBBYQsJCSTdQsIFGltIiIADlrQyo4/b9h44tJGut0llPnbgPp9pMjNE5MbjeikLI8ghcmOFg8EDN9pa0eQ5R/FbgkwufofsMiJWmG38QoCb8FRseKHttWqO8MVu4Jqs3XfIvgpX1gb5EJCqta+K0VFCJESzgFSGvLiESI6KBUSsukckw9IsIrUBxYRYNoSQS+QSIsdebHgpGn1uDV8LdJeQWTT7Jd2g2pKWmskBwDWBs2/A7di+FKi2yUzS7juQdtlDh52+q/x9myxPLoNllP6A8NZK66dDcRl8N35mQLTxV59m40uVK13eZpVXHx+1yd/GTwFgxB6wJsQMUoJ9k/OsfXI/Ak7uD1aFDmPaD4cMOUcYYoPkqpARFrYYosR1OZTCyBZCpIHqKMIaqgkRG9XqFamLHkxCmazkHBIwBZgnnazqIJ1yCQG58VCeS2k6Ut1aTX3R3Jy4taJhhRTFX5WLC58GDTS8GPmayhXaJnrLNroMySVoMgKvnRI05sa+ffHpWOVDkI2iFTXsSRXYUTp4htBLfaiW16laxnDVDFUojqCUR9sZ2i5rC/nFClyaNpijCiSnj6XGowgCgFOPFI5ySUnayM0WFJkoqVq8Q3joj24Rv+Bg9xShYbN9KgV3r0D2wKj6ed8+ez1OKvyP2jJbUpYwY8LI7rSUarajFuTEcFexsm+Pm42phk1RzmfR3ywsm6IiSG5w4yTu6HEI5LSoXEq+6y9TaNCwCs63yNx028y4xb5D2pRIDxEXuOxglis1GBKkSnEQJodDZa5IunvIxAwSxFPTj14d1ZMc2AmFHOG5sS5SfcHjzz1Q7THsOMkaV22JB1gmtwfk8GGkdpzqRC33Xfvum4GotECkCdncxGGOu0HyrYlrKMzRYs8tpJpQnZ0GlPNGB+h+oPQUAiqIskW0k5McLmOWDL2Gi6FQPbvn6frGZN+hbg6A4QjNbb7NuULUwwwI3ZE/5EC+At55pHW7di05BRNLKO9BZS2L/YqU5cPeX3LGAStkgfInSNpV9yOwH9GNVOXvO1SwTyR1lqMADbIrZA61o/AeXYSm6+S+gwhj23YFhUj4CIZ+GyJ9yH2HOheYayZL+Baqd78CFtYXqvsO6ItT9oEUH5qcOJERHMG6ccjxGrtS31Ipx4lT6t+8eIsGgoDq5JIIuqgYVurbtMnEil519O1L7K7vY/YxIt9hEONi6LpFDwcKFci23KTxR9QT7vtFg1UGHnWA7hxSmOf1Xa+ttxq+h1+p7/Kmm9h+j2S3O6ZQ5UoPds/P4VKy0p79eePPCH5Niu3Zvyhg9/5w8yHEbVUpbBUfWnneMZYf8wvQt/PDw+UD0u3//RcjuXT52kSf/wM=);strokeColor=none;spacingTop=-3;spacingBottom=-3;spacingLeft=-3;spacingRight=-3;points=[];labelBackgroundColor=none;rounded=0;html=1;whiteSpace=wrap;container=0;" vertex="1" parent="krAw0Bd3Zgh0rd1mKWKc-113">
          <mxGeometry x="29.22" y="39.65468354430379" width="15.305714285714286" height="15.305316455696202" as="geometry" />
        </mxCell>
        <mxCell id="krAw0Bd3Zgh0rd1mKWKc-100" style="vsdxID=168;fillColor=#FFFFFF;gradientColor=none;shape=stencil(nZjbUhw5DIafZm5Vtny+zuE9UglZppaF1IQk8PZR77R8+E2bkLuhkfpr2dJvySf37vvtp283JzbfHy8P/978On95vD259yfm8/3tzeX8KL9O7sPJvfv6cLn55/Lw4/7L9e9vnzbL7dd/Dz+3Nzxd/Wyh5DcvNs/XJ6VQKf8/+Xh1+PzjcvWw6rLb69/GXB888f4gE8fdhutL8455crtVopB3K1etgl2iI2Wgi4/NwI8zP1MswA+UGPiZTF7yPcUI/EgpAd+TQX4g44DfWSnfEa/j73yUb8lh/N1X7o9yoYjrP8efMzn3yvoz8HOiiPF3u8TVys77Hy3wZS3X6y8faIEfyTPwi25j48uHI19SMkx8Dj3/7nzf1Qobchr9nznYFuLu4Cktd5g9MQRoa51ogFzI+zHAFIghwZ2jWqr7o2Qo8grvmNKIj5I5bsSLEfOIj5kC4iG5xMQsQ3e2VlKFJ/IIt/ULuRpxBrasWQJ8pDLgYasCefWoDpbf5GDJLJLBvMmYeHx5kNKIq9UzdQN08YKtZVgrgwoIg0+ab7p2vlaKLp13WrwH7EgBkta1ElR2UyBlu6Dl3orS1TR+bmkclpFvogh5Iz6qk50oJuQzuVkUMXrJJb8WJQkjAN/Uwu9EEUVpWxJY/E1gQRQ5a/0f8RMZP/K5rlkvim7EbzIZRjzzpMkSXV4rVqDiRrzlCS8rYuBMsIawbH09yypejY5Ew1OB4MUlIT20DOXZSvHdFh3gxyoVhziW6aufm5pyt8/NkCsuN+VunxuhgRCrMn3tLhtHeMm4kV5UFSvcy0sgU0prMVw1StC8ZG0nDtieKecRHrTTbHBR1TDCXVsehXddgCauPjmAixZagM/LHvzUN5qpbQuJHCy7GC0jF62HVYeGOYZJm2ylKFgOYjxSvX7dAThx3d16ok7dmnQOoEuSRh6EIbUuryabVF5Y0nNdvOcmlQXxrXN4blKZId9SmbZ8mx+Wc0o22nA0fssc5YtVhk0XK0y53PUmrX80y2LLYWqWuX1S5Uv8UG7cHdw6Gdg55f0r50LxTc6Un2pfUY/l2N7ctDrC+pdEoIwivOtjWQYzBrwolqpfPZZ0eKwNCc/wgkLno6r+MTyh2Nja6bShMIPYhDBJnYRuQepCgYZoPBZKGzZat8fH9sk3ZfxL+wjCPzqIdKSIDmXhsAnHeLAlq03OywRum73ntYdZfnQIWSen6iBZtyCI7kYg1Mn7RQdJpGDf5CBl58agZc4qCwdTLxXUQTJqsXHiYDI6LBVcDmxoF0SJM3TWUlYJJESsPEjY1lSMaZyqzh43Vw6qaJtGoYykPbDQXMm4j9c928mD1z1muR/SHsC4XVifHPeiHkaB4siB5HEr8trh+KnuxcrCgpWgA8Px9J5hvzZ9BbxvHYTiRWMS4J2mUsMnWh543A1PSs9TJ771+KB6pZvWFN+Nik2G/Tp622q66TDeXcigOtEL3s11t5IOrV5Mlj+4x5Qf7Rb06/nu7nqJ2v8fb03l0fXG1X34DQ==);strokeColor=none;spacingTop=-3;spacingBottom=-3;spacingLeft=-3;spacingRight=-3;points=[];labelBackgroundColor=none;rounded=0;html=1;whiteSpace=wrap;container=0;" vertex="1" parent="krAw0Bd3Zgh0rd1mKWKc-113">
          <mxGeometry x="0.6957142857142857" width="57.04857142857143" height="48.003037974683544" as="geometry" />
        </mxCell>
        <mxCell id="krAw0Bd3Zgh0rd1mKWKc-101" style="vsdxID=169;fillColor=#FFFFFF;gradientColor=none;shape=stencil(pVrbkh01DPyafXXZlq/PXP6DgkC2CAm1CbD792g4I8nTnvEkxdtmIp32RZZabT/Rd5/f//Tnu6foP395+fT7u3+ef/ny/om+f4rx+eP7dy/PX/ivJ/rhib779dPLu99ePv318ZfHv//8abPc/vrj09/bL7w+/HJ1MW1e0b89vkTX6L8PPz7sf/7r5eEQHv9fggviEdQlPL68xt0ouV52o/1Tcr7vRrQbNRfFSD65vASvweV+BG+u1yN4Tfa7+6cQXSpH9Jpdb0f0UFwJS/jiEsw9VFcj4FcXAL65ApNno04A313KS/jmaoal9y7C2tfuKuCzlTgKfvM6bsGPwfnl9Bu5QIAfXClH/JZdIsCPrjbAry4jfnKUVvg9uhABn5cftr9n3WvBJx44bH8vrqUjPvH6L+E5XmH6KbuSAZ4nlo/wOboI29+Thq3A81HcP+34H54/DieVPZJs6+7Q5eyeOlRynv6fAx9jytcOpUrAqkN2vi0dYkWH/UCfD8nr9r7pl7aYA2endhxSCxIOpw55mgOfzLiYdK5onRYzzsVRP44nSf48dUgk+ffrHWJYDwkDOUWNWgnkbdKQxtjKS4KU1FJcF6s9alOwcCe1yotATt5qgzrE5cljF48Dnk8en9+AA06a5GXA1CTL2ICTHOwLfEquQN7nXCz7JPhcihqcfM6FmPi4xiU4+Y3z+mKHY7aKu+cCvzyXnEhbQ4eyOGYnDlzll7WAXTpUYvbpUIs2q3RcEk7iFWKIrSpsSSeX+g1+hi3pVvcH/Ai1sBs1UXyyuir4WcL6Cp8cQTHgkuIxJJgaQS1iq4Tzj46gFrJVWZ5hLrwV17/oYit+0GP9ZvXJY0h6yweEVlf4fCQL4A+/LMSnuzxNXwcpvKdZQvja6bMPMrFxYQWeS+qMr5tEapUx/O62n6lixe1PmgkVv1i9E3xO1wA/GAl8EEZ9Da8+Au+VHwzwFZhY687X2+lzQvJ1iT8srJDDOk9/2KSoVgGY6Lb9HfCZnK3xuzQKhl+0NXg12hvg9LNVAvyNHE/wK8qwHSrgGLcOJX2jQw/oEFYZnxzYJ2kCrs6vVSZdwSA510pqsGJpJbVBBNNMZpmmhWX+Zh8C/NKl/zB8sswkraWFq+KTUWNpJIsk3it8XjE4QewTcP7RujTBz5KaDD9OvdQNEea2RTuZ3WFNtWcHJvO0sHe5fJN5hVahuOUBhMPHHQ4uXZoqT6pGmbTfhx44JeeXVLBNYcPkMGLiCaZqyE6eJJ4k7b61gPkGPmRrWy2SE5a9YgV9iGToAYOVwrchktaJv7oMYctntALtQBpMXOCnpBth7vGm/WUXLHm8fxGhu2v9iM7JKSLjGnScIQ0v8befga0fZqE5f+7+t2KJjKtOS8/RsPc2VyHvVcFSfJqUL95BiDw2ihD2HDIVxR+SQZ4eULKT8rX2va8dpvlVawJsfri+3D7VWVybmiyuzyiuxRtKxecYtbWoepNmlWB50A57Dkd4tsKGItyFF/fRmsQ112jcCHwxBUzqgS2RoDej5vJJOsML8BwsamU7pmKc01SMub04Yo96LqnNIvPfC8B3grG/UQ152B7yhp8KffbC+HRuHueWZsk0ShN2talzl0rapA9CByHJmHokjs6ANPGGpPIhQIrVtXoNokWEfNknzYDa1KAGlUSu0Ge1kn2kLL1aWSyYr/yklbOVrxN+WvAVMjb+duEwDThPexXmnoatEqrrg5Ul2BZuBnyS3ynP+KgoWP845D8CfA5M6GhDvutouxKUN/vkoaHnWga1PdKkpzDWdFDaTXVjH9QTol0kKPxAf4xbYLiwVUBiFdya1ySlRyOvQV6XVMd/s3ob4bRw1cqw+qSK55W2b7cBRus6wBdXIEdtYiKwSk7SAM75JS/XPk7qJteZAtnfT+B56NdIjBA8q9x4ek61TRv6hLAwP9gWvY+5VBXD/3QoELbgUCzQd4fqVqwoWBJX+7pYnq3/PfZRpd01tkZHtLFs2mgMjXWFtM/t78QT45R32Wrd2PJJT3CSuGXHvM9ZAw5S8w6TGE8eS542iuf74W3uuwPB+p6kPSA+5jIKSRD7bNSxnapGIWS4emd23U4hN2GfNiddlPG2S07U0bKVUhOS4nKzwnCpZzoa9hSc0E50vIbzJ2PmoiNGmd4VPjlkKEmPyJB1M8D3uaXi6YsuNIjIdV10TDFW/D4pCaFNZyV4D7Hqp5zPv9TvJHQk3eYzSviEEn7XlR6uEHDy/eY2e3sREQG+nd2gVKj4bAV5IuZJAOv1rugUJReDgo4V115kGHyeZBy2aniBkG7ekWyKFu49zXdq1a5ZhgsklHAr6kg9AN2CRNWMoewO/iZWycizHtVmYrrRU4+SdzR9yvh8gfa41vtuAs9KbbNg2VWMUsG2mT5l7XmDDnV7W7KonMljIaxdLoAub3kDOtDqWjic3JSn1ZB4i+PRQQW181a3uUm2v7Gv6VtGxA5AR5qy0/PXCkPLoXWtLAosTjiL+HBuTSflOC0carSnO/qlrt5nEM644iOiCaEAxesguYLDkKSVsq3iiIeEb0zqknXWbJKyss6VZHLisOa1nDFBXr9zmF6NFA8NzOTQj5POKjVcv2ZCOTdnu1oZSh3kX247UM7t3a65pekpoiZe1X4p4drzRNPxDD2ilN0mHX+jGVB9SFnM1ezLpI5wgg9Q+7kg4f3x0AS+Wq3xKGaTZL+ra4xZnWE6EqD6blwUiCfzZWReLUwXyJswvpx/80i7g5XE4SUhvuIMw3s7UiskH2wVl5tfh6cydqUNq78VLkAvRk6tbvlZarl5R1mmu7/gJ9ZdjdJp/9+hRSrDPbT2/+vIK3mSGoJek6vSMNyPSP9/RD4RelGIvRN60Z7/sGfCvz5/+PB4ZTz+Pz4r5k+PJ8n0w78=);strokeColor=none;spacingTop=-3;spacingBottom=-3;spacingLeft=-3;spacingRight=-3;points=[];labelBackgroundColor=none;rounded=0;html=1;whiteSpace=wrap;container=0;" vertex="1" parent="krAw0Bd3Zgh0rd1mKWKc-113">
          <mxGeometry width="58.44" height="49.39443037974684" as="geometry" />
        </mxCell>
        <mxCell id="krAw0Bd3Zgh0rd1mKWKc-102" style="vsdxID=170;fillColor=#2d5967;gradientColor=none;shape=stencil(lVjbUlsxDPyavHpsy9dnSv+DKaFkSoEJ0Ia/754mtiOZI8hbOKxsebWSJW/o6uX+5nm78fbldf/0a/t3d/t6v6FvG+93j/fb/e4VvzZ0vaGru6f99uf+6e3x9vj3882CXH79fvqzrHA42pVsEi1W3r4fvxCZ8v/D9yP+Yfd4hq/R+MrwPhgf1g1yPC3X8MEUtw5PyXjH8M6bEBWDaOxk4BU8mcQdsutgSob8l8HB1HSBJ8BbkviY1g1AXQiCy6pwOfmDL6SECtsnvr7Uwo+3/VE8brZw/VTuFI+D7yjKJ5TvqHD6dKBBVgskdVRWtGi5r8k4hW0OXlSggM99ORl0MtepyJwJSNlGwQQZlzgTKRtXBBNkMnEmUjFe81cm2dh7zd3cA9D9BSfS3zLi2/y1pgbhbzU+cX9jMbYq/hZTuDRjMlmRZmlC7/hokpIqEz5AlnSJQ4EEg8KgjhidDGxjYYVyD4CgnMpIA99RNYpk6dx0yr3rAW+5ElXGPfW0bPmCYqMUD5dMmQp9VhjxcCAzAywRFZfggNwBOaQZRBO4zEFDUGVOyC5RoEBwEgUKYSiFc474Vs85R4CTIB0oUgoUNBTE3VSMQiFEShxfGkUf4pEE9SJ8nm6cYrKSRrG2AtwNaqsIK4wnZ2KZGHeVM45aQ5xwgIqog+nsAhu6z+vuopZGLkGvZzGaE+I33iJ7xaDQtEPvPz7eIRvRXnmV8VxaXesG8FHVeK4jLYbsrdB4sdPVA9nLugJU+/Q+ZB+Vq6e4nk6jcpLCSHUmcjxUr4h2wi+qV0QwO7TIXouplTGNn4kcJj2Rhu6DoByB6d3j0L0TlOfSzzd0r7XI+aymdd1rfR1ESzyLoXun9+x8A6yg9eyYIfjyySgBnTt2UOCqxvdSLiLnG+TawPlGCJKoKnlc041vBLcIiRd5dc9lk/MHjWn8DYU2A4jYKjvMhf8zA2r94BddQhYHHiQcmqfpdHfW0RMN3TvipNNZ8zdIr4J0lJpUOelAJTXoaHv6qDn290XsH1rf0/cHFXK4QNWVLeqiaaUqkO3deyOstx8fGzh5l5QkdphO2FuwcUL0eqIjpLNxoJ0QCS8Zni9LoDR/p9nWWWW6RQrWC9BTjsMZrXuEQa3SQCtqqFGRG9TYKsLay4XoT7FEUsoaHBDd23ByzaB4aaBlcaPwbCrNylUr4UuCKDPN7A40UtR5fjGRI0rot+NhqC/P83wbmA9DfUlMsfrT0udPUfgx3rHudg8Px2ew8//Ldy98Or6Z0fU/);strokeColor=none;spacingTop=-3;spacingBottom=-3;spacingLeft=-3;spacingRight=-3;points=[];labelBackgroundColor=none;rounded=0;html=1;whiteSpace=wrap;container=0;" vertex="1" parent="krAw0Bd3Zgh0rd1mKWKc-113">
          <mxGeometry x="16.001428571428573" y="14.609620253164557" width="26.43714285714286" height="26.43645569620253" as="geometry" />
        </mxCell>
        <mxCell id="krAw0Bd3Zgh0rd1mKWKc-103" style="vsdxID=171;fillColor=#2d5967;gradientColor=none;shape=stencil(lVjbVhsxDPyavOrYlq/PFP6DU0LJKSWcAC38fbXdtbWeJU552zjSji2NRvLu+Orl4fZ5v3Pm5fV0/Ln/c7h7fdjxt51zh6eH/enwKk87vt7x1f3xtP9xOr493c2/n28ny+np1/H39Ib32S8kMm7ycuZjWTFU8r+Vm9nh8fC0coiGuLP3iWJY239/O80IdvGI5PLisix5R3FBfXfzUmIqcbFalrhQqVY8L2VLOSxWy5I3ZHiEnyN53+PLm0Pu8YuhlAA/USg9fvFkco/PnvwIviTiCPCWnAX4Qh6O7yQ1toe3xvTgzpEv55OVE5UuWWwouAvBSm6zW4bd5kDsIFiWEkOymHKBYImVHeI7KpgsS7EAvq0cXeN7SJZYWbfBt0P8lMlyj+8KMZAlhXoMzVakDNlKvqW55YspDdmSJKGIL/H3gC8ECj2+zRQS4K8oXQkULhTr2mdZskLwtME3wFbLyhJuVpEB31UtOH/+FrOKL4fF83OtecUXXQqb+BvIf6E0qJaorFpeSuNi8VRgs1Jf3O9VGJ18v1ej5V+papog1a2amuJzkQpkIVOmR46FMlSJlF/skWPQ7S1L8uJhjqJTEawiR3DqINqNDPWbChWrCAphxXEo5+LjQKGm2oN2EmKTo6YQ3Eqr4buWrqYQufahTznii3K69rKBdabswZry8HisalOPN+0SBMh5iiBA0mYLtou8KQCpnDQ4nuQo9CWQErmRA2tzbQ5xEBJRAB++5GBh4NjYbzpuU+IawckFW1iTqxpAMcIAakhb/DI03A09KUD/SoUM6Kcn4GZqrG/YrBKv/cwMm5c0t9BjSwuuLbBimx5ZWnkB3YQZI+faxs/Amh6z2ErxhrnaWJ13hMDx0oFLrM3oDLLGUYctqBTJB+S5ZCVDy3MG9ZV5zMYRdN70KXFJEGsRCxTgOsG1GpXYgP5Wm3NZdlr7Ft+qWmtgml1vT6cB7794bis5QfHPm+paK4/bpEal3iD8pYxrW1R4Lbkmj6ugKuEM8FysIjJO1GmoLTJwW5jmp5sDzKdi5UqPn0sbmRq+0ymm1ppcFgYTytqjzSx+cFsTh9TbBwgw2EflTRtfeDgNsGuV/KGjCWZkuiWC5slNMsLEur6N1qXxdfQ/7q/9hXeagGPnMOnV4A4lg2XuL1FF7jWDlhh1plGCDOxTG1xXObKDDQm5gARcIT93iMQb1mQ/cPhyjC47yIN+g7g/PD7OnzDW/+M3C1mav3fw9V8=);strokeColor=none;spacingTop=-3;spacingBottom=-3;spacingLeft=-3;spacingRight=-3;points=[];labelBackgroundColor=none;rounded=0;html=1;whiteSpace=wrap;container=0;" vertex="1" parent="krAw0Bd3Zgh0rd1mKWKc-113">
          <mxGeometry x="9.044285714285714" y="24.349367088607593" width="22.958571428571428" height="22.957974683544304" as="geometry" />
        </mxCell>
        <mxCell id="krAw0Bd3Zgh0rd1mKWKc-104" style="vsdxID=172;fillColor=#2d5967;gradientColor=none;shape=stencil(lZPLDoMgEEW/hu1keCpra//DRK2kVgza198Xy6JiUmp3w3Dmwc2F8GLqqrEhDKfZ2XNzN/XcEX4gjJmha5yZfUR4SXjRWtecnL0OdTiP1UIu0cXelg6PUKcQ8nypYvgMGQlMvBPHwPdmWPESgbKIx+8wRiAToPayAiHje2ElgNK9cJbcgvq5KuJzTOrhF5U6KtASaGKC0FvBKSYk1BokjR8gU+tvlEEQ+X6cJVr/a5TfvA8+rmxN3wdTr++3Lvap8AN4+QI=);strokeColor=none;spacingTop=-3;spacingBottom=-3;spacingLeft=-3;spacingRight=-3;points=[];labelBackgroundColor=none;rounded=0;html=1;whiteSpace=wrap;container=0;" vertex="1" parent="krAw0Bd3Zgh0rd1mKWKc-113">
          <mxGeometry x="27.82857142857143" y="26.43645569620253" width="2.782857142857143" height="2.782784810126582" as="geometry" />
        </mxCell>
        <mxCell id="krAw0Bd3Zgh0rd1mKWKc-105" style="vsdxID=173;fillColor=#2d5967;gradientColor=none;shape=stencil(lVjddhM9DHya3OrYln+v+eA9OFBoDv1aTijQvD2zZG2vlKxa7tKtlLHGo5E2B3734/7j97tDcD+eT0/f7n4fPz/fH/i/QwjHx/u70/EZnw78/sDvvjyd7r6enn4+fr78/f3jErl8+v/p1/INL5c8jpSWpODOlweeXPj74MMl/OH4uAkPlXwT8UyJjfhEMjxSjEZ4oRTkcRw5byQ0YpYJmYoo4NPP06Vgv6ZEKnlNWR/5RrleHr2ENcpR82tUf4RS18QXXhPLjOLJ0P55E3kvjovTcNqPd5SzpDtSNb7fB3JVEo4LLRYf40Dr3zFRbpIMXMKgbH2UHMWiyPAUgyQjod5qg88cP3JaUfibqI6Pa34DfulXdptdwVRminU/OFKQV1ciOePLIcQkpVkcpWiy0UjfBkCSYiMEYnUbpY7EzkbI5KNkwxIOZOuk0ipgipEA4UaR0KIqTyYsypUIrVKzCEcLSvOohbLFX2SqRfJXKwXV2jH3Fhr8ISoHyV9sVJWaZtQOfvLjazb4RXVTgs7aFf6Imq0T2iv4ylvKkMr5TQkQ/JXbuv1wSNGrC0z92LcTYBuyAyoQvcVguTbn6q78AHJndYOlDKyXIXcKSTJYmFqy8JEzjuxHzurQAx+t4ZPCD6TsCEFJzQYEWcMVDVSVYySqRoe0NsTdPSxRNLocDaR6MLV+qXuMNElHQpdrOnCMKOlA95Sk+KhTbb3HEjn7OjY5vcfhw1nhb6I6Pnosv44f+ni97eBODgjOvajbt5G03BcPNiwU3RDVNtDInNV1Tt3Ox7JSRNUeeSwqY3fxk7UhRkmGH011u5khRen3Y8DcNpdErMyFkmEWixCl22OXaSYbixTVuMQOoMclpJiVOhHllFlAVn2fOM99gq3xFKaNvymBK0l7HhvF7fDcx2mPN7z5H9f4V8PlS0Is+ijsevF7dxMm636KW90NRtYY2Osj9uTVKM6bpZZHAYEt/Jx7wMDncmXkGRsIS3zsy005ecbBlZODEXuOub51T+OaOhzw2DHUJgDeupdu4EcpfTmI/UR75de5C/jBdVDwpW94E74Nkxzwaa5L/ZHvM2APHsuhRMeukVnBh94uA34xjarg3dw6eNxttsVX5rVOQpyX+NiwoiofUVWNLVxIVeLDhXjbmNwciP5KQ8OYNl0VrqOmMdX2j/iwprH5zPqzun4GmOZ/Hqnjc5nDZCqimfwzmFXweO9Xvcc834+mIvRLJaP3dfnulZdKmFNRc2ExGrWGw470awAUwap8REW1RC7WZpaPHKe3JjcnzsQPSn5QBPMVflP1L6PK7L4b9UMRXnkvT6M7bxSh+UffqvqhiGzzP2k8z0dqacO3RKV+YFX1FoQTVfUWC0Vks/ylVkU/ao26+zbLdhi8ZeU+2x7lERWNPeYNsxIf5s9xX44PD5df87b/1z/f4dHlpz9+/wc=);strokeColor=none;spacingTop=-3;spacingBottom=-3;spacingLeft=-3;spacingRight=-3;points=[];labelBackgroundColor=none;rounded=0;html=1;whiteSpace=wrap;container=0;" vertex="1" parent="krAw0Bd3Zgh0rd1mKWKc-113">
          <mxGeometry x="31.307142857142857" y="41.74177215189873" width="11.827142857142857" height="11.826835443037975" as="geometry" />
        </mxCell>
        <mxCell id="krAw0Bd3Zgh0rd1mKWKc-106" style="vsdxID=174;fillColor=#2d5967;gradientColor=none;shape=stencil(lZHdDoIwDIWfprdLbSXEa8T3IGG4xbmRMf/e3s2FSCSi3J22X0+2HuBqUE0vgXAI3p3kTbdBAe+BSFslvQ5RAdfAVee8PHp3sW2u+yaRSZ3dNTnc8165FTtOW4SP3NkgvupDxo22E3wcjnCBAuk7Pndf8KZCYPkvvOoZc+fFT668yU88ivf5O21MTm86/4wrtnLUXD8B);strokeColor=none;spacingTop=-3;spacingBottom=-3;spacingLeft=-3;spacingRight=-3;points=[];labelBackgroundColor=none;rounded=0;html=1;whiteSpace=wrap;container=0;" vertex="1" parent="krAw0Bd3Zgh0rd1mKWKc-113">
          <mxGeometry x="36.177142857142854" y="46.61164556962025" width="2.087142857142857" height="2.0870886075949366" as="geometry" />
        </mxCell>
        <mxCell id="krAw0Bd3Zgh0rd1mKWKc-107" style="vsdxID=175;fillColor=#2d5967;gradientColor=none;shape=stencil(pVjbcls3DPwavWJIgtfnNP2PTOPUmrp2xnHa+O+DEx0Ch0uLcqdvMg1qBQLYXfLEH77df/p6dwru28vz0193/54/v9yf+LdTCOfH+7vn84t8OvHHE3/48vR89+fz0/fHz5e/v37aIrdPfz/9s33Dj8u+Wqn6bVdwr5cVruTDr5XfLxv++P582eH3LZly37IvcSJOl6UfYY+KFPagfYWZOO9BvAd5ynWP2pc4UFjDuxneUwH40igjvtNUO36pVPKIHxrFvMIvhdoIH+TEPMAXCn6ED5m4AXymwgAfKfISPlKD9H0hVwE/kOcR30v6gJ8rZUg/U6or+JwssZ4+hTKiZz9l70bkVMjHEdmRWyaeom3xugXKnjz5BHkTj9ixEkBzL8MV6JgopxE6K06Hjky+jNDSg3Di0ffhUnAfe6muoTviOqL7RHDkLG1bIfGsndLhZbZjAfjSc7sCz8X2dHg9QYXPeqZBYzJM+8YS0O7bNy2TFzpgOHr5xdrIfbaaRRl+LSO+FA2HXRp12e4yjg7bnfuIGLzwD5BNKFroDu8btTTiC3Gtx02y8MA2ctTY9VulofWk0RiKL1ERjj/KxiXZyp4QRvzYZvxkNGqDqFGsUZ0mO34KVNb5x87Gii88kIBtPU9kn1LPzPCDTXHH1xG5gt+MTvrgi/xA8wsXQPY5T9VnaqB0wtF12fvepLmTf6ME4I4SpF5Fe2DyHAXIvKW+tIM/nB8PtmCn69cuHe56qPB/yv8nvHWGfjM+Wmu9HT7pBDF0bE1vlAzoQlwFyES1zu8FS92tXO2WBgpVZAzyCC1tiBKVS6cha9ao2qHSHLvxef+wZiYXAL9QQnxHJQJ+VZZ7Nc1uS2ckBIfOTMbQI1c7ZaYDWTTkajcNq+h2Kiv8YIetZBW1Gw5k3UApN4WF/GVeUauEeNf5S69mUErxvAnzNx94cKao1NJ+PDtTv8xfviZC/4kM9TRUqoVzZ2uaoP849mQNX1XmGn6e8t/w0SpUtArbF4/oUhAHUiFzvQ/ENZvkTQSsIBFOX1yaA6ncGAmkStomgEe86U/FJIJSb4ILwx/Nu7wexAuKn9yklN7fsGkipdqwSkdgEkU60afUyaK+Yc3rDd4T/ojIuZSh74SK8nwliTB3opwRU+cbIp0bAbpwHOONyNtwWOEZCr9pMtDeJgTLti9styi7kELXy7WtQN+xGv/jhRDPXobqBnxRP6TwVetxuA/D0MuNAR2SiCAkL4OYl+hVTYxxrp/kts7ZyyAi59ZsXqbjpxv4zU2al9xU/BZMmfssFKWLjt+iXVutHd2S88VHoUGVUoM/liB0iJW7mBm8nAhczsTrDOijNSrq3g/e6D/FL52a/Gq9VbwnPGtG/deU/ixz7fCa+h7ljWKEFEZUPbsye/tWzdSYXVrb62ZXNG0dnh6S2ny3iPq0pZ17eEWzq/b4jDae1jve3eSDvdp9OT88XB79jv/HVz5ZurwQ8sef);strokeColor=none;spacingTop=-3;spacingBottom=-3;spacingLeft=-3;spacingRight=-3;points=[];labelBackgroundColor=none;rounded=0;html=1;whiteSpace=wrap;container=0;" vertex="1" parent="krAw0Bd3Zgh0rd1mKWKc-113">
          <mxGeometry x="1.3914285714285715" y="1.391392405063291" width="56.35285714285715" height="27.827848101265822" as="geometry" />
        </mxCell>
        <mxCell id="krAw0Bd3Zgh0rd1mKWKc-150" value="" style="group;aspect=fixed;" vertex="1" connectable="0" parent="krAw0Bd3Zgh0rd1mKWKc-14">
          <mxGeometry x="342.31000000000046" y="445.5" width="94" height="109" as="geometry" />
        </mxCell>
        <mxCell id="krAw0Bd3Zgh0rd1mKWKc-149" value="&lt;div style=&quot;font-size: 1px&quot;&gt;&lt;p style=&quot;align:center;margin-left:0;margin-right:0;margin-top:0px;margin-bottom:0px;text-indent:0;valign:middle;direction:ltr;&quot;&gt;&lt;font style=&quot;font-size:16.93px;font-family:Oracle Sans;color:#000000;direction:ltr;letter-spacing:0px;line-height:120%;opacity:1&quot;&gt;Rest API&lt;br&gt;&lt;/font&gt;&lt;/p&gt;&lt;/div&gt;" style="verticalAlign=middle;align=center;vsdxID=97;fillColor=none;gradientColor=none;shape=stencil(nZBLDoAgDERP0z3SIyjew0SURgSD+Lu9kMZoXLhwN9O+tukAlrNpJg1SzDH4QW/URgNYgZTkjA4UkwJUgGXng+6DX1zLfmoymdXo17xh5zmRJ6Q42BWCfc2oJfdAr+Yv+AP9Cb7OJ3H/2JG1HNGz/84klThPVCc=);strokeColor=none;spacingTop=-3;spacingBottom=-3;spacingLeft=-3;spacingRight=-3;points=[];labelBackgroundColor=none;rounded=0;html=1;whiteSpace=wrap;" vertex="1" parent="krAw0Bd3Zgh0rd1mKWKc-150">
          <mxGeometry y="89" width="94" height="20" as="geometry" />
        </mxCell>
        <mxCell id="krAw0Bd3Zgh0rd1mKWKc-145" style="vsdxID=92;fillColor=none;gradientColor=none;strokeColor=none;spacingTop=-3;spacingBottom=-3;spacingLeft=-3;spacingRight=-3;points=[];labelBackgroundColor=none;rounded=0;html=1;whiteSpace=wrap;aspect=fixed;" vertex="1" parent="krAw0Bd3Zgh0rd1mKWKc-150">
          <mxGeometry x="28.66999999999956" y="49" width="36.67" height="40" as="geometry" />
        </mxCell>
        <mxCell id="krAw0Bd3Zgh0rd1mKWKc-146" style="vsdxID=93;fillColor=#FFFFFF;gradientColor=none;shape=stencil(pZXbDoIwDIafZrfN1m5jXnt4DxNRFhEM4untZdmFRsK07G6l30d+SLMKWl6q7bkUKC991x7Lu9/1laCVQPRNVXa+H06C1oKW+7YrD117bXaxPm8DGU6n9hbe8IieDAbKZ6yUjPUmorVvplEDVEzDisDaPCERRRMoNx9WCdooCL35tAXFysLkMcmP83B5QlALTiC2oNPCeBDYAhbgEjyCNlm8K8DYaSG0M4V0ImeBdBb/45caDTZTwAUUiU+2CNZlCg6MZkXiCu/J+jMSXxhmixeJKyQur/FYsOBfF7rkLYxvnLGKZqPD4b0Y976u41797H8v0uFRXMK0fgE=);strokeColor=none;spacingTop=-3;spacingBottom=-3;spacingLeft=-3;spacingRight=-3;points=[];labelBackgroundColor=none;rounded=0;html=1;whiteSpace=wrap;" vertex="1" parent="krAw0Bd3Zgh0rd1mKWKc-145">
          <mxGeometry x="0.4365476190476191" y="0.47619047619047616" width="35.79690476190476" height="39.047619047619044" as="geometry" />
        </mxCell>
        <mxCell id="krAw0Bd3Zgh0rd1mKWKc-147" style="vsdxID=94;fillColor=#FFFFFF;gradientColor=none;shape=stencil(pZjbcoIwEIafhttMDgTCtbXv4YxYmVpx1J7evlBGbNn4L0vuEL+P2SSbbJLMrS77zanOrL5cz+1r/dlsr/vMPWXWNsd9fW6u3VPm1plb7dpz/XJu34/b4fdp05P901v70X/ha/BCrmzVW1Z/D2+scuH3xfPAH5oj5E0JhapUhU0T7m+iwhjwUp4JyHhVmjQB92lulcmTeDO+iQpep9Bja+YGIxVsUICfhCOCnVFFKQlFLORG5U6SCmLBMslGu1MqhKAcCCncenwp3wWE8q1bUrxNE7pONRXICq8qnyY4PGyFU8GkCV2jQyEJSSwwE5OGJBeYlYWGJBWk1SmVn1TLQhXFP15LPg5gT+Y9gp1y+XIY9wnluUGiwjhB5wo40SJNwFWA8E6rXNRmphBQgVnXI8I4e2YmBCPQdOMEf+uTxULA42bIQi0WupA8GIdIfcVCpIIzgjSkiICLDRUckxpaRJP9rlxgcpsIXGmigsfzU0to2qFiwUh2mQxMzxtSnlkdqcAs2PTEpEo0XFoA076U8szhh/Cg9tHZDmC6liBYUoIpjNtIeeMf05F8eQxPz3azSXyomGQIPoBPvqxBz9G2ITpy14Dw25+LYKaN5NvMoWyKg4GJtBLQdMsqo5kNtGhDjOHu4X5LtWsOh+GS6+//01ut7tVwI+bWPw==);strokeColor=none;spacingTop=-3;spacingBottom=-3;spacingLeft=-3;spacingRight=-3;points=[];labelBackgroundColor=none;rounded=0;html=1;whiteSpace=wrap;" vertex="1" parent="krAw0Bd3Zgh0rd1mKWKc-145">
          <mxGeometry width="36.67" height="40" as="geometry" />
        </mxCell>
        <mxCell id="krAw0Bd3Zgh0rd1mKWKc-148" style="vsdxID=95;fillColor=#2d5967;gradientColor=none;shape=stencil(pZfRcoIwEEW/hldmsxuCebb6H07FytSKg9jSvy8041iSumHDWyDnMpfcZUMyWl+Pu0uVIVy7tnmvvup9d8zoJUOsz8eqrbthlNEmo/Whaau3trmd9+76shvJcfTRfI5P6J1uZUYJwre7VEVeFr93to4+1efnNDwni1RSQY6MA6Pv0+kCPd/MfBRLiQcZTcCm4jmR0VrNjluAomFDWdm7xWSB5WN/VEWyAA1D61RU8+lo5b+oWDDkz8UP6fAQksyKWMB+cJCM8tH/Y0MqYPqbl/98MtKLYQEMnAtYAov2j4W0t5Nhru20tpkmWwQNRUhrftcpc2uXCZBYQWhJLFAl9+2HjqS8YVtLYEeIE187YTVIeaYeYvS0MmmVg5r97HGVF9Hse1KZl4blX2+tM69C98qTQI8hhBPX0FOIUPzFYos2XWJrgu2e/6Gg4H9CyCvLlavfyiUwIt8p/MClvCXOzDDrlbaUj/jx/xRFNL+QYRVI+UgVzBAMg8dZ61CfTu6o9nfeP5sNt9y5jjY/);strokeColor=none;spacingTop=-3;spacingBottom=-3;spacingLeft=-3;spacingRight=-3;points=[];labelBackgroundColor=none;rounded=0;html=1;whiteSpace=wrap;" vertex="1" parent="krAw0Bd3Zgh0rd1mKWKc-145">
          <mxGeometry x="0.8730952380952381" y="0.9523809523809523" width="34.923809523809524" height="38.095238095238095" as="geometry" />
        </mxCell>
        <mxCell id="krAw0Bd3Zgh0rd1mKWKc-13" value="&lt;div style=&quot;font-size: 1px&quot;&gt;&lt;p style=&quot;align:center;margin-left:0;margin-right:0;margin-top:0px;margin-bottom:0px;text-indent:0;valign:middle;direction:ltr;&quot;&gt;&lt;font style=&quot;font-size:16.93px;font-family:Oracle Sans;color:#000000;direction:ltr;letter-spacing:0px;line-height:120%;opacity:1&quot;&gt;Digital&lt;br&gt;&lt;/font&gt;&lt;font style=&quot;font-size:16.93px;font-family:Oracle Sans;color:#000000;direction:ltr;letter-spacing:0px;line-height:120%;opacity:1&quot;&gt;Assistant&lt;/font&gt;&lt;font style=&quot;font-size:16.93px;font-family:Oracle Sans;color:#000000;direction:ltr;letter-spacing:0px;line-height:120%;opacity:1&quot;&gt;&lt;br&gt;&lt;/font&gt;&lt;/p&gt;&lt;/div&gt;" style="verticalAlign=middle;align=left;vsdxID=174;fillColor=none;gradientColor=none;shape=stencil(nZBLDoAgDERP0z3SIyjew0SURgSD+Lu9kMZoXLhwN9O+tukAlrNpJg1SzDH4QW/URgNYgZTkjA4UkwJUgGXng+6DX1zLfmoymdXo17xh5zmRJ6Q42BWCfc2oJfdAr+Yv+AP9Cb7OJ3H/2JG1HNGz/84klThPVCc=);strokeColor=none;spacingTop=-3;spacingBottom=-3;spacingLeft=-3;spacingRight=-3;points=[];labelBackgroundColor=none;rounded=0;html=1;whiteSpace=wrap;" vertex="1" parent="krAw0Bd3Zgh0rd1mKWKc-14">
          <mxGeometry x="330.00000000000006" y="229.99894736842106" width="72.63" height="28.42105263157895" as="geometry" />
        </mxCell>
        <mxCell id="krAw0Bd3Zgh0rd1mKWKc-2" style="vsdxID=162;fillColor=none;gradientColor=none;strokeColor=none;spacingTop=-3;spacingBottom=-3;spacingLeft=-3;spacingRight=-3;points=[];labelBackgroundColor=none;rounded=0;html=1;whiteSpace=wrap;aspect=fixed;" vertex="1" parent="krAw0Bd3Zgh0rd1mKWKc-14">
          <mxGeometry x="419.99782608695654" y="203.45999999999998" width="66.31434782608696" height="57.631578947368425" as="geometry" />
        </mxCell>
        <mxCell id="krAw0Bd3Zgh0rd1mKWKc-3" style="vsdxID=163;fillColor=#FFFFFF;gradientColor=none;shape=stencil(nZHBCsIwEES/Zq8h2QVtz7X+R6GpCcakpLHq35uwiCJUMLeZ3TcLyQB1ixlmDSiXFMNZ3+yYDNABEK03OtqUFVAP1E0h6lMMVz+yn4dCFnUJa7lw55wsCZQPdkqyPzLqrN9Ef4CvKxVoIwW12zgp0e7+CahG4L72ifVoFu8Pn6xz3Nfn/rugPOJyqX8C);strokeColor=none;spacingTop=-3;spacingBottom=-3;spacingLeft=-3;spacingRight=-3;points=[];labelBackgroundColor=none;rounded=0;html=1;whiteSpace=wrap;" vertex="1" parent="krAw0Bd3Zgh0rd1mKWKc-2">
          <mxGeometry x="34.736086956521746" y="29.210526315789473" width="30.78880434782609" height="27.63157894736842" as="geometry" />
        </mxCell>
        <mxCell id="krAw0Bd3Zgh0rd1mKWKc-4" style="vsdxID=164;fillColor=#FFFFFF;gradientColor=none;shape=stencil(pZPdDoMgDIWfhtsGigpeO/ceJuokc2LQ/b39ZMRsGDVz3pXyHVraHMKTrsragiDteqPPxV3lfUX4gSCqpiqM6oeI8JTwpNSmOBl9bXJ3bjNL2uiib/aFh9PFIQgrQvp0iQBE8E4cHV6rZg0XEYRymecMok0CJkGEnmAoidGyIACOu/iNH96J+9NnlHo0XX75T3CsMIsiHbv7DUegPh5LYOHK9jmI2BNINo5/fvuTeWzEV3pfRYfg449S1bWz1/f91E9DynmRpy8=);strokeColor=none;spacingTop=-3;spacingBottom=-3;spacingLeft=-3;spacingRight=-3;points=[];labelBackgroundColor=none;rounded=0;html=1;whiteSpace=wrap;" vertex="1" parent="krAw0Bd3Zgh0rd1mKWKc-2">
          <mxGeometry x="33.94663043478261" y="28.42105263157895" width="31.57826086956522" height="29.210526315789473" as="geometry" />
        </mxCell>
        <mxCell id="krAw0Bd3Zgh0rd1mKWKc-5" style="vsdxID=165;fillColor=#FFFFFF;gradientColor=none;shape=stencil(nVTLcsIwDPyaXDW25EdypvQ/mBJKpjRhQmjD39epbfAjhNKbo6y8q5Wsglan/eZYF8hOQ9991N/NdtgX9FIgNu2+7pvBnApaF7TadX393nfndmu/j5sJOZ0+u6/phtHmSQ6kpixkFxvhjP1+v1r4oWkDOClQPIJrAkH3E1CBUMsJb+feKuJOQAVCuBSe5rARHQpBeyUupCqQjmsklwjas7uIQlB6id7cW8XsUl5Dnp3FzMJUKWNmFtMa45zcO7Qs5jS+VWXMGQjzHmhQ4lHBnIGWi34HTroQQakTu4OmxB545rDTkQezc2E6Kv19M+BUY8murb3EhnmBpQZM7AmqcIIqBBRP2lOZixN7Qt+9PywZibCBlGL+OhS3DJ4PGub6MB/Y+5U/fAmhpTx/Ypi3BvPnSnm/KUXNToiRJzz7PxMWV9mTm+8h3BxuS3bXHA52R4f/06VsQnah0/oH);strokeColor=none;spacingTop=-3;spacingBottom=-3;spacingLeft=-3;spacingRight=-3;points=[];labelBackgroundColor=none;rounded=0;html=1;whiteSpace=wrap;" vertex="1" parent="krAw0Bd3Zgh0rd1mKWKc-2">
          <mxGeometry x="0.79" width="49.21" height="40" as="geometry" />
        </mxCell>
        <mxCell id="krAw0Bd3Zgh0rd1mKWKc-6" style="vsdxID=166;fillColor=#FFFFFF;gradientColor=none;shape=stencil(nVjbUhsxDP2avGp8vzxT+h9MCSVTCkyAFv6+2sayZZn1JrxtFHmPLR0dybuzVy/3N8/7nVEvr8enX/u/h9vX+539tjPm8Hi/Px5e8Wlnr3f26u7puP95fHp7vD39fr5ZPJen309/lje8n9ZFA94uq4z6OFkshPjf8P3k/+PteFqgywoPMZQVmpbQO95NcUqQU3EqJgcmFyd7siRTPMpvD1nPkJMHpXvkOCCn2LZXTLnuhZCzApV6cG1BT9GzAdeD6wDG9egZT+l7dI3w4uDZg9c9PIZHuyl8gBh7fJPAJIEfwZke3xqITuAzr2Kykc6yhs/WFJPT7c1m3CXlHaO0eXyvwM7hWWCLyTtwWcC3HBWLTy1H68kPGuyU9JxVxRQceEE9xs9iCgGy7+El60MCPy84VktkUqDF0XlZmuqVQw/Oy91Wr9QR/+HwyAQiKKCEfs0fKWHTur/XkC5agEyN6ZIdoUg4N18gQ76IlVQaFswSX6NqZbOQa1HsOjavc1OuHWRR7JxJpCwGjO3xGSmJ7SDBt7iOmiroxouI6gqigOblaEnyXezBN+vcgpEq0/SD4g5eMJ0rkR2czpU4toR2YwaFYxuk7TAZXj34pr6zgBIJWOMwQ2qIA2HUN5nxzdbGiaTrS0Rr4Zxs27E99idk3+rqvIoo5W1UMDV8RkirHcB5oVPOxTDTK8P28HOp/9ZwhfIQLlEq6T8Ezzb1LCY1iJQVhEX1EyKhJVshTMmKjApCI1zdeiWMgiBmoQhadsNxEMNl80Lxcg5zoIQ026pFtVCSHEMMVUU7tqHWsoKNvU20BTySFbKsBE+xuGKPrHrYTWFSPaYztRgqZtsYSSLGWtbHcGBsvtNWwMJI0Q/DzMkSQl1I1VlxPc8BqTsNNucPNcFI7aOxjFGxNWElNFESPOLUMe8FrGyoLyKSuGzw8iNwLATRDT7RJfSydl0IbABP6GctcHmYohLt9vOxS9XDfFC41bo7JquO319y39h/ZL13ZcEwpoRK8JohFntKRx7pwfJI7JQzMdJjCp7CSA9knbyL5ioOtTQiHav1aw3Z9PhLbUxFEK9DTt5HFIyXMYG+VK+4EeC9LsmOrSHkKXquklY1KVZxafovlBB1Sw7Huc0ZXA3NBrq8Dy0aK1SY75GqlakHO73AX5rAPPYtrKRUabiOLQmSHwKwTcnhXA/BR9Xz0+AvpBINkEm9afwUwQcnSW/aQHdm31+qSZxdkZC2ksPC7LFVD/zJJXQ+F23PUfjQvnDdHR4eTh/I+P/yixiaTl/T7PU/);strokeColor=none;spacingTop=-3;spacingBottom=-3;spacingLeft=-3;spacingRight=-3;points=[];labelBackgroundColor=none;rounded=0;html=1;whiteSpace=wrap;" vertex="1" parent="krAw0Bd3Zgh0rd1mKWKc-2">
          <mxGeometry width="54.472500000000004" height="38.68421052631579" as="geometry" />
        </mxCell>
        <mxCell id="krAw0Bd3Zgh0rd1mKWKc-7" style="vsdxID=167;fillColor=#2d5967;gradientColor=none;shape=stencil(nZBLCoAwDERPk31tjuDnHoLVBmsrtf5ub0sQRdzobiZ5ycAA5pOuRwVSTMG7Xq3UBA1YgJRktfIUogIsAfPWedV5N9uG/VgnMqnBLenDxneZEOlGip09u4pRQ/aG/gTPhFf0Gf8J/otGcdXRkjHc5n3/rC+OuHosDw==);strokeColor=none;spacingTop=-3;spacingBottom=-3;spacingLeft=-3;spacingRight=-3;points=[];labelBackgroundColor=none;rounded=0;html=1;whiteSpace=wrap;" vertex="1" parent="krAw0Bd3Zgh0rd1mKWKc-2">
          <mxGeometry x="41.841195652173916" y="36.31578947368421" width="17.368043478260873" height="3.1578947368421053" as="geometry" />
        </mxCell>
        <mxCell id="krAw0Bd3Zgh0rd1mKWKc-8" style="vsdxID=168;fillColor=#2d5967;gradientColor=none;shape=stencil(nZBLCoAwDERPk31tjuDnHoLVBmsrtf5ub0sQRdzobiZ5ycAA5pOuRwVSTMG7Xq3UBA1YgJRktfIUogIsAfPWedV5N9uG/VgnMqnBLenDxneZEOlGip09u4pRQ/aG/gTPhFf0Gf8J/otGcdXRkjHc5n3/rC+OuHosDw==);strokeColor=none;spacingTop=-3;spacingBottom=-3;spacingLeft=-3;spacingRight=-3;points=[];labelBackgroundColor=none;rounded=0;html=1;whiteSpace=wrap;" vertex="1" parent="krAw0Bd3Zgh0rd1mKWKc-2">
          <mxGeometry x="41.841195652173916" y="41.8421052631579" width="17.368043478260873" height="3.1578947368421053" as="geometry" />
        </mxCell>
        <mxCell id="krAw0Bd3Zgh0rd1mKWKc-9" style="vsdxID=169;fillColor=#2d5967;gradientColor=none;shape=stencil(pZPNDoMgDICfhmsDRRDPzr2HiTrJnBh0f28/CYfJljHdbi18H6RNS3g+tuVQE6TjZM2xvupqagnfEUTdt7XV0xwRXhCeN8bWB2vOfeXzoXSki07m4l64eY86A+l9me092On+I8hoBGUCZLIexwxSFeBpBlxG3qf0H3x1kb+BYX+VAoEBLCVIFelGApxtERgDIQNBCcBNAsPoD+81bBa+1LBCmIPnDDe66/wKLO9fZ34+8vvCiwc=);strokeColor=none;spacingTop=-3;spacingBottom=-3;spacingLeft=-3;spacingRight=-3;points=[];labelBackgroundColor=none;rounded=0;html=1;whiteSpace=wrap;" vertex="1" parent="krAw0Bd3Zgh0rd1mKWKc-2">
          <mxGeometry x="35.52554347826087" y="30" width="29.209891304347828" height="26.05263157894737" as="geometry" />
        </mxCell>
        <mxCell id="krAw0Bd3Zgh0rd1mKWKc-10" style="vsdxID=170;fillColor=#2d5967;gradientColor=none;shape=stencil(pVjbVtwwDPyafdWxLMeXZ0r/g1OWsqcUOAu08Pf1NpEtyxtnad8WI2dsaTSjZEdXL/c3z/udNS+vx6cf+9+H29f7HX3ZWXt4vN8fD6/5146ud3R193Tcfz8+vT3ezn8/35wiT79+Pv06PeF93ofGnPZY8zH/TR6I/q58ncO/vR3neNQblgVCmMK89G7npZSA3BK1LFkP0S9RtERFMLRELUvWggsj9OQhTC0+5sdofFfAGB8dmKjwM1hs8dFAsEN8Aya1+AHIt/AxgFXwDkILHh3gpC4PMY2wI4Kx6u71UgtQCOBTi20KEoMHB2Rb8BzkJfjD4VGwJFfP8Ybz8fqw+TZJJcq0J8VUeFNPGm17Usx0jDpN05AiSICxRc7XRQVuuhJ5SDpN0NODhvSYuHlqhajUg7EJSN0bAwRqse253hhim1p4LFXzipqmBc6961RXmhb1pAc4hFWpRiZGxewY6SZIfuu+k2HOrSCLPHL6HbdQARcV4ZUISSW7K7S3sCGClT7Lkp/AKxmSTGSSxUrFdYqHrDLD7pK9wzKEoKRAtiCrgwWvOky2NpUoNxADCuCwEYONDZOtN2xN5Gy4x6rx/xS+cRypfisbdL6lqmLdoxIuBdqWqkyK6WeU3ye+wpr0h55vAZJr8U/mpPk2gd22vZzCNLY9Yajca7G3fWHO3GwOJo3f235udRxanxwoWGgmCKrX62jCOoPFrUu3mTMC1/R6S5bN+agdp6acb9ds8ASDx/fxuYh2sMFlNf3E83vj1vGdcVNX6rzFUZvqPHkoWc2SGZ3KdVbajmiTGwqbBzXe+ZyPqQXH6udC1DXPMfNc9VnOdhjras0u05xKgQrNAbWl5DMqWY2ASlVdnoDjUGTqFuY4cboKeLZ0dXVKVQioC7rUxsUWttfsFXq4rCdkHqRurO5vnk04DKsuMlrHR3VxUZo6QNJ2zbG8eKzVXLBJLGn4SkxbsEgN9T3hsUzoa+1WG6kkI2gjp+51JrFgjnw8qWl1ywZ1fEdQD0mfFZUGh1QmynrWoCmC9UKXJirbprZAWQG2YF8JYPtiMn4E5UCbLEnlhafCC/7xVbHMVx91ClPoqQ5hl3dIfo1QBihbr773orq97GLqoy6VB7mH9SH1A4g4JVuwkLD1+29qo0wsK7MQXdsXiaVZ6Pdq9Td9QdKqzj9Wz3+uf6kU7rVO/k1blF3Fgi38lnuv9ifDC+def/f/7Ijyv/H5R/0cdXd4eJi/Zsn/689XeWn+9EXXfwA=);strokeColor=none;spacingTop=-3;spacingBottom=-3;spacingLeft=-3;spacingRight=-3;points=[];labelBackgroundColor=none;rounded=0;html=1;whiteSpace=wrap;" vertex="1" parent="krAw0Bd3Zgh0rd1mKWKc-2">
          <mxGeometry x="0.7894565217391305" y="0.7894736842105263" width="51.314673913043485" height="36.31578947368421" as="geometry" />
        </mxCell>
        <mxCell id="krAw0Bd3Zgh0rd1mKWKc-11" style="vsdxID=171;fillColor=#2d5967;gradientColor=none;shape=stencil(lZZNctswDIVPoy2GBPi7TtN7ZBqn9tSNM47TJrcvWImkADmsu5NhUp/wADxyorvX/cPLbkLzejmffux+Hx4v+4m+TIiH5/3ufLjw00T3E909nc677+fT2/Pj/PvloawsTz9Pv8ob3ud91piyB83H/Nsb8PFv5Ou8/NvbeV5v9YYl4AzEeYd5xzmUI1i3rFpCZMHmZRUtqyws+z6WCBIYN4KnABgl3jpISeJjAk8SzxGU9JDBW4l3EMOIHgw4knQDOUt4EVCyjQSzXilIsIU84rJ2mCSXQOWMCA43OVuJth6ckryEaCg5eMVmFHlJ58+x06beSdEha8G5dYaZq1ZjbUnJzQVQcnOV2uf1wioyV9/ZcdouSHjsoQovvac05waVbFYrJwnnxg/+HwW3VtJ5pIxKvagn6W02K3zVjCSXfNbiBAElub+0jldopa3g3ISo5MR9pdLmkB+2Gr8lqvliFmrRmwFh/2ZlLX3NSghha8fD8/+4oDRN7vfWUDfa5npLNU4PqOYIfZ/0XmWj2pmbE2V65GvZBh2ljHPtyNheQ2qOMbaarAwMVVfxd4c04nOuVtsIl81tvTMoPoEyMe/bedPwDuyws0L36Yb3TZGKD35jY1fSLweH8m+W0g19LBKQGivaVj96yNOm+E7ieSI2NurrkHyGj5BV9Vlqp4/NWD2x8VnrpEaLP7J6cDNTA8PiX8mepa7j0NTPkNSlgUNZVZ83OpV+REhDO71Sfc4i6oN71VddEQqSv3XUsmh4aXHUFesFIZU+BVCtH13tqkbnRtO9V06ysfOEak1dfbc5ytb+VAWJEFT261W3OesNVskP/Xb6dDge58vt+n99m+XQfBOm+z8=);strokeColor=none;spacingTop=-3;spacingBottom=-3;spacingLeft=-3;spacingRight=-3;points=[];labelBackgroundColor=none;rounded=0;html=1;whiteSpace=wrap;" vertex="1" parent="krAw0Bd3Zgh0rd1mKWKc-2">
          <mxGeometry x="32.36771739130435" y="7.105263157894737" width="14.210217391304349" height="14.210526315789474" as="geometry" />
        </mxCell>
        <mxCell id="krAw0Bd3Zgh0rd1mKWKc-12" style="vsdxID=172;fillColor=#2d5967;gradientColor=none;shape=stencil(lZZNctswDIVPoy2GJAD+rNPkHpnGqT117YzjtOntC1WkKEIW3e4kmvAnAA+PHPDhff/8thuceb9ezt93vw4v1/2AXwbnDqf97nK4ytOAjwM+vJ4vu2+X88fpZXp/ex53jk8/zj/Hf/ic4tgA+zHKmd/TigHj/i48Tfu/flymADv9TgaizRF5yUyvn256RQvO5R15yUFMeRPmFQRDeVNeioBdsiVIimwRArf0CKzhFii0dILgWziaErdFB6PgmObaFbhpyZTmjylkW3PIK5zAYo+Mq4L7CIHupR0CsErbMpCiRwK2Pbr0DkOLT1JQhZee29DykwfrW/5SO3kpRTCxxxeFYlJdN0px3tRvLPQEBlu6T/WfCp3BdekhAsVV9qyL78HZlh8ZrJK8BHpu+dIjwz1+kg0qe2l+avFzPQpcJIUq+boHqza7sqsRRYd+Vk8hJxmk1LJHuVLLllqwmnWZZe4mHqSkKnHpVWjxHsHHFm9mWyn0pcXhbY87Hk7/5Yn3PLR+/JaJSi7UZicxqKor42JUeoGq4RXn4rWsLHRVvZzWqqqozMyFmVXwnsArT5G2lKWFo2V73fIUrJ9cmksQlZOPR4QSl4iWVHvFy61qL1E5gLb4vMof093kkeYpn2svXtCy5RyhrrClXc63bOfBK/yN1o+JqqEeZaQcrRZt209V6cXhjWo983xgz3gHys3FdaNTdNEH9eieIdxNXoxawaWqVvU9yJ1C6U4axH03F7pycznEjRo7MWVUrad165e7/tVSxxgle8neKTyBnjqsxlvPMlYnqUwwdVUvw0tKeQFXJzmHlaeOdqZ6f8NUV6Z3z1VXAfJQ76mvh+NxuuYuf9f3Wlma7sT4+Ac=);strokeColor=none;spacingTop=-3;spacingBottom=-3;spacingLeft=-3;spacingRight=-3;points=[];labelBackgroundColor=none;rounded=0;html=1;whiteSpace=wrap;" vertex="1" parent="krAw0Bd3Zgh0rd1mKWKc-2">
          <mxGeometry x="7.1051086956521745" y="7.105263157894737" width="14.210217391304349" height="14.210526315789474" as="geometry" />
        </mxCell>
        <mxCell id="krAw0Bd3Zgh0rd1mKWKc-108" value="&lt;div style=&quot;font-size: 1px&quot;&gt;&lt;p style=&quot;text-align: left; margin: 0px; text-indent: 0px; direction: ltr;&quot;&gt;&lt;font style=&quot;font-size:16.93px;font-family:Oracle Sans;color:#000000;direction:ltr;letter-spacing:0px;line-height:120%;opacity:1&quot;&gt;Visual&amp;nbsp;&lt;/font&gt;&lt;/p&gt;&lt;p style=&quot;align:center;margin-left:0;margin-right:0;margin-top:0px;margin-bottom:0px;text-indent:0;valign:middle;direction:ltr;&quot;&gt;&lt;font style=&quot;font-size:16.93px;font-family:Oracle Sans;color:#000000;direction:ltr;letter-spacing:0px;line-height:120%;opacity:1&quot;&gt;Builder&lt;br&gt;&lt;/font&gt;&lt;/p&gt;&lt;/div&gt;" style="verticalAlign=middle;align=center;vsdxID=177;fillColor=none;gradientColor=none;shape=stencil(nZBLDoAgDERP0z3SIyjew0SURgSD+Lu9kMZoXLhwN9O+tukAlrNpJg1SzDH4QW/URgNYgZTkjA4UkwJUgGXng+6DX1zLfmoymdXo17xh5zmRJ6Q42BWCfc2oJfdAr+Yv+AP9Cb7OJ3H/2JG1HNGz/84klThPVCc=);strokeColor=none;spacingTop=-3;spacingBottom=-3;spacingLeft=-3;spacingRight=-3;points=[];labelBackgroundColor=none;rounded=0;html=1;whiteSpace=wrap;container=0;" vertex="1" parent="krAw0Bd3Zgh0rd1mKWKc-14">
          <mxGeometry x="116.25" y="240.83923076923077" width="108" height="6.73076923076923" as="geometry" />
        </mxCell>
        <mxCell id="krAw0Bd3Zgh0rd1mKWKc-275" value="" style="group;aspect=fixed;" vertex="1" connectable="0" parent="krAw0Bd3Zgh0rd1mKWKc-14">
          <mxGeometry x="162.39" y="457.5" width="86.22" height="97" as="geometry" />
        </mxCell>
        <mxCell id="krAw0Bd3Zgh0rd1mKWKc-270" style="vsdxID=21;fillColor=none;gradientColor=none;strokeColor=none;spacingTop=-3;spacingBottom=-3;spacingLeft=-3;spacingRight=-3;points=[];labelBackgroundColor=none;rounded=0;html=1;whiteSpace=wrap;aspect=fixed;" vertex="1" parent="krAw0Bd3Zgh0rd1mKWKc-275">
          <mxGeometry x="8.290384615384616" y="8.290598290598291" width="60.09699807692307" height="52.22942307692308" as="geometry" />
        </mxCell>
        <mxCell id="krAw0Bd3Zgh0rd1mKWKc-271" style="vsdxID=22;fillColor=#FFFFFF;gradientColor=none;shape=stencil(lVbbVhsxDPyafdWxJF+fKfwHB0Kzp2nCCaGFv6/T9VXZC7xtHMkjj8ZjDXz3tn983Q2k3i7n06/d3/H5sh/4x0A0Hve783iJXwPfD3z3cjrvfp5P78fn6ffr4zXy+vX79Oe6w8eUpy1YvGaR+pxWUKn/vx+m8Kf38xSPKUGB0ikB+wz1QdMCM9iQYtJSCEAuRfG0RAEUpai0FDwos4ZOBN736MEC6x4fAzgBHyuyPXwTlNG7gx/GY8NTEz0tGA2Wl+PVt4KB+h4YBcGv8aDAm54GjRBMT4MB7llgDWgECwQUehp4tf/I4FwP3TSydECDF+DkwMgWGCDTg8eikx6X8GO7scfHRlsZTAEK/Fh4EAI0lfdcEYK2qwJ0wCzgFegg4EORW1EgOHF6jtQLAeaYBfCYYQV4s229fLSNXcj4MnbUDm5ia2DaxNZg+JvgtlrFMngUmMQuuszYHlgozsHqTWvuVYZmQCG36KJenLsRRQIyBCgavmI40TIo++xMsCzTEihhjKpskMu0kRBhjNEjhC07yleg3goGvXopY44VptBctwTlGJR4FbD4YoVnMIKlaBOJuCX4iCXfJFMcsuBrcBLfFUIK/owpbL1KHsHI4/viqxnfu2q12SeiJIRKggLre3wqe80qpc0oCUavJGC1UGFF82+f6l8zXaqe396Uq5kTCs3zCVEYfT06i2eB8PYEWO4Liob7KFvfE24RHIqG18RMeI36uuDanelWyiv4XM+yhN/z1Wakk24ZaJuChXUtC1ZllCoWakHUaznPJtW+NzzUhOr4Gf32zTbRV0W76mTJt+Mq9zGzVG2Ot/GjjsYv4+EwTdbt/3KUjkvTGM73/wA=);strokeColor=none;spacingTop=-3;spacingBottom=-3;spacingLeft=-3;spacingRight=-3;points=[];labelBackgroundColor=none;rounded=0;html=1;whiteSpace=wrap;" vertex="1" parent="krAw0Bd3Zgh0rd1mKWKc-270">
          <mxGeometry width="58.66611717032966" height="50.79847997892518" as="geometry" />
        </mxCell>
        <mxCell id="krAw0Bd3Zgh0rd1mKWKc-272" style="vsdxID=23;fillColor=#FFFFFF;gradientColor=none;shape=stencil(pVnJchs5DP0aXVkkwfWc5T9SiTNWjWOnFCdx/n6g6eb2oCbtyk2iAD4S2wOoE737cf/p+93J6h/Pl6d/736fvzzfn+j9ydrz4/3d5fzMn0704UTvvj5d7v65PP18/LJ9//7pKnn99O3p13WHl03PkzJXJav/bAtWUfp/4eMm/vnnZZM32+9BK+92DQMq+sXuQlEZvwvtS7yyq73QvqKVC7vQvmScimGGzjopjujGKwfw0SidRngTlMmAb1TIgB9UiFN8q4wB/Ciuz1KZAD+pZACflPeAn1f3ZwEP+FWn4ievCPAtg8URPyXlaMS3Wdnc4z+cH7tgSfxz8di2QiV8bspnNs0YXQ7DCxScCjQqVO/eVjDK2FHBlFsdmDBzAI8W9EZlMKBVCeKX495iAEsHNqnjAKqhYeTOLYCq4Sb4MoCDPrZVL14jIJnpaTsVUy0e4njakJWG07IjtR9PG0iEW0bnIr7nAybADwLfs7cy4HdJuYO5oBxYq0kd4DvdComRO+9gxJdF/O6ULbcwWpb356zNUO56y5bcNspCueu9RFKKDvw/BkyvAWxxW17Z+CZxB7trFafh2Liq+EdST1QWSh9BIBpSwY2GIFPY4QCZScZCIpAWvMP04bHuJlF3WSoDvg2LosUkkyEQbbXWLBD44BF4h8E0JCKbhKb4fA2kPWl6toiJAN9KazE1ux1uX4WO3N5VYyP2LeBcXtbg1OrJa8G75D4Gdwr5XmI7hWy/guaeJSyhY20sOmzsdSjXqlGLz6LV4NzygO4FUbmovB3R2VlhBOf6jDzFK/a4MvQKOw4cdiWP+wtisYLYZDzf4BUraKVroAlkbp911XBDf+4aa2wrE4b3oqTOhLl+mb8QXjQ618YNwkerDMzF/Ao5K9tUDnAD0RNLiB0njkfaFKxJvg0yhTVrMHdJiz1LkXl9vei2nXQMElsWqyU4NQo+BpfN7Q1w23j0leBWziYS/MrPWKZlZ2tlpVzwc26DQ1miNnE1MsxYK+vE0/jZ1d6pprQvoXuE70S0W9ko9p1H6w9wLmRmxfZgZXqe98DtJG/PozOQlBMkxa6AauY1XH0sDHooCh77iKmwh3Zv1U3O5a+etH+nkGqVOA6zqlJCXJIiN1gBE0zOI+xUgxmW1Lz/JTkOdfHbiqp4/dB6BL8xDBWZoxATzXfbtPBlllVNphfPgcm97d4hKEKz33h1ofoQUuG7tyGSUnTgdpibO439PHZBQKlrcg3q1ANn6SjvG0cW43CDAAd2OC7Ao4htw0Jt04ybKHD1GjPBzSdDtmuKb0JI2MY4NzV6Da5XPhzJ/XGYBAXdqGBPLujGhbyFFnNholsKs+LYR0NVmKZFCiriUCifsviikJQmihY9cpuJ9WD1OMI6Bt9i5eNM/0h2PJOyFCHne+gwRVbS6HEzz+Hy/Fykl0/N8qWu6fQvdTgAsRTWvP49r43c87e3/lWt0jxO/FxVDHhXC+P2M0Th+WNTLSYO/tD+S/h6fnjY/orof8f/Hnhp+9+CPvwH);strokeColor=none;spacingTop=-3;spacingBottom=-3;spacingLeft=-3;spacingRight=-3;points=[];labelBackgroundColor=none;rounded=0;html=1;whiteSpace=wrap;" vertex="1" parent="krAw0Bd3Zgh0rd1mKWKc-270">
          <mxGeometry width="60.09699807692307" height="52.22942307692308" as="geometry" />
        </mxCell>
        <mxCell id="krAw0Bd3Zgh0rd1mKWKc-273" style="vsdxID=24;fillColor=#2d5967;gradientColor=none;shape=stencil(pVrbctw2DP2afdWIN5B8TtP/yDRO7alrZxyndf6+2llRBHGw4O70zVEgHhDAwU17Cp9+PH75/nDy64/3t9e/Hv59+vr+eAq/nbx/enl8eHt63/46hc+n8Onb69vDn2+vP1++Xv79/ctZ8vzX36//nE/4uLwXl5DOL/n11/6gLPny5PeL/PPTC5N3tFT6fy+ksHjjhfUu4eX8X1x+Fdr88fPtcl/X3ih5f2N/EvcTPvx+RD9zfxJiU2L9CPu1XL/W/iisQlUJ7cIioH3tB+9YLo3YPiN2WmIcsSfAtCQ/Irs6wh5m911XAdvU+NVNYMNuqoc6wtZ+qu9WE+aucOMQllXcuE78HJgb251XAZ0Xl6fQZYllhM6LiRx9P7ZZAq4dmW38EcsCO/mlhBF7tZATM5Pj8j22NzqRgBWYTOIWTHLLWk1MKl2rpsaImV2PzxZcwQLNjH2MXMLG2YN/XVwkNtrYme7dsIOATsBi2sKzCOgkoQlDy5Fp69J907HltbmUhS0ZZV+bkE9lEcipLkkgg72V+Io2n5SojoAcIMYQGT09QY7MQdeQY1xcGJEJUmdkJGnWXm3sLe9UByEu42zLciQKxhbiEj74nmzCIWUnb56XG34cwb0SaGD1zRpw9WRf3XuoGy5Lu7st1gS5vcNSyax4KGRhO6SYUrS2gip8HjxY3WGkh0nAFdkghAwu34q/wN4Kjoy33tW1J3aXNm8Dx7YxM77JPkUFyNAGTl4oLAh2lepiARSp0UQ+w/nRNNFWKMjd9QKrardoRKiRfYO7fTB/AbzsRbPvTBfL+1rSsVdISaFr2t+jzER6vGgC1UO5fjYvJEd/aqmexpkmZEOUlZxdbzLPJiCWdTyxanWT6rT2AnOkJLvzJmiQlDFnC/aDTS19YwrNIot5GSKQQNeeHR0euyMVHPG2MiVrR8nQLwRnEbKCrc4V0tYXR6RNX2mswjJJq0AF9JXGcjNwpaXjx7Z6g1OSzyMyp88xNhkxPmHbyE23juzZeikrYCtk3eDtQgNZcV8I6NKp7w926WQfX6G0zubmAm1AxBaE10d/2HUWE13kWkywtsrhsY29EcabhOwlNn+1NiRbBEpgq+k6h1hV7voqI1EU+tI6zTY0Ay/MDA6PbTsFVi4OY43INcAkaBW3yih5UxDeyaGp+MhQYk32/kQWFRiicbqgCGGWMe/RLQM8TTs5Ub+rM5Vl8m2PJUahLNZnlWDgZpW3eb1YqJwMDRXrqDL4Ht47poE+rYRR5Nrsh0mgH9oGHtwkVdyeeVxx2Lf2yGdmyz77yfRzOCSgSNCcLCK+ym4UYh4mxQrkDwXIz+/TLAexoVgp2MM5rkQC7r8CiyDmNTkrQnQEuXOHvQjukwPuJiLrTA34DLsJwBezKsxJ05Y0ZljJ9ne4wllwiUtdt9cMPuC6UoH3WFTjCqESYKFhtStcvEnPtvZY1KLIdkHZtilLLzAUjDLgp9qTpMODW87DsqDAJ8VSNNk0Rki5jZcHtuKkCptG/ECTzAqTlC7GIaFw5ZUcrH7A6slNNo1Ky+dkylXSfcIOSklkcocB4Ya5JMpvUyKJxaKwAhtNqwVgL+yXKRM1IxiJVlzHYqtHAfwj96FkfutIAZbQx5l97y4TPfkRlnAZSWZIKsPhcWbDwAQvb0u4f532hnw10HtD2dEzM7ZH846LJptnpeciJf9g+qM85yFNvhsqPCRYeys8JMx9Cg9nV1d4SAJb8hB7ceQheHvCwzzZkCs8zDifKjzM9ST9I3m4i9weG1kkKmWplQkIAZ+To7kVng9Xd78wG9+K/cUX+Vlw6lUIWvD7jMLRMmu8FUcUmRCRoQV/0IAULbPcpHC0KI03krSIxKgwdHpxhaIFuwTJ0qKUaaDp6PEJR+tsL6KQtOJWk3fFbYpL2ngieVrlsgMiFLcLVflGnyFJVFk1lfFVXn7GPsu0M+ntj/7DrW9Pz8+X333x/5c/9NoeXX4kFj7/Bw==);strokeColor=none;spacingTop=-3;spacingBottom=-3;spacingLeft=-3;spacingRight=-3;points=[];labelBackgroundColor=none;rounded=0;html=1;whiteSpace=wrap;" vertex="1" parent="krAw0Bd3Zgh0rd1mKWKc-270">
          <mxGeometry x="0.7154404532967032" y="0.7154715489989463" width="57.23523626373626" height="49.36753688092729" as="geometry" />
        </mxCell>
        <mxCell id="krAw0Bd3Zgh0rd1mKWKc-274" value="&lt;div style=&quot;font-size: 1px&quot;&gt;&lt;p style=&quot;align:center;margin-left:0;margin-right:0;margin-top:0px;margin-bottom:0px;text-indent:0;valign:middle;direction:ltr;&quot;&gt;&lt;font style=&quot;font-size:16.93px;font-family:Oracle Sans;color:#000000;direction:ltr;letter-spacing:0px;line-height:120%;opacity:1&quot;&gt;Built-in VB&lt;/font&gt;&lt;/p&gt;&lt;p style=&quot;align:center;margin-left:0;margin-right:0;margin-top:0px;margin-bottom:0px;text-indent:0;valign:middle;direction:ltr;&quot;&gt;&lt;font style=&quot;font-size:16.93px;font-family:Oracle Sans;color:#000000;direction:ltr;letter-spacing:0px;line-height:120%;opacity:1&quot;&gt;Database&lt;/font&gt;&lt;/p&gt;&lt;/div&gt;" style="verticalAlign=middle;align=center;vsdxID=26;fillColor=none;gradientColor=none;shape=stencil(nZBLDoAgDERP0z3SIyjew0SURgSD+Lu9kMZoXLhwN9O+tukAlrNpJg1SzDH4QW/URgNYgZTkjA4UkwJUgGXng+6DX1zLfmoymdXo17xh5zmRJ6Q42BWCfc2oJfdAr+Yv+AP9Cb7OJ3H/2JG1HNGz/84klThPVCc=);strokeColor=none;spacingTop=-3;spacingBottom=-3;spacingLeft=-3;spacingRight=-3;points=[];labelBackgroundColor=none;rounded=0;html=1;whiteSpace=wrap;" vertex="1" parent="krAw0Bd3Zgh0rd1mKWKc-275">
          <mxGeometry y="63.83760683760684" width="86.22" height="33.162393162393165" as="geometry" />
        </mxCell>
        <mxCell id="krAw0Bd3Zgh0rd1mKWKc-303" value="" style="group;aspect=fixed;" vertex="1" connectable="0" parent="krAw0Bd3Zgh0rd1mKWKc-14">
          <mxGeometry x="364" y="280" width="46.72" height="46.72" as="geometry" />
        </mxCell>
        <mxCell id="krAw0Bd3Zgh0rd1mKWKc-257" style="vsdxID=23;fillColor=#FFFFFF;gradientColor=none;shape=stencil(nZPbTsMwDIafJrdWHOd4PcZ7TKyjEaWdug7K29OSVCSRFlTuHOf7fZLN6HBrT9eGCX6bxuGt+fTnqWX0xITwfduMflosRkdGh8swNq/jcO/P4X09reRqvQ8fa4Q56KwG51aV4F/Bg5z/vJ8D3vk+wbUDiRluDGh6LCADwu0RCANcZwJrwFV4DWhLnotU8HIfQ8sYJRJMVESPVaBkcM0iQgL0Vnh02UUXm58pUhzURlFJPUiPFlSRPgkcc6EGWaZPioy5UBW5y9bzWaEEpB2zVUD5aI0DrMTnOSyrxeRwZee2hfwHWt3lnav/J74Yv1d28V0XjjT9L69ycYWLpuM3);strokeColor=none;spacingTop=-3;spacingBottom=-3;spacingLeft=-3;spacingRight=-3;points=[];labelBackgroundColor=none;rounded=0;html=1;whiteSpace=wrap;movable=1;resizable=1;rotatable=1;deletable=1;editable=1;locked=0;connectable=1;container=0;" vertex="1" parent="krAw0Bd3Zgh0rd1mKWKc-303">
          <mxGeometry x="0.5561904761904761" y="0.5561904761904761" width="45.607619047619046" height="45.607619047619046" as="geometry" />
        </mxCell>
        <mxCell id="krAw0Bd3Zgh0rd1mKWKc-258" style="vsdxID=24;fillColor=#FFFFFF;gradientColor=none;shape=stencil(pVbZctswDPwavWJIgOdzmvxHJnFqTV07ozht8veFhockyGKr9E2md7kgjiU7uns7Pr4eOlRv1+Hy4/C7f74eO/rWIfbn42Hor/zV0X1Hdy+X4fB9uLyfn9Pv18cROX79vPwad/hIvOjBhpGF6jOtIFBaeEj4U39u4nnF4TYhOHB+D8FFqeAt+LhNIA/K7yJYwLgkcEgNPAGZJZ5jtNsE5CQtBYIF0nPC0/uQyqAzxYF3mZKXggGTE/GBGcUHK7nJS4EgYEZRRhko+aAKIt+UJ3BayCNEFPIIxgp5BBeFvAYMQr+itvQV6LV+3TmL6QBxrR/F8bWH4HaeX7spsXqd2KJvQWZ/VqMibyDK9MvqixGBuGovbPSjBxT93mzfOtAVzjmjHfi9jvC/eOFQcSp6WlHbm6uvAT0Vjdtg8KJAppjaTbwFR7KgppHxVUGDBtWIR1Ppp0poRDNvyIwOYhwFwcn4Q3t4OP6SnzI8DkgOr4dYxrJMjwXhHTzhvhR7Gh7blq9mPMnbGlH1LgVmpV7ujbl1SeuoqC3rQtC4kq87T9ZZi4DrIIs+TbfAvx6f3f7G8UXyuSVRys9KRBUVpHM3Gmu85nY1FrKvtRpLXLvct0uj4LHIGbtNcMXX5kbaegiEMmaVEEA3QnIBDO4h8P3gly8BtrPWVWCnYubuVg0XK39+CdyA7vLcv4D5Y3p8vvSnU3q7zv+Xj1VeSg9duv8D);strokeColor=none;spacingTop=-3;spacingBottom=-3;spacingLeft=-3;spacingRight=-3;points=[];labelBackgroundColor=none;rounded=0;html=1;whiteSpace=wrap;movable=1;resizable=1;rotatable=1;deletable=1;editable=1;locked=0;connectable=1;container=0;" vertex="1" parent="krAw0Bd3Zgh0rd1mKWKc-303">
          <mxGeometry width="46.72" height="46.72" as="geometry" />
        </mxCell>
        <mxCell id="krAw0Bd3Zgh0rd1mKWKc-259" style="vsdxID=25;fillColor=#FFFFFF;gradientColor=none;shape=stencil(jZXZctswDEW/Rq8YAuCG5yz/kWmcWlPHzihO6/594ZJaQMVK3pRrIIcALsiO7973T2+7jtz7eTj92v3pn8/7ju87ov643w39Wb86fuj47uU07H4Op4/jc/n77ekaef16Pf2+/odLyQsIiNcscn+LIgKS/iuPJeHHx1AysAR4BBpTqoTOFeFCRWCEwDWmSpLASY3iIhED5RpVJUGIW3AM4LyF5wjIFp8hoqWnDEyW7iGjhUcBzJt0S44OXLBkZ7Fem9kUjSBksd4ByRaWITc1s4OQVzVbtpJiathhChoVPwZV9qE/LuyBApSMPRCB/e0EIkg2ITeAVXHqwNBUt2qres6RLU97z7a6pZd5OY4bZB1fbPo6TWIiqyfEghkabkqQxHLbom2Tsh6U2q7iZpcyQWi6hARE9rBZnZLtaVGP2zgwhxl/ywYrvqw8qN5gtHzhyZaTC3XNguXLvLAjX/0sm3sv2tFs+awXSrT86R6a9o8hNms/x4y20aH7LfacUYUQITfk5flG5zB4/LJy9VegzcoXPa1SCnNVtJ4PzS6L3VeTV6legzf4KVq4+KnSy1xpbm97gdSM/ZP1XL01dk++8Tjpx/y0vfSHQ3kZl7+3T6FK5Rnlh38=);strokeColor=none;spacingTop=-3;spacingBottom=-3;spacingLeft=-3;spacingRight=-3;points=[];labelBackgroundColor=none;rounded=0;html=1;whiteSpace=wrap;movable=1;resizable=1;rotatable=1;deletable=1;editable=1;locked=0;connectable=1;container=0;" vertex="1" parent="krAw0Bd3Zgh0rd1mKWKc-303">
          <mxGeometry x="6.118095238095237" y="39.4895238095238" width="6.6742857142857135" height="6.6742857142857135" as="geometry" />
        </mxCell>
        <mxCell id="krAw0Bd3Zgh0rd1mKWKc-260" style="vsdxID=26;fillColor=#FFFFFF;gradientColor=none;shape=stencil(lVfbchsxCP0avzICdH1O2//INE7jaRpnnKRN/r5sd4VWbC07b2sZdNABDtKOb14ebp/3O3Ivr6fjz/2fw93rw46/7IgOTw/70+FVvnb8dcc398fT/sfp+PZ0N/9+vp0sp69fx9/TDu+zX3AQy+RF7mNeQQ/M/1a+zQ7f306zBy4uCXxcXLD5LEvvNC9FD65aLUsYwS9GvBgVSLgYLUvkgHAEnxwEA0/tEBU+oUZU4QmBUo+fCFw2+AjFr/EfD08rvpKcFDu+iKGEUcDZKW4NmB2k3AecGbzvA+YCMfcBixWWPmCfIfshPtUTKX4w4KkA5R48Rk3Niq1i2EoSTx6ByzbRZEvAYurxQwZMPf7Eh8H3EmXo8cVq2esMvnfA1OOLT+EenxGiIV+yFk21kN+e39diPIMv5ZTYnF/q0OBjATTVGtOmWjEpJRU/SkpohI9hw7+QHUyzSv8mgx+EJQPvtWg/WkbG6Z98TO15D9406xQk9/BS+5k3x2eDzwGGrTfxauAl1Wiqb8oR9fAk7But+k/2N63fawUFyHVfdSAeOCSl5kNDiyOEDOw/4yDC47l3uKS3LKodeg5FyNGk0DMEw6HkHg2H62nTqooHlFwxny4NNDfUB9zogwNHRh4IMPSHIzDKLOVBpjwyuFGysRX9cjJBHoweCSygdcjlvAPmFtKywuAG1SEdFj7nENqQv/L2kDfDUIjwhm+VXpUDp72vcqACoWrkAIdi6IwSicZYIQSHPXIoOj11DkEyY0juMcMeyuBzj52yzrK1CNshGMHZIURNVJalghCGQ1DYy4b0kjRz2sKupq61sHO2gU33umF3hTbqVTt0S2rcGeVYB1cHbWo3hGuPnYMOWp39K0KpbWPw18mpYGFz97iU9JKhlB5+XUyW4gq+rkrWnfR6cG2tl9iy2cqA8+bwyeR81Y5Vx3y7QF6n2uJhlOqCPYMf229y2zzQurQ7NSqVWtFkrzVi5IyQiNFI9fKqUa5ykOLlfiYVI9yba3O7+mv2wIzcKGEYvXD6hhhMXHc+0AvDUz7aO/L+8Pg4P0PX/9t3pyzNb1b++hc=);strokeColor=none;spacingTop=-3;spacingBottom=-3;spacingLeft=-3;spacingRight=-3;points=[];labelBackgroundColor=none;rounded=0;html=1;whiteSpace=wrap;movable=1;resizable=1;rotatable=1;deletable=1;editable=1;locked=0;connectable=1;container=0;" vertex="1" parent="krAw0Bd3Zgh0rd1mKWKc-303">
          <mxGeometry x="5.561904761904762" y="38.93333333333333" width="7.786666666666666" height="7.786666666666666" as="geometry" />
        </mxCell>
        <mxCell id="krAw0Bd3Zgh0rd1mKWKc-261" style="vsdxID=27;fillColor=#2d5967;gradientColor=none;shape=stencil(pZTRbsMgDEW/hlcL7GDCc9f9R7WmC1qWVDTdur8fDKol0YbE9mYu55AIGQvaXfrDuRMoL7OfXrp3d5x7QQ8C0Y19590cKkF7QbvT5LtnP13HY1qfD5GM1ev0Fk+4JU+C0lFC+ZGDr9VjYgc3LtkVyBa0WcJPV59OVglQQCobOeEW8sdumBIEk5EcsAFNmaEUNaDuUE6Ygc3v/7kQNsGPuNXQ8r/4mGBBkKCrBIPAuBJCYgtCQ4BNpUBcJWhoNoIGWRZYbQXVFgQDuG5Fw2B14ZbCtdoaoQ3tt74lJQvtft/8E1x6RjVPrsiG4vtdn9wwpLGw3N/OgRClGUL7Tw==);strokeColor=none;spacingTop=-3;spacingBottom=-3;spacingLeft=-3;spacingRight=-3;points=[];labelBackgroundColor=none;rounded=0;html=1;whiteSpace=wrap;movable=1;resizable=1;rotatable=1;deletable=1;editable=1;locked=0;connectable=1;container=0;" vertex="1" parent="krAw0Bd3Zgh0rd1mKWKc-303">
          <mxGeometry x="1.1123809523809522" y="1.1123809523809522" width="44.49523809523809" height="44.49523809523809" as="geometry" />
        </mxCell>
        <mxCell id="krAw0Bd3Zgh0rd1mKWKc-262" style="vsdxID=28;fillColor=#2d5967;gradientColor=none;shape=stencil(pZPdDoMgDIWfhtsGKCBeu+09TNRJ5tSo+3v7yYiZzkh03pX2fISWHoJRm8d1Sjhtu6a6pA+TdDnBA+HclHnamK6PCB4JRlnVpOemupWJO9exVdroWt3tDU/HoQIWWIrTl8toAcg+mZMDClOOABUAZxOAUbosH4qDWHJQYr3cc/OfQqkg9LSHErTcBGwd4Apg+kVMg9QTQAgIPTOc6RkHJpcBzYHuBEQI6HmSomBr454paM8eSDGsyQAE2jvVObB1SHv1ffA1WWaKwnl0XP81ZZ9yhsbjGw==);strokeColor=none;spacingTop=-3;spacingBottom=-3;spacingLeft=-3;spacingRight=-3;points=[];labelBackgroundColor=none;rounded=0;html=1;whiteSpace=wrap;movable=1;resizable=1;rotatable=1;deletable=1;editable=1;locked=0;connectable=1;container=0;" vertex="1" parent="krAw0Bd3Zgh0rd1mKWKc-303">
          <mxGeometry x="12.236190476190474" y="11.123809523809523" width="10.01142857142857" height="15.017142857142858" as="geometry" />
        </mxCell>
        <mxCell id="krAw0Bd3Zgh0rd1mKWKc-263" style="vsdxID=29;fillColor=#2d5967;gradientColor=none;shape=stencil(pZPbEoIgEIafhtsd2AXCa7P3cEZKJlNH7fT2aUxT5ESnu2X5PgZ/WUZpX+atZcj7oWu29uiKoWS0ZIiuLm3nhrFilDFK101nN12zrwu/bvOJnKpdc5hOOHmPNHA1WcjPvmMkkLh2Vl6oXP0g6AVwCgTB+Wv8tnmDFYKWn+ORk38ElYYk8nnzPL4W3gT4gRD+ImGAQkFKSCIZzniBINRrwSDgX7xMgCIX0hwwFAwHE3kFSoIM+IWJRjrjvw3oX34s7gO2dlXl5/Nx/3kgx5YfZsou);strokeColor=none;spacingTop=-3;spacingBottom=-3;spacingLeft=-3;spacingRight=-3;points=[];labelBackgroundColor=none;rounded=0;html=1;whiteSpace=wrap;movable=1;resizable=1;rotatable=1;deletable=1;editable=1;locked=0;connectable=1;container=0;" vertex="1" parent="krAw0Bd3Zgh0rd1mKWKc-303">
          <mxGeometry x="24.47238095238095" y="11.123809523809523" width="10.01142857142857" height="15.017142857142858" as="geometry" />
        </mxCell>
        <mxCell id="krAw0Bd3Zgh0rd1mKWKc-264" style="vsdxID=30;fillColor=#2d5967;gradientColor=none;shape=stencil(lZTdcoMgEIWfhtsd2A1/12n6HpnGVKdWM8a05u2DBRTo1E7u4HDw22V3ZbS/1sdLxZBfx6H/qL6b01gzemGITVdXQzO6FaMDo/25H6r3ob91J7+/HGfnvPrsv+YvTP6ehp2cLyG/e0Fw/rN/9e632+Dtwh8bENEfFKsBrZcmjCYrgikodgcmSBMFCZQOpqggEG7BkYMu6FKBkTmdJAjM8eRipBwveQ5fLX/AlUvB5PD0s4GkLaDM4WmIMVMORE8mbwVwWzx98qq4uEzBTwu0wqTM+UXd26ZLuiQexibRBKQ220SBKoJFFe8swSoDuqgU367SZm+SACwqxHOgcHEXnZmGlUEW5q9k87f5b4Kec7vFOqrnpm39pKfn5Wg7yf8W6PAA);strokeColor=none;spacingTop=-3;spacingBottom=-3;spacingLeft=-3;spacingRight=-3;points=[];labelBackgroundColor=none;rounded=0;html=1;whiteSpace=wrap;movable=1;resizable=1;rotatable=1;deletable=1;editable=1;locked=0;connectable=1;container=0;" vertex="1" parent="krAw0Bd3Zgh0rd1mKWKc-303">
          <mxGeometry x="1.1123809523809522" y="30.034285714285716" width="17.24190476190476" height="4.449523809523809" as="geometry" />
        </mxCell>
        <mxCell id="krAw0Bd3Zgh0rd1mKWKc-265" style="vsdxID=31;fillColor=#2d5967;gradientColor=none;shape=stencil(lZTdcsIgEIWfJrc7wLL8XFt9D6fGmqk1TtRW375kgITFMZ3ewbLwHc7CNri6HLbntlHich36z/an210PDb41SnWnQzt01zBqcN3gat8P7cfQ3067OD9vx8xx9NV/jyfc4z4SIPS4S4lHjEyBTcx/vw1xg4zrWoCltCOFRJzeVZyiBMpnphCBx5SEMaIU+HxMCkkL2i2hpQa0HK08COJ4A2Q5XRsQkuMFR5uAViX62J0Kl6SYDnjkiFhUKgENV+oJyHGlUoFVXKqXoCunwq2l4XKdBTJLfKVBec43oW4VH81cg9kqSZxPlVdzygu4wakmGV4em0iWwEoOLyXmmxI4/OflQ4JylfmFrQnmHBjk/LJEGebBe86vSl+/lOzWi4dVi/UI+tms/CcnsQTGcLHjy6/EWguiFhvMkovFcjlh4ofPajiePGD1UMXTlypbCU5J+rVXf/eeMJgb1747HmPfK9frRhdCsUni+hc=);strokeColor=none;spacingTop=-3;spacingBottom=-3;spacingLeft=-3;spacingRight=-3;points=[];labelBackgroundColor=none;rounded=0;html=1;whiteSpace=wrap;movable=1;resizable=1;rotatable=1;deletable=1;editable=1;locked=0;connectable=1;container=0;" vertex="1" parent="krAw0Bd3Zgh0rd1mKWKc-303">
          <mxGeometry x="3.3371428571428567" y="33.37142857142857" width="12.79238095238095" height="3.893333333333333" as="geometry" />
        </mxCell>
        <mxCell id="krAw0Bd3Zgh0rd1mKWKc-266" style="vsdxID=32;fillColor=#2d5967;gradientColor=none;shape=stencil(lZRLcsIwDIZP461GtvxcU3oPpoSSKSVMCG24fZ06Jpan0GFny5I+/ZZlQavzfnNqhMLz0HcfzXe7HfaCXoRS7XHf9O0QV4LWgla7rm/e++5y3Kb9aTN5TqvP7mvKMKY4g0BqilJ4TRYE5X4Nr8n/7dKnAJnOSYH1c8RswrQdVdpKA9bOHtnkAWfTSMkU02Qw3WrxukQf2mNRKrIyjQMy952lhqBZgER8JEsGMFyVjwTPlamYlbgyF70cV0YIgStzCEY/vFQL3nG8JXCS4zXl3tzwFkF6jtcBnOb8xesO31hQFb5InFmxZRW9qDGjPBj3pHqns8MNX15rvukAoVJftmiG+ZiLOL/qfPVQ8Kl3FZa6rndeba1uqkhydXEcdH25bumaypOoq5kpp5X+Hlde7v/jHRfL37BrD4f0tZTn9V8STekfovUP);strokeColor=none;spacingTop=-3;spacingBottom=-3;spacingLeft=-3;spacingRight=-3;points=[];labelBackgroundColor=none;rounded=0;html=1;whiteSpace=wrap;movable=1;resizable=1;rotatable=1;deletable=1;editable=1;locked=0;connectable=1;container=0;" vertex="1" parent="krAw0Bd3Zgh0rd1mKWKc-303">
          <mxGeometry x="5.561904761904762" y="36.708571428571425" width="8.342857142857142" height="2.780952380952381" as="geometry" />
        </mxCell>
        <mxCell id="krAw0Bd3Zgh0rd1mKWKc-267" style="vsdxID=33;fillColor=#2d5967;gradientColor=none;shape=stencil(lZZLctswDIZPoy2GBPgA12l6j0zj1Jq6dkZxWuf2gSqREpAp2+wkCuBH/HiIA929HB+eDwO6l+t0+XH4PT5ejwN9GRDH8/EwjVd5Guh+oLuny3T4Pl1ez4/L+/PDbDk//bz8mne4LX7sIYbZC93bsuIJPP1Z+bo4nMbzziEzBK8dHFDaO3x7nRaEX10yVMS6UiAsCHfD1SYB5tVoXWJI1YhWowiOV6O6BCX32CmDzxqOkLOGR9klarjT5MCbTLS3+AuWCnivsU4zRYOikbtzrYj5pReszowv4GoUVeaSOvYZmD9jHyGSzjyCDx2HAKQP9KG2rG4FMmvZ5JSpaOkS+GSka/s27QiyFk/21oe1bA8YNZsi+KjZToODtE/RYLdlYSse3wOLB2lwDFvtYzudqZfk1233MZsincu/K7hoWTQ7U5O3sguwRssQSFGz98lel5gAu4PBM2RDZwYTOAZATS8IZDqFHKAJvUTAruyUNklr+XFLXsUHBCbDL5DQzIcCJngx4i4+plZcrdadGRIJt37AdkQ2aU9c58JGT0BduozS1kQ1eAJGzWfXZlLjS7UmzecIwYxlWULuNrprWfWNFb3Gy4lMzedQS/G2izRpuOgRsQvnLae+KV0LqHWcM80etwF4+5Dlfbfn7i9pLh9DlyJzRvq5FE3qZRyRjb7pvJ9z2J1z0j7B/hKl523q5T9vpuw8ioPmS4uHovn/uD98+sLxHw7ysN1vnsbTabke7b/b+5AsLXcpun8H);strokeColor=none;spacingTop=-3;spacingBottom=-3;spacingLeft=-3;spacingRight=-3;points=[];labelBackgroundColor=none;rounded=0;html=1;whiteSpace=wrap;movable=1;resizable=1;rotatable=1;deletable=1;editable=1;locked=0;connectable=1;container=0;" vertex="1" parent="krAw0Bd3Zgh0rd1mKWKc-303">
          <mxGeometry x="7.230476190476189" y="40.04571428571428" width="5.561904761904762" height="5.561904761904762" as="geometry" />
        </mxCell>
        <mxCell id="krAw0Bd3Zgh0rd1mKWKc-268" value="&lt;div style=&quot;font-size: 1px&quot;&gt;&lt;p style=&quot;align:center;margin-left:0;margin-right:0;margin-top:0px;margin-bottom:0px;text-indent:0;valign:middle;direction:ltr;&quot;&gt;&lt;font style=&quot;font-size:16.93px;font-family:Oracle Sans;color:#000000;direction:ltr;letter-spacing:0px;line-height:120%;opacity:1&quot;&gt;Channel&lt;/font&gt;&lt;/p&gt;&lt;/div&gt;" style="verticalAlign=middle;align=center;vsdxID=35;fillColor=none;gradientColor=none;shape=stencil(nZBLDoAgDERP0z3SIyjew0SURgSD+Lu9kMZoXLhwN9O+tukAlrNpJg1SzDH4QW/URgNYgZTkjA4UkwJUgGXng+6DX1zLfmoymdXo17xh5zmRJ6Q42BWCfc2oJfdAr+Yv+AP9Cb7OJ3H/2JG1HNGz/84klThPVCc=);strokeColor=none;spacingTop=-3;spacingBottom=-3;spacingLeft=-3;spacingRight=-3;points=[];labelBackgroundColor=none;rounded=0;html=1;whiteSpace=wrap;" vertex="1" parent="krAw0Bd3Zgh0rd1mKWKc-14">
          <mxGeometry x="351.67" y="326.54" width="72.16" height="31.68" as="geometry" />
        </mxCell>
        <mxCell id="krAw0Bd3Zgh0rd1mKWKc-345" value="" style="group;aspect=fixed;" vertex="1" connectable="0" parent="krAw0Bd3Zgh0rd1mKWKc-14">
          <mxGeometry x="174.68" y="280" width="63.11999999999997" height="80" as="geometry" />
        </mxCell>
        <mxCell id="krAw0Bd3Zgh0rd1mKWKc-335" style="vsdxID=64;fillColor=#FFFFFF;gradientColor=none;shape=stencil(lZPdEoIgEEafhltmZSWHa6v3aMqSybQh+3v7oMV0nbK6Yz8OeFxXgfmpXB0LoeDUumZfXO2mLQXOhVK2LgtnW78SuBCYbxtX7FxzrjdUH1eBDKtDcwk33OiclkkSDim4U5AAPOsl0ZWtB3QqZ2qKXp8dXZ7EbWl05GNijMxmFN0URRCJWJpM6o5ATsTSeA38LAnMUEvMphSB+ymZplzPJ8gNgdv5J2guONHB4K6Z4GQDQzMybghcr/sCL7vBG+AYwfc94Yo9/sNE/Dc/32i/6Ad1a6uK5ny4Px5sH9FPgYsH);strokeColor=none;spacingTop=-3;spacingBottom=-3;spacingLeft=-3;spacingRight=-3;points=[];labelBackgroundColor=none;rounded=0;html=1;whiteSpace=wrap;container=0;" vertex="1" parent="krAw0Bd3Zgh0rd1mKWKc-345">
          <mxGeometry x="0.7339285714285714" y="0.7339449541284404" width="60.18214285714285" height="60.18348623853211" as="geometry" />
        </mxCell>
        <mxCell id="krAw0Bd3Zgh0rd1mKWKc-336" style="vsdxID=65;fillColor=#FFFFFF;gradientColor=none;shape=stencil(nVVdc4MgEPw1vDIH+MVzmvyPTGOqU6sZY1rz76sFFA4LtW947MrO3h4QcbhX51tJONyHvnsvv+rLUBHxQjiv26rs62FaEXEk4nDt+vKt7x7tRX3fzjNyXn10n/MfRsWTgqb5zOLwVBVORfFTOCn866NXBKYZKc2ZZjBEgZFrUE4zrkG6lFAuNUj4IF3KaCLsw5u6tcVaBFzZJiQU0j2E5fw/4lMqI//H9glaIPcmCrZvNdS4Z7lu7LNAAjdzU6xF2HYba7UIzGui19anJ37EXV2U4pChtkVDuRcfCz3siASELSsy1zJw/QJslsEbs8B1KjwR4CiTS7h+UQeuNJlRyUgseZLmSKJ1A+gKg6CDTDo6g2h/ZsNw704Iws3mv8CRywDDY+O14r3wWPcoS9x+mDx5M780I+RWOPnTYn0ornXTqHfG3scPy1RSj5I4fgM=);strokeColor=none;spacingTop=-3;spacingBottom=-3;spacingLeft=-3;spacingRight=-3;points=[];labelBackgroundColor=none;rounded=0;html=1;whiteSpace=wrap;container=0;" vertex="1" parent="krAw0Bd3Zgh0rd1mKWKc-345">
          <mxGeometry width="61.65" height="61.65137614678899" as="geometry" />
        </mxCell>
        <mxCell id="krAw0Bd3Zgh0rd1mKWKc-338" style="vsdxID=67;fillColor=#2d5967;gradientColor=none;shape=stencil(nZXRcoIwEEW/Jq9M2EWUZ6v/4SiWTCk4EVv4e6EpYXdREN8ScoKHu5uocHvNDpdUgb5WtvxKf82pyhR+KABTZKk1VTtSuFO4PZc2/bTlrTi5+eXQkd3ou/zp3lC7fckqWK+6XaAb90T/zfYOzk1B4CiACfZ4s+7NoVuEfzSkrK6BTRtgcI18FcUPP9TSzCmJp6Q0l0o23Aq4Vag19yIJIEdeCyyJxZdIv0j4ed4r4lAwYF/sJQmBssoPNVH2AGwmeWL17oZ1/Jz2qb/Byk6R+Q4879I+3b4hGt6m9ShIn+1E+WcOlziJ41AXlWwJPJcS2cD7so8p4ikN/PODgjMdwgQlLAVpWCNnX8s4ECcl4pIEeOmiWVaiObodDLfy2eS5u9TpurzF20fuHwB3dw==);strokeColor=none;spacingTop=-3;spacingBottom=-3;spacingLeft=-3;spacingRight=-3;points=[];labelBackgroundColor=none;rounded=0;html=1;whiteSpace=wrap;container=0;" vertex="1" parent="krAw0Bd3Zgh0rd1mKWKc-345">
          <mxGeometry x="1.4678571428571427" y="1.4678899082568808" width="58.71428571428571" height="58.71559633027523" as="geometry" />
        </mxCell>
        <mxCell id="krAw0Bd3Zgh0rd1mKWKc-339" style="vsdxID=68;fillColor=#2d5967;gradientColor=none;shape=stencil(nZBLCoAwDERPk31tjuDnHoLVBmsrtf5ub0sQRdzobiZ5ycAA5pOuRwVSTMG7Xq3UBA1YgJRktfIUogIsAfPWedV5N9uG/VgnMqnBLenDxneZEOlGip09u4pRQ/aG/gTPhFf0Gf8J/otGcdXRkjHc5n3/rC+OuHosDw==);strokeColor=none;spacingTop=-3;spacingBottom=-3;spacingLeft=-3;spacingRight=-3;points=[];labelBackgroundColor=none;rounded=0;html=1;whiteSpace=wrap;container=0;" vertex="1" parent="krAw0Bd3Zgh0rd1mKWKc-345">
          <mxGeometry x="11.742857142857142" y="26.422018348623855" width="37.43035714285714" height="2.2018348623853212" as="geometry" />
        </mxCell>
        <mxCell id="krAw0Bd3Zgh0rd1mKWKc-340" style="vsdxID=69;fillColor=#2d5967;gradientColor=none;shape=stencil(nZBLCoAwDERPk31tjuDnHoLVBmsrtf5ub0sQRdzobiZ5ycAA5pOuRwVSTMG7Xq3UBA1YgJRktfIUogIsAfPWedV5N9uG/VgnMqnBLenDxneZEOlGip09u4pRQ/aG/gTPhFf0Gf8J/otGcdXRkjHc5n3/rC+OuHosDw==);strokeColor=none;spacingTop=-3;spacingBottom=-3;spacingLeft=-3;spacingRight=-3;points=[];labelBackgroundColor=none;rounded=0;html=1;whiteSpace=wrap;container=0;" vertex="1" parent="krAw0Bd3Zgh0rd1mKWKc-345">
          <mxGeometry x="11.742857142857142" y="38.899082568807344" width="25.687499999999996" height="2.2018348623853212" as="geometry" />
        </mxCell>
        <mxCell id="krAw0Bd3Zgh0rd1mKWKc-341" style="vsdxID=70;fillColor=#2d5967;gradientColor=none;shape=stencil(nZBLCoAwDERPk31tjuDnHoLVBmsrtf5ub0sQRdzobiZ5ycAA5pOuRwVSTMG7Xq3UBA1YgJRktfIUogIsAfPWedV5N9uG/VgnMqnBLenDxneZEOlGip09u4pRQ/aG/gTPhFf0Gf8J/otGcdXRkjHc5n3/rC+OuHosDw==);strokeColor=none;spacingTop=-3;spacingBottom=-3;spacingLeft=-3;spacingRight=-3;points=[];labelBackgroundColor=none;rounded=0;html=1;whiteSpace=wrap;container=0;" vertex="1" parent="krAw0Bd3Zgh0rd1mKWKc-345">
          <mxGeometry x="11.742857142857142" y="50.64220183486239" width="19.082142857142856" height="2.2018348623853212" as="geometry" />
        </mxCell>
        <mxCell id="krAw0Bd3Zgh0rd1mKWKc-342" style="vsdxID=71;fillColor=#2d5967;gradientColor=none;shape=stencil(pZLdDsIgDIWfprcLo/Hnfs73WDImRISF4d/bC2kMmy6o8+60/U5pyAGsBtn0AjgbvLNHcVWtl4A74FwZKZzyQQHWgFVnnTg4ezYt1X0TyahO9hI33MjHooOzO1Ulo3pPqFZmhD6Hi+AMuhDMPp9Fpz+AZcFXEzx1Znevt8XmT0PqzBreT/rZ8OGkLwxBpNB0SmvK3Hj+GrLQooBi/QA=);strokeColor=none;spacingTop=-3;spacingBottom=-3;spacingLeft=-3;spacingRight=-3;points=[];labelBackgroundColor=none;rounded=0;html=1;whiteSpace=wrap;container=0;" vertex="1" parent="krAw0Bd3Zgh0rd1mKWKc-345">
          <mxGeometry x="5.871428571428571" y="5.871559633027523" width="6.605357142857143" height="6.605504587155964" as="geometry" />
        </mxCell>
        <mxCell id="krAw0Bd3Zgh0rd1mKWKc-344" value="" style="group;aspect=fixed;" vertex="1" connectable="0" parent="krAw0Bd3Zgh0rd1mKWKc-345">
          <mxGeometry x="1.4699999999999704" width="61.65" height="80" as="geometry" />
        </mxCell>
        <mxCell id="krAw0Bd3Zgh0rd1mKWKc-343" value="&lt;div style=&quot;font-size: 1px&quot;&gt;&lt;p style=&quot;align:center;margin-left:0;margin-right:0;margin-top:0px;margin-bottom:0px;text-indent:0;valign:middle;direction:ltr;&quot;&gt;&lt;font style=&quot;font-size:16.93px;font-family:Oracle Sans;color:#000000;direction:ltr;letter-spacing:0px;line-height:120%;opacity:1&quot;&gt;VB Application&lt;br&gt;&lt;/font&gt;&lt;/p&gt;&lt;/div&gt;" style="verticalAlign=middle;align=center;vsdxID=73;fillColor=none;gradientColor=none;shape=stencil(nZBLDoAgDERP0z3SIyjew0SURgSD+Lu9kMZoXLhwN9O+tukAlrNpJg1SzDH4QW/URgNYgZTkjA4UkwJUgGXng+6DX1zLfmoymdXo17xh5zmRJ6Q42BWCfc2oJfdAr+Yv+AP9Cb7OJ3H/2JG1HNGz/84klThPVCc=);strokeColor=none;spacingTop=-3;spacingBottom=-3;spacingLeft=-3;spacingRight=-3;points=[];labelBackgroundColor=none;rounded=0;html=1;whiteSpace=wrap;" vertex="1" parent="krAw0Bd3Zgh0rd1mKWKc-344">
          <mxGeometry x="1.871428571428571" y="71.3211009174312" width="51.37499999999999" height="14.678899082568808" as="geometry" />
        </mxCell>
        <mxCell id="krAw0Bd3Zgh0rd1mKWKc-350" value="" style="endArrow=classic;html=1;rounded=0;exitX=0.985;exitY=0.503;exitDx=0;exitDy=0;exitPerimeter=0;entryX=-0.021;entryY=0.642;entryDx=0;entryDy=0;entryPerimeter=0;" edge="1" parent="krAw0Bd3Zgh0rd1mKWKc-14" source="krAw0Bd3Zgh0rd1mKWKc-338" target="krAw0Bd3Zgh0rd1mKWKc-258">
          <mxGeometry width="50" height="50" relative="1" as="geometry">
            <mxPoint x="110" y="510" as="sourcePoint" />
            <mxPoint x="160" y="460" as="targetPoint" />
          </mxGeometry>
        </mxCell>
        <mxCell id="krAw0Bd3Zgh0rd1mKWKc-351" value="" style="endArrow=classic;html=1;rounded=0;entryX=0.538;entryY=-0.015;entryDx=0;entryDy=0;entryPerimeter=0;" edge="1" parent="krAw0Bd3Zgh0rd1mKWKc-14" target="krAw0Bd3Zgh0rd1mKWKc-270">
          <mxGeometry width="50" height="50" relative="1" as="geometry">
            <mxPoint x="203" y="380" as="sourcePoint" />
            <mxPoint x="160" y="460" as="targetPoint" />
          </mxGeometry>
        </mxCell>
        <mxCell id="krAw0Bd3Zgh0rd1mKWKc-51" value="&lt;font size=&quot;1&quot;&gt;&lt;b style=&quot;font-size: 12px&quot;&gt;Internet&lt;/b&gt;&lt;/font&gt;" style="rounded=1;whiteSpace=wrap;html=1;labelBackgroundColor=none;gradientColor=none;fontFamily=Oracle Sans;fontSize=11;align=center;fillColor=#F5F4F2;strokeColor=#9E9892;arcSize=11;verticalAlign=top;fontColor=#312D2A;spacingRight=5;glass=0;sketch=0;" vertex="1" parent="1">
          <mxGeometry x="-79" y="38" width="190" height="510" as="geometry" />
        </mxCell>
        <mxCell id="krAw0Bd3Zgh0rd1mKWKc-139" value="" style="group" vertex="1" connectable="0" parent="1">
          <mxGeometry x="628.0000000000005" y="190" width="60" height="90" as="geometry" />
        </mxCell>
        <mxCell id="krAw0Bd3Zgh0rd1mKWKc-126" style="vsdxID=125;fillColor=none;gradientColor=none;strokeColor=none;spacingTop=-3;spacingBottom=-3;spacingLeft=-3;spacingRight=-3;points=[];labelBackgroundColor=none;rounded=0;html=1;whiteSpace=wrap;aspect=fixed;" vertex="1" parent="krAw0Bd3Zgh0rd1mKWKc-139">
          <mxGeometry y="41" width="58.6046511627907" height="55.81395348837209" as="geometry" />
        </mxCell>
        <mxCell id="krAw0Bd3Zgh0rd1mKWKc-127" style="vsdxID=126;fillColor=none;gradientColor=none;strokeColor=none;spacingTop=-3;spacingBottom=-3;spacingLeft=-3;spacingRight=-3;points=[];labelBackgroundColor=none;rounded=0;html=1;whiteSpace=wrap;" vertex="1" parent="krAw0Bd3Zgh0rd1mKWKc-126">
          <mxGeometry width="58.6046511627907" height="55.81395348837209" as="geometry" />
        </mxCell>
        <mxCell id="krAw0Bd3Zgh0rd1mKWKc-128" style="vsdxID=127;fillColor=none;gradientColor=none;strokeColor=none;spacingTop=-3;spacingBottom=-3;spacingLeft=-3;spacingRight=-3;points=[];labelBackgroundColor=none;rounded=0;html=1;whiteSpace=wrap;" vertex="1" parent="krAw0Bd3Zgh0rd1mKWKc-127">
          <mxGeometry width="29.30232558139535" height="55.81395348837209" as="geometry" />
        </mxCell>
        <mxCell id="krAw0Bd3Zgh0rd1mKWKc-129" style="vsdxID=128;fillColor=#FFFFFF;gradientColor=none;shape=stencil(lZXJUsMwDEC/JleNLFleziz/0YFCM5SWSVuWv8fFSRqpkAw3R5bztKvhm8Nm9bZuCA/Hbv+y/mgfj5uGbxuidrdZd+2xnBq+a/jmad+tn7v9afdYv99WZ83z6XX/fv7DZ32XCAKdXxF+VYlD/Pm+r+oPp67qu3odIoRe3+kH+ElVIAw59zq9KAdwrtfiKvIBsBd99aKUgfIcnATY0FMEFs13CMyaH+Po5sCfavWiECDEOf70jRvfuLTIDwIhL/MFyM3xGaI3eAcYNR41WgSicR01VhAczWFRM70HYc2cGDZIMri46DELoP9nxLnglzNetDAs8xkk/ZNPBGwyXuoykea70lii+aXifdL88vs4m3FxEGzKQUzGpcRajPvgjPchjQEZ6eDDHDwSRNNuCD5reGmtbHxHTU4MmDVZjZhtu5tOpJI4PZFm51EmyGJtJG/rA2140lU7mq5Ig++/WnlR781wA/TPQjJdlEvNBG3m1JdBlMcUjOEs9W8G58LMLgkQE6OroT1Nko3aSJ4si9/JJpVLy6UcLovpqd1u616b3ttFVkR1CfLdNw==);strokeColor=none;spacingTop=-3;spacingBottom=-3;spacingLeft=-3;spacingRight=-3;points=[];labelBackgroundColor=none;rounded=0;html=1;whiteSpace=wrap;" vertex="1" parent="krAw0Bd3Zgh0rd1mKWKc-128">
          <mxGeometry width="27.906976744186046" height="54.418604651162795" as="geometry" />
        </mxCell>
        <mxCell id="krAw0Bd3Zgh0rd1mKWKc-130" style="vsdxID=129;fillColor=#FFFFFF;gradientColor=none;shape=stencil(lVfbUhsxDP2afdXYlq/PFP6DKaHJNCVMCG3691W665u8a4e3xUg51pF0JE/48LF/ft9NSnxczqefuz+Hl8t+wm+TUoe3/e58uNDXhI8TPryezrsf59Pn28v89/vzzfL29ev0+/YL19nPSzD65qXE3/lEAYb/B0+z/ffP8+wgk0cIi4dkLuKqWiPVGOFipEDjYoR3ggewegQeDBhVgxtwWIOXRvEIXAV+PLwVTJUOy4kA271t6RKPNDjDritAMK6CA28asrxn9/XRcYutgmDJfXq5Kq2wLZR78a0D44b4RkOwDF+DcjW+dom4iO+JJezhKw+eVYu3oGt4qUGzanEOkJVLabUcWQumG37pI5OPlEN8a5peWcPXYH03/SAZugD0NboGI2twQ+Cc+2y0nBgBUvWwC5d4osG7GjxfcDnAAN4OA0cD3bhXeCcXwSJf4R2JUTmGR/BfzbtCkKzty+LMV0q3jNQTR6HGlwqs6eEbBazrfKzU3HQBAk88aFZ01oNmmoNgutw71UieyjnN/SWwBl+ZDq3g8OlQC/R4lI1Gn+hGlto9RSZYWBKkr8MSicBrVg3r6rBkVOmtfDaNjMBEhPpRmxqahE7X0DpnOEEL6JYSFYVi6czllydYU0sqT540cLPRvY1UuMTAdRanTfCVNl4BT4qwAY5NukmdJBseokYmjbMsbFHDDoVT1JikxpblurhYTLVoZLMNmIaK7Oa6ZbucQ5tsk5F3Q/A09+4GL4dwrCpanliD0Q6AbFOiMhdMOGht7Ctmlue0qNjUzBG+bN2o2ELU4CuqFW3u36fzr8Yoi0VuE7ldEAfIgfSRrUeBdmAm1gkoLWckIyzh2SZWgABV5buW6mwfs+/6E1WwtqD1gtVGGUwSX6UbjviL46u54Zlpl+dxRYhtZgZDiT7yS+71cDzOD8Hy//zlR0fzqxEf/wE=);strokeColor=none;spacingTop=-3;spacingBottom=-3;spacingLeft=-3;spacingRight=-3;points=[];labelBackgroundColor=none;rounded=0;html=1;whiteSpace=wrap;" vertex="1" parent="krAw0Bd3Zgh0rd1mKWKc-128">
          <mxGeometry width="29.30232558139535" height="55.81395348837209" as="geometry" />
        </mxCell>
        <mxCell id="krAw0Bd3Zgh0rd1mKWKc-131" style="vsdxID=130;fillColor=none;gradientColor=none;strokeColor=none;spacingTop=-3;spacingBottom=-3;spacingLeft=-3;spacingRight=-3;points=[];labelBackgroundColor=none;rounded=0;html=1;whiteSpace=wrap;" vertex="1" parent="krAw0Bd3Zgh0rd1mKWKc-127">
          <mxGeometry x="28.6046511627907" width="29.30232558139535" height="55.81395348837209" as="geometry" />
        </mxCell>
        <mxCell id="krAw0Bd3Zgh0rd1mKWKc-132" style="vsdxID=131;fillColor=#FFFFFF;gradientColor=none;shape=stencil(lZVLcsIwDIZPk61G8kOO17S9B1OgZEqBCdDC7evUiWMZSKY7W5Hy/ZEUqdKL03Z5XFcKT+f28Ln+aVbnbaVfKqWa/XbdNudwqvRrpRebQ7v+aA+X/Srej8vOszt9Hb67N1xjHFmwrotSeIsW78Hxn+UtBrxf2hhB0YHB+j6CUoilaLqqaMLeo796CzX3Hlp69FdPOXPX7DORKATWM/pQijNARmpzgCzlISgj1REDGqkQnwsM3l5mEacUKgXEUiVKiSHJdV1qNF5q1AQsJRKYydQYBFuAdZIysE0NRJLNoLVkWw26YCM4moI7A2glnBSwlfTaAytJ79JVlCf3GrKhwdZT/Dxm+HiTWmGCH7ysnefboWOe8D2nLkt8D+Qkn7D4dUygF8kffYZqIJCaYo8RvcFacEqSc31D3QnQzX45W1CTlX+Q+RDDvprLPDNQPc9nYPdPvnPjQFL3/TlIcmnWZY3vir8uvF5P/nUh10XhQ66pmJhapVzfyl7IplKaM0UvPCt8mNYFOs33seeyYafuvQZStip06fV4LM4vl3AYV9Om2e3iZsufl6ssmOIa1K+/);strokeColor=none;spacingTop=-3;spacingBottom=-3;spacingLeft=-3;spacingRight=-3;points=[];labelBackgroundColor=none;rounded=0;html=1;whiteSpace=wrap;" vertex="1" parent="krAw0Bd3Zgh0rd1mKWKc-131">
          <mxGeometry width="27.906976744186046" height="54.418604651162795" as="geometry" />
        </mxCell>
        <mxCell id="krAw0Bd3Zgh0rd1mKWKc-133" style="vsdxID=132;fillColor=#FFFFFF;gradientColor=none;shape=stencil(lZfddtowDICfJrc6tuWf+Lrr3qNnpYMzBj2UbvD2FU3sWDLYcBeElE+WZEkZ8Olj/fK+Goz6OB72f1b/N6/H9YA/BmM2u/XqsDnS04DPAz697Q+r34f95+51+v3+ctG8PP3d/7u84TTZ6RGsv1gZdZ4kBnD8Fvyc9H99HiYDPf9vIIbZQgsTdTKzJICdReckgtHNSjhJUEOMs1ISQZNtFajI2S77n9g2AHL0CE6gnQHjOFqTg9iCBw3ac7i2+TWJPnpQAk+nMiPnl1rp6JjieoNf2switODHLh8daNfnOxib/EhptoIfIXJ8dBAtx1sLY+T4UitlRIE2TXxhk3LvskeZXzg5i7wCxO7xvQV8NPzegeqHn7Sc7/M9mEf5wUMwnE9F6mX1Owh1+QeOH+nC6ubVo7OK8EcEFNWPBqzAR7qOIv1l00GpdYNPNkoLfvHmGaYDuNDnh1Rr9/Op0mu8Fse3VdeLFpRIfqGU4NTWWO1vN7uiRxcGyZdgm7laDHKXDCJQdCk8d9WA11WcnKiT3nS4kqZ6OpT5N5XS7SKRcB6m/ijrjT714MlUt/hUN6BNZgAvJo4CIzqe4kRbzRrFgbJ4eBAVCwgVpvEtBxX3jnq0FTeyOEK6EuSBr+IiL6RW7WwUkdTcoiyznDEjdW5XWYdMcxqxQ7Y+LzvnYjCKUzubRbkNx7Sq3KoIB8Zw+tK6lylY7EkpDyF35hPWWvdOoVhvYH4ZTA3+lSl4jU8Tvb0F+HzYzNegRB/OCUl02hRGw+mLzrKBYLPYF4vUZ4vNxtT+pZkY74k8rV+dAVRHnta/KOb/lciXS2KDT43jQfxlpReXvajOlAqsBiDVvdOcTuMoNpdvmy/Gkvcq+FaDPHtVdOX1TXBoBp4+H1LtLF3YinlKJJn3fqdhfaY3zJgyPSxfdG+b7Xb6ICz/l1+AJJq+HvH5Cw==);strokeColor=none;spacingTop=-3;spacingBottom=-3;spacingLeft=-3;spacingRight=-3;points=[];labelBackgroundColor=none;rounded=0;html=1;whiteSpace=wrap;" vertex="1" parent="krAw0Bd3Zgh0rd1mKWKc-131">
          <mxGeometry width="29.30232558139535" height="55.81395348837209" as="geometry" />
        </mxCell>
        <mxCell id="krAw0Bd3Zgh0rd1mKWKc-134" style="vsdxID=133;fillColor=none;gradientColor=none;strokeColor=none;spacingTop=-3;spacingBottom=-3;spacingLeft=-3;spacingRight=-3;points=[];labelBackgroundColor=none;rounded=0;html=1;whiteSpace=wrap;" vertex="1" parent="krAw0Bd3Zgh0rd1mKWKc-126">
          <mxGeometry x="0.6976744186046512" y="0.6976744186046512" width="55.81395348837209" height="53.72093023255814" as="geometry" />
        </mxCell>
        <mxCell id="krAw0Bd3Zgh0rd1mKWKc-135" style="vsdxID=134;fillColor=#2d5967;gradientColor=none;shape=stencil(lVrZdhwpDP2afuWwL89Z/iMnccZ9xrFzOs7294OnCxBXFFS9dWPBRULSldS+mHc/Hj99f7ho+eP19vLvw+/rl9fHi3l/0fr6/Phwu77mTxfz4WLefX25Pfxze/n5/OX+/funN8m3T99efr2d8Oe+Lzrh9dsuLf/eV+T/3z7ehT//vN2l1SYuhYqbuKLy8o++fw1O6HLgtiSF22TMfcEnEcop25LaZHZwvRQRcI3Qrod2WiTXQ3uEtkE4BdBqhpyPCLZHVloAspLC9sDFBgWXSGwrpiqwg0y2FJXtCtZYVHgA7BbAppmxrCRmbNkDWwYse1Q39SvZ4zmHFjb8aaUIXNeYeli/MnHdUDzNtWM1lyrgvhlkAh5OgpeoKMjU+balGA64dEyLJ84GtqbHTr7HzkGqQWslZQ8drfDgXUVmL4E4oQC4naqrTM1Ju8heKIzjOXKyQkI8pTR4a3DsxFJIE9kWkgZrP12fSYpt8tsjF9Bdv4BoMBgMKa9ANKB5iAm7eBzecEECK8bIlp172+DR2x767FVKc6l9l1viBy1CWOJ7JUwAfJ5jcuQksGycPL6zwrrOWtHA+8MGJWycb2D5OpvE9+pFA4lENcZtRI26UalDKYxuKPnTM8MOwL3DqNI5iAJgWzExVN4QfGcobybSsrnAJq2nQWiFARJ08QgzuBEDIzHMyXBADJYRIr1g4WDFooWqXeg/nrGpCVNp3dvUuHkZN/AXUrHsu4sxR3zVmJPYmieBrIECsyrPkwAJUlOlZiTA88BqA8kz24Y5oycBPqMUT3FOREixEd01NFsX3aY5IAShVY/MU0BUQmEJ1cMO8rqfwQ44BQqYAZ8gJmfJOWYQHlUFzCR8DxkAsgmUlX0fIMIQLENxb0S0Z+RVa6pqnM3bMC0iMI1hzVC+BmYmwzMTlSrxKxc8TvfU9qwHd15Y1ooxcAxejRUco9gkHIQXPVZXW3ioIDRnWSp1VHO6pyVOpCN6y7IUl8o3kR1wm1MLKE+PLZZXIgUEh7SZuzjwfhNmHuqCSCXgmorTNBg5d0J7kRtHA1aykvsnCQ6DUnvRqvrLnt8wtwYrDVF+8HIQL5bRrc0xDznLaiSF/EzYblWhPb7N5RJgs1QxoHoLOXrA806erjIcArfL6eo4a52r0J69iS0VO1fXR5EKwFmTOagwnJk5B3ems/JeTslCIlmg/KAisciWEo1BI3x/sJPtk0xvDa/m5ZNpPFC5a35dYvFKd+zlcAil2F0H45gmtU8vaCnFs7tus9dWz2HeolJk3LpiF5zqhkFp3C5ZaptwRPuwGnjQUlfxk3V9v4i1FR8PUKmj6g+qGs+iNgvhdMCzURwdIZQlvyjZakVTn/Rc1J6UT4swoDvKrIQNoGghPBnV8PKajWpWgyi2oR9GUXcrvjzTLvfREroGg0FuhMQ6RoGTE5FCUysno3saQyI1kOsVpjoy79XrOgArOHLufgHHu0MqdFR1ukeBRTW/oIZ32Ve7f+velVaeAX6khOtHGfMRDZVvWg4yJtbjjjcjozpj2Y/wkZ871I843okN+pG58oNmxPLZGL2irm/CmqFBYbnii0EzZjlf0CfS/JaGSw2VB69a+EnvVdTxD3LRIFbCOlbCOlbC2bxYz9zPi2GdF5cKD/IiJ99BXuTkOyq8zudFfyQv+iN5kanOurmVc+QP7Xf7r9enp/vP/vTv+Dt/Xrr/j4D58B8=);strokeColor=none;spacingTop=-3;spacingBottom=-3;spacingLeft=-3;spacingRight=-3;points=[];labelBackgroundColor=none;rounded=0;html=1;whiteSpace=wrap;" vertex="1" parent="krAw0Bd3Zgh0rd1mKWKc-134">
          <mxGeometry width="26.511627906976745" height="53.02325581395349" as="geometry" />
        </mxCell>
        <mxCell id="krAw0Bd3Zgh0rd1mKWKc-136" style="vsdxID=135;fillColor=#2d5967;gradientColor=none;shape=stencil(lVrbchs3DP0avWJIgpflc5r+R6Zxak1dO+M4rf33wUZLEgRvqzeJBnhIAAcXWhf89OPxy/eHi1E/3l5f/nn4//r17fGCf1yMuT4/Prxe3+jTBT9f8NO3l9eHv19ffj5/vX3//mWX3D/9+/LfvsP7TU8rtesY9XH77hRo83vlz5v4Xz9fb/JaKhwL1oK3t6V3c1uKHlQ4pI4ljJCE8LayRdD+EDqW0KWlATjXOZbQgtU1PJdK8AjRrPERdLgT32iIrsYPCBhrfG3AhhrfGTC2xtcK4hTfBsAa3kPAGn23tBG3BxtrcFSgnAAHN4M25BtbYysQF9cRgoBWNa62gLrGVTNUX+6i6w3r/cc3VTVaSPY6AJ+uz4wNNRcieWjqDsEECnsnQtFB1PUJI9nICaMghHgRkTA1Czej5GV2hi27GimTYByY7S5kChznF8iUEdCJW1NG0DV2J/6JXsdxBujBFHsmSpJHN8H/DfxW44ctESfTnwkdSz6AmsJznRSg5PM1vHewyfTXwXeg4gyf59WEr2CTLFSCFM6BF8YvMskbMu/XxFiWibqqhJDveyh4C256t91DMre5pFNSK5My2QMofMulzvq2gx/Ia4LP+5EEoTcEJXxrNwihxt8yx7v2tQXq45wC49ihQFyeWhg3iOKGUYMy9Q0pQzoRvdGWvFYSh7xhkRolLZZsdLuzaaUm+LZJmWt8U2w8wdeAooZFBCeaBy6V8E2S6jOIacjw7iqgz43FSQXmX5mcRiERmpDwoUloJGVtbRK/wSZIx6US6WKSGuNb0VQEC8rX+J16sieYtp4E4ZIiNWovdMq4BT+0pCcryXpSCvA7tlJn7891StJD0U7zU5alzS3vX6QG+JTGUzPyodudk/1ZOkv4Jh8pJz0Pm8Q304C1RMjUS+RqNu3/LR1O+ItUhLusAhGtLjbW4mRBKXWSwPcr0IXDxB7MzgOFEw6kar8JAjkPXhDIhSKVvIWlu0ApNaqauiEw33lctR0RSOB3qrYlC99btamUouwadJPAKJLi8vpZaGR9Zlfd7JtuqsGIy1vMYTxpGXZCVZdfhdfdCjQq+kkA80lyoNAQVKUjlAE96xSGGsDl+wAZCcWIupN2Qp8yHJcKOk3/FF5G+G+vSHKGax1IUl5Er0MwYrItUuPy46S12M6l1lqR/tHmd4gcvkzqWDIxjRgjfKbDxnwRwPyUqUnUIF8z2utnoZH1bRkSdLNvsXQUxudHxFbq7OU7vQ8Nt/mVyOSQa15TdPOWxJmSlkyS6nOLdT7HCk4VOuy9VyE3G6MGmWnk95comkHeRZdHDuGPzrtCFhpPB0HMtmxf0wqNwT0Yfyc4e7gaghtsqqjPmSGBk5GVoKFfmH1/wRQspKATZueJtUwqRsQhp1SZlGKVhFaD524+PVFompRGoUkzbGjWWSeumwRjG6Z3moSGaSeaBOKOD0t8/rbMRgphYXRJqmsw0hCTelOXhEIsBympamphmv1l/FIjokXZ7byL82Zp/C6+bMM67+K8wTPtKRN7N5BdYGzfbuQYszIwzR2Hk0YKq9epuxXq9y8+ix0KYTGKu1LVJqM4Nde6HcWzFLZSZ0dRrlOaeyVIwk+ZeGOK1GQUz1LjScaIEOI7l1FUvg7xU2Irdfb+XEe3ljXtKU3rpckoLv1fR9iJgBERRsSpk8TyP3dcpVx6EzfcR3BR36mx3sQNe8NSWCSJThngOxdzym6XnxJbqdELduexRdZZau1RRFjnhdeVcWU2K2epET6zrG53Nq2XTHtKbKXOveCfCJg6wjghjnIcU8d8nkOm/JtjwiHqmvyaQ0XqfA7lO49zKD/lOIcu79/JoTQs6HUOpRZGr3NokTqfQ/nO4xzKTznOoc39m85wFTD0ofwQ4dv16en2Owb+d/nDBVq6/egBP/8C);strokeColor=none;spacingTop=-3;spacingBottom=-3;spacingLeft=-3;spacingRight=-3;points=[];labelBackgroundColor=none;rounded=0;html=1;whiteSpace=wrap;" vertex="1" parent="krAw0Bd3Zgh0rd1mKWKc-134">
          <mxGeometry x="28.6046511627907" width="27.209302325581397" height="53.72093023255814" as="geometry" />
        </mxCell>
        <mxCell id="krAw0Bd3Zgh0rd1mKWKc-137" value="&lt;div style=&quot;font-size: 1px&quot;&gt;&lt;p style=&quot;align:center;margin-left:0;margin-right:0;margin-top:0px;margin-bottom:0px;text-indent:0;valign:middle;direction:ltr;&quot;&gt;&lt;font style=&quot;font-size:16.93px;font-family:Oracle Sans;color:#000000;direction:ltr;letter-spacing:0px;line-height:120%;opacity:1&quot;&gt;Gen AI&lt;/font&gt;&lt;/p&gt;&lt;/div&gt;" style="verticalAlign=middle;align=center;vsdxID=137;fillColor=none;gradientColor=none;shape=stencil(nZBLDoAgDERP0z3SIyjew0SURgSD+Lu9kMZoXLhwN9O+tukAlrNpJg1SzDH4QW/URgNYgZTkjA4UkwJUgGXng+6DX1zLfmoymdXo17xh5zmRJ6Q42BWCfc2oJfdAr+Yv+AP9Cb7OJ3H/2JG1HNGz/84klThPVCc=);strokeColor=none;spacingTop=-3;spacingBottom=-3;spacingLeft=-3;spacingRight=-3;points=[];labelBackgroundColor=none;rounded=0;html=1;whiteSpace=wrap;" vertex="1" parent="krAw0Bd3Zgh0rd1mKWKc-139">
          <mxGeometry y="102.22314049586777" width="60" height="26.77685950413223" as="geometry" />
        </mxCell>
        <mxCell id="krAw0Bd3Zgh0rd1mKWKc-286" value="" style="group;aspect=fixed;" vertex="1" connectable="0" parent="1">
          <mxGeometry x="-26" y="390" width="76" height="109" as="geometry" />
        </mxCell>
        <mxCell id="krAw0Bd3Zgh0rd1mKWKc-281" style="vsdxID=28;fillColor=#FFFFFF;gradientColor=none;shape=stencil(pVXbchshDP2afdUgCRA8p+l/ZBqn3qlrZxynTf++UFhYlDEvfQOttEeXo8PCD2/Hp9fDQubtdr38OPxen2/Hhb8sROv5eLiut3Ra+HHhh5fL9fD9enk/P5f761P2zKefl1/5Dx8lzoDhHETmTzGgMf/uX4v3aT3PvANB5L3/t/dr+T3WiOperyLAvpg+qJgISKpTtQhCjNWJi8mDrT6bQSBMgdGA4xHcM/gwgqMHsiO6RzBuRE85WlT4Bqyd4keIYcR3AVgUvkDEEd85iDLi5yzDiO8YeMAfB4UO3BZRA1Kf6X5A7rAMAYggflYhCQiNFYYtqVYgG0BWBfYu1GI4FaPqY6ApOHvwarwI6EZwu+MANQbjCG4tOEWuyQak6dhxBcwsTRc7c7BloDYg8VKvAAKpNH0a0KceMc7AfQQZsV3LZsMWAsW/0De04sjn8WRy8P0upQhRskIQwv2AYHVbE19RJgHcydc2guKsHUmrUM0i7xqPDQmmrX8j7I7WW0sEPI0tyYowHUdOOSpFwiaoDT/2OXd+eDWSmExakZIiTvGj9KFscpyUVpFx0/+uxkmySaHvtI1bc2fz3Ud0i7sf8J/vkvJOh/4AvqynU3k/99/1g5lM5bHlx78=);strokeColor=none;spacingTop=-3;spacingBottom=-3;spacingLeft=-3;spacingRight=-3;points=[];labelBackgroundColor=none;rounded=0;html=1;whiteSpace=wrap;" vertex="1" parent="krAw0Bd3Zgh0rd1mKWKc-286">
          <mxGeometry x="1" y="1" width="74" height="82" as="geometry" />
        </mxCell>
        <mxCell id="krAw0Bd3Zgh0rd1mKWKc-282" style="vsdxID=29;fillColor=#FFFFFF;gradientColor=none;shape=stencil(pVjbVhsxDPyafdWxLV+fKf0PTgklpxQ4Adr076vtrr32uPFC+xaMlLGkkTTOxFcv9zfPh8mol9fT07fDz+Pt6/3EnyZjjo/3h9PxVT5NfD3x1d3T6fD19PT2eLv8/XwzW86fvj/9mL/hvPg5R6xnL6N+LSeGOP45+LzYf3k7LQ569Uiks4fOLtYuJ2eznHhDIa1G6xGTX93OvBo5CmE1Wo/kxIzAfaTgW/BAkVvwoAiwtSpuGTxoir4F15ZUqNEfjo9VqqKhNlNOU+KBvSbvWgdD3o7CC4k8t+E5T0pDfL5LrouUILuBiW0boNek7eULi4fj5sKdQ3dh311YfNYsbhdOuazlwmLloCKS38yQcmFDbkjG6MgBvPCsRY+RNAO6K0cZPSliB+iBVBqhJ7leAPhECnohWWLAF/JxAHyJBMol9UjD7Cchgm3xpSDOAH4g9oCfyETAD138UpBRP9Qe5cSbyw5S3/hf9t2FMCGVh+4jLYMIq1HlbA3dEuRitxYyuQC5qnEGIguFqOmSC0E+TR/jodal+wsPK4bnIWg3hmX4rVnyDJQ7MsDvNaGR1jEAX7X3iiV5txrgq1GxghmpBQ6B8dQSj9DScHdqVRTI1avmpylRWdfet57FOV+x7L6yw3DKt/eVDKeW1jt7xETYO/OecsP4UjYoAc4bEOYSS5pgjcguhfjYko4QHw17kANpaAXZK6nFtooiJNcU4pUmtDmRBRvFSZspETOmXWC79jvi56P2nbiC+6jLX15H+xdjTLNkMACJFSnoOfaUYPFK0aHlmbuJw9noUo2lN6DGbvveXFAhepiAX2m/32WamXG/m9Dkac/BbbpideDh3tFdmaVDR7wQB9UpPZOGDg5mgKR8fKVSyOKw9uqlpSB9CENA+Ai7UMaXh6HsZCkDQ4RZBhgirwAeUmTeNqgMhTWAn8qOrFZSVhXnMnA8jCDZiHa4kmSiphZc1rEHYaSAnL48RzKyKtv5nZqocshzd9DyKW0d8k/mu4Iof1+tDwP0qaiwhHtAoy4QEYsUmIswBBdJ7aAKc3VBloiE73TBNl7KayZ1u2CXgvIAQ10yk9sBfv9UlT7JR+VxYjsqdB0Izz9LNn/vu3pcEqFg7IyniCCA8pnnlL/sEGxpwG0SuoG9RAh01sMQ5hdkHDt0L0ihMGr28jI/bzLZoRbrpKP3BMqVd3SzsLHTSfm6BVtoZuDBoDrRXiuDPDsup+lDumDHWD5sv+3cHR8elp+G6v/jb0FytPyOxNe/AQ==);strokeColor=none;spacingTop=-3;spacingBottom=-3;spacingLeft=-3;spacingRight=-3;points=[];labelBackgroundColor=none;rounded=0;html=1;whiteSpace=wrap;" vertex="1" parent="krAw0Bd3Zgh0rd1mKWKc-286">
          <mxGeometry width="76" height="84" as="geometry" />
        </mxCell>
        <mxCell id="krAw0Bd3Zgh0rd1mKWKc-283" style="vsdxID=30;fillColor=#2c5967;gradientColor=none;shape=stencil(nVrbklQ3DPyaeXX5fnkm5D+osIStEJZaIIG/j5wZS3Zrjs8ub8tgj2S51WrJcwlvvn589+Xh4u3Xb89Pfz38+/j+28dL+O3i/ePnjw/Pj9/or0t4ewlvPjw9P/z5/PT98/vrv7+86yv7X38//dO/4cd1X4mm1b7L25/XT7Iz5f8Pfr+u//T4eV1f9uv/+P58NeBuO6qJ4bbj9lFqJuTrRz/89aPqZNXto5RNcLdV4bYqmFRuq24fJW/Kxt8ajY2Lv7TB+s0Bg3Ft2eC88Wl7Qm9cWU9Yh1N8wNxMg/OZ3Nbj5WxKWI8XTKw725kiklfbzniwTfHOeTVujU2r8UT+xNW4PQ5TjCamJUx252a0JsbVTfIAMBCynMXzWSBGgSLiMEbJ7YwHazzEKHGgh3G6shss2Hg1FfDni7FgvKNjgz+XjS2XV+CPNqSEG8o2w1w1ucL5ptwZB3SMt5+CC87DccJkAkBwTwi0AfLljBDIkeZWd2lLhvvoh0qru5nyLK7uumRSA3eD8Vs40I0lIKQcBWc3Y80UNJ8MYLEYSJhcTNtSReK0G6aLhSSQcHqmlwi5ShH0q+VC15B3lq2Ec1gupkIGWkgAKzQ2KEElAHHyBh7T+pvrdscqbO+XVqMrioVkw+Bpx3BnsjRQh6iAjRLJRG0C3Hwh6m4728UEsE2lNEOOEuPoy+fMGJdvhymxboeLx5jn5B+Yp+T3kHNxwFdAL7TI9gn2gD7C/R59TqrfMJ8NMjDlZQTriQMyEZTDjE+QdStMqKwEYCjcoCpGNhXKFQUCGCKQsCmrv8XJlQaufCywxm2xijnCKS0ArCTmrGE+EuKgYBEI0XySMjtBNW8JMgUDh5+/WNRZRvOTk8N8My688vS9GODxnbLfab5eEKsoqIISVCdg6Xp4HOuFYCEeTZDaU6kQKoVo9QSAzKpedNqUWVteqZQP/oJQRWlVC1d6tq+Lf21D6cptuUHgB/abMw5vi44BCrR5Vc07/UE1b0GEjIC1+q39aJBXsZIn44FXOu2j7WnViyrbvOEFxWr85y8tPitsst4x3LABaXTfeAWTAhhhIOzgFZxJi5ZZKE8QiABBuqgG11BEHbB9rwUdiaq9fSuwnRIQa2tRdE2yD/iK2kXsLjrRbBHYwQTtRVeqaTVPKsJCbZ9V74h1lFC+SH7/Qv9+sn6dD1Dv1NbiScp4zUiotnqDN/ti6we+OH60pUD8qO9DBqNVDeATohoQ9FX7amtV+04qfOQ2l9uk2qfeUQGD93IL2ogambjFT4rGQj9C3xzg/FRJbdDnh/TtjQwcPxzfFWVJhLsKO0/7fEJdVANd0tNV+VnQzyZtcbgPE3C1YR/dcbh1tqnC1JEGzlYRCJ4hBKWBToRJKaOK41CB4CW5WNB6GpMLtk5gVFMhIn+oTNGPZDjWUA2uKsokbMJUhZJAMA9gPxVBybCfR9t0hOnErTrbL3ouRaoAzBfubTYpRavqllJoAY6b5m/2HJGmzHtoeCnUKenTbzO6Mwrcfo9rXc0TICwUpChU8EOQFgB8p7ffWRCPb1laTYzqIPwzRod9rzRh4BHVkX3pqn+KSwC+XigA/FN+BlkE2MO8Py0/r65XuGGtiHNPwcnmdtSlNsQKI8A77KEuMCtJQeRVoQWizhGplkQW9BTRDZQdD7RHazKxF/A89XEBrIek0odWcZcqiNqFq49bYADqxuzkuANDBUY9LGR7l7GQbtTDWpjslGkIIfy3n7/20T6Ei5gV9W+vCID3bJWAuNexuuH4C+H1ajyqDSviiZU4vLdP4EVkNUDkn/brVbloQ2ML3hVfkqjOALikqkXW46EK4VPXV1DVOMsHmJ5vkKydxJGtV0VX26uryD0kFt02Ur2xAWagPUqDeeZx9rayIpiGMxmonVad3BQxE7w1uMIpw4U9yCvhsJ+5/2H7TpVWF0eY7098Gx9VHud2z3/EtAGadLSgijcRLXSzs+9CtEyRXsdBhn9YPHuE98W7GIcRnu5OijeOavsqsN+LmzK/44Zpwz343nlZq1Do56yYyjqiwXKfNrVuOPypJ7OvO6FK8mY3KWqQ+FFpXKI4D8b3HPdaTjxfv3IudYAO3q2xCsI7XEakd+W2VRm0BR8FqIIHyGVf5NVEZCK3p6LKUCW7k0QjlegBPF2+4JR9evKXybcDkTPP+Id9FFmnrwJYZ5XD/LIog56pgouu9cC9sxqQl2Scc3WdsWUGgkxDmSPPy9MzCnIv0bF6RnGqTp4B7NWIPN+wYr53emuP34XoLiK9EQTdwFuWyQ30OUUqDzNAUKW7jJn9kXWv2pwuyUGlUx6ohwrsMZ16pMk7LpmWc+Ti2YtShVTv1RdEDiUWFhVq0R2+6ViZRAVcdfykhEV1/mbR40qiT16ybAHjeHhQo/j2t/WzSvI4uKzhUdG/DKhqjp5EMsxw2uIpRfVLqQ5UPTTxEKQiQNxMTfqq5fD0h/ws7MPjp0/XX5XN/48/I6OPrj9BC2//Aw==);strokeColor=none;spacingTop=-3;spacingBottom=-3;spacingLeft=-3;spacingRight=-3;points=[];labelBackgroundColor=none;rounded=0;html=1;whiteSpace=wrap;" vertex="1" parent="krAw0Bd3Zgh0rd1mKWKc-286">
          <mxGeometry x="2" y="2" width="72" height="80" as="geometry" />
        </mxCell>
        <mxCell id="krAw0Bd3Zgh0rd1mKWKc-287" value="" style="group" vertex="1" connectable="0" parent="krAw0Bd3Zgh0rd1mKWKc-286">
          <mxGeometry width="76" height="109" as="geometry" />
        </mxCell>
        <mxCell id="krAw0Bd3Zgh0rd1mKWKc-284" value="&lt;div style=&quot;font-size: 1px&quot;&gt;&lt;p style=&quot;align:center;margin-left:0;margin-right:0;margin-top:0px;margin-bottom:0px;text-indent:0;valign:middle;direction:ltr;&quot;&gt;&lt;font style=&quot;font-size:16.93px;font-family:Oracle Sans;color:#000000;direction:ltr;letter-spacing:0px;line-height:120%;opacity:1&quot;&gt;Developer&lt;br&gt;&lt;/font&gt;&lt;/p&gt;&lt;/div&gt;" style="verticalAlign=middle;align=center;vsdxID=32;fillColor=none;gradientColor=none;shape=stencil(nZBLDoAgDERP0z3SIyjew0SURgSD+Lu9kMZoXLhwN9O+tukAlrNpJg1SzDH4QW/URgNYgZTkjA4UkwJUgGXng+6DX1zLfmoymdXo17xh5zmRJ6Q42BWCfc2oJfdAr+Yv+AP9Cb7OJ3H/2JG1HNGz/84klThPVCc=);strokeColor=none;spacingTop=-3;spacingBottom=-3;spacingLeft=-3;spacingRight=-3;points=[];labelBackgroundColor=none;rounded=0;html=1;whiteSpace=wrap;" vertex="1" parent="krAw0Bd3Zgh0rd1mKWKc-287">
          <mxGeometry x="17" y="89" width="42" height="20" as="geometry" />
        </mxCell>
        <mxCell id="krAw0Bd3Zgh0rd1mKWKc-301" value="" style="group;aspect=fixed;" vertex="1" connectable="0" parent="1">
          <mxGeometry x="-36" y="140" width="94" height="70" as="geometry" />
        </mxCell>
        <mxCell id="krAw0Bd3Zgh0rd1mKWKc-288" style="vsdxID=50;fillColor=none;gradientColor=none;strokeColor=none;spacingTop=-3;spacingBottom=-3;spacingLeft=-3;spacingRight=-3;points=[];labelBackgroundColor=none;rounded=0;html=1;whiteSpace=wrap;" vertex="1" parent="krAw0Bd3Zgh0rd1mKWKc-301">
          <mxGeometry x="5" width="84" height="46" as="geometry" />
        </mxCell>
        <mxCell id="krAw0Bd3Zgh0rd1mKWKc-289" style="vsdxID=51;fillColor=none;gradientColor=none;strokeColor=none;spacingTop=-3;spacingBottom=-3;spacingLeft=-3;spacingRight=-3;points=[];labelBackgroundColor=none;rounded=0;html=1;whiteSpace=wrap;" vertex="1" parent="krAw0Bd3Zgh0rd1mKWKc-288">
          <mxGeometry width="84" height="46" as="geometry" />
        </mxCell>
        <mxCell id="krAw0Bd3Zgh0rd1mKWKc-290" style="vsdxID=52;fillColor=#FFFFFF;gradientColor=none;shape=stencil(lVfLctswDPwaXTEEwec5Tf4j0zi1pq6dcZzW+ftClSgRkM1UNwnZlXfxIJiOHt73z2+7zpr3y/n0c/enf7nsO/rWWdsf97tzf+Gnjh47eng9nXc/zqeP48v4/vY8IIenX6ffwxeuI88MDGs+x7ecwft/kacRfOiPd8HRQhLg7x/n8dMo4dNrMBBoDF3tGPJAaQKVCIOm0JXGECLkgiKNuqkTCUIWWjcTnIfY8laLmkIOV/7QQAzSIAUIXhmsUFOIsK23YkyRBNjUWzGmUATrlFwHqOphlFRuECXV3JdJDrKUuQlMrLlZhJqC6/SWjBNEJ105C56kM844SWOOP4UNvQth7jFLW/ytCDf8RauaLENMyl+FsjOKrPLnwKkpcglSbAgmyGooIuQWIQFJAs4Dfs9hRcG5CbMaI0aVyfpcWtXoClao0q4Evi04JSkYy5jcEewMkJOCPTil1/HPqopwswQpl5OJWcktoJtqPYJX6VV4LdZ7MKiyu+goJ25adNiVo3LgZghq7jlV1BgPZmSd2haetwN6SWgXL3Dbq/ZM4GyT8MXA6vwxw6jzpd5Pdo2yc6lQZTAQJJQZHAraOORDAmul4K2E1RG2chjAS4P10VgMerBqLVCc98BssEKVibRtvRWjrJem2Ao/hbh31Q7jJESp1UBGKTVyxZTUGXRTacrgZK9txa8WujZXU3Cd5MlL4hKrXuPDxjnpL3lIVvrj08a3BFcM3cK3CQnMFwTtMDsIapvVczJfmYz0FxBMlv4WTCkoQUPrApfv/3HH3QDddHdegflhuaK/9ofDeMOv/66v9Bwa/x2gx78=);strokeColor=none;spacingTop=-3;spacingBottom=-3;spacingLeft=-3;spacingRight=-3;points=[];labelBackgroundColor=none;rounded=0;html=1;whiteSpace=wrap;" vertex="1" parent="krAw0Bd3Zgh0rd1mKWKc-289">
          <mxGeometry x="1" width="82" height="44" as="geometry" />
        </mxCell>
        <mxCell id="krAw0Bd3Zgh0rd1mKWKc-291" style="vsdxID=53;fillColor=#FFFFFF;gradientColor=none;shape=stencil(pVnBctwgDP2avTKAAJtz2v5Hptk0O02zmU3SJn9ftjYgJFvY6W1Dnmw9IT0JfICbl4fb5+PB6pfXy/nn8c/p7vXhAF8O1p6eHo6X02v6dYCvB7i5P1+OPy7nt6e76e/n2yvy+uvX+ff1Ce+T3TgoGK9WVn9MK04B/Fv4NuEfT08iPi2EPXiwSjcv+P52mTwy3GRegkGF6SX63c4or6KfUfOSs2rMKJhRoEYzo+YlFxRYwWFkMa14m1fWGBonG1CGsTqaGVabwjAm0rZlGIxyQ8sQo+alweTHLzqMLeYVr6xbN7B0C/fimUM0IJbtOGZqc6KVOFsetJm7QaGFTftnvBp2bTg3cF5pK/EzTmnfEnRGeZLS2HdbEt9Cl2EqqTlYyw4jizneqQbHPQYmKjeKDHlKRxUpQRS5XLNZbQo/q/OrasmKkgRO2bhDwjheljCO70oYNlmXMOD7vSBhoGvQtkkYttiU0ck3st9dCQNUjVnCUkZbwjCoMJCa1cpawhBJeWY4KhcFh3kJFlFbNHC6TeeBBJDSK/ic3kGNY8vN6SyChVtCacINo3IBe+XFWkrSYEj28FpySFJyaFUgteRQKwUCWoxT2sOyYct46qwnuoacyG4NLM0RnezWyBo1i1PraoAiHR8laeaQrBkYio9iFgRbO6Up6Rt8yy+1qtjSS1HMCZ35BbSnmTIoK7kb6wZ/0iD1JedFgnzUSskXIyEYqu/rfQmjal8SihgbbGpL3KDblrDJainhwK22pWFhktw5Kf8vnkzuUQ2taOs9DxfAAxuBtRjjgbV+TQLMtaq03Jo/CAQr20vywdGETwnkhT7HDWiGMm58cIOqOwK/6wTQ5ZdAkhhjzShzpJUqijX+kuxreOtEPFP7UfmhjYdj4fCedUatRnJuwZ0GCGi5hfMUJnjWR1EeG+ZHbeP9mRR4d5IjmwxIc+rg2QTGtnphAqNll2wGOoHxQ2Ttq5UfP0TWWWbZ4UAHhVR7UTgUcoPO1M3wname4QWF4yO9AMYHkg1ymDYhj8ErcmjQA1fl0PBjUEcODfOzI4fcoCeH2CKn4ajIvYVJR3do6aVKzPEu/ND4VqdVI6ibWRr4opCj/BjbnfjQucJQk0JQt+R8VEBuIXRLbLBKyNz2aBJ9zuMNYKOlvKV6KaL5rZAIz//8FLjDkcJp+HhWktMa3pF84kAVb/nO5utCdKqFTTk2spn0MwZOrLoRNZOclU4ZeiGK5sEs/rU2gYO2XR7xMbNz4cvwnbF31xgrg9sBOfBLAvlWIaB7iGIgnij5G+SbmUAeX+4A18ZPz/QWS6nlfufc9uwmIgQ2cCVvB4keb8HdAO6OeM+g3VNYOMNr8YiLLAw1qVNSBeUAVjksQ1IFwab0gKWGJV5rLbDbi+841MGnH/VL0f3p8XH60IT/T78spaXpqxR8/Qs=);strokeColor=none;spacingTop=-3;spacingBottom=-3;spacingLeft=-3;spacingRight=-3;points=[];labelBackgroundColor=none;rounded=0;html=1;whiteSpace=wrap;" vertex="1" parent="krAw0Bd3Zgh0rd1mKWKc-289">
          <mxGeometry width="84" height="46" as="geometry" />
        </mxCell>
        <mxCell id="krAw0Bd3Zgh0rd1mKWKc-292" style="vsdxID=54;fillColor=none;gradientColor=none;strokeColor=none;spacingTop=-3;spacingBottom=-3;spacingLeft=-3;spacingRight=-3;points=[];labelBackgroundColor=none;rounded=0;html=1;whiteSpace=wrap;" vertex="1" parent="krAw0Bd3Zgh0rd1mKWKc-288">
          <mxGeometry x="2" y="2" width="80" height="42" as="geometry" />
        </mxCell>
        <mxCell id="krAw0Bd3Zgh0rd1mKWKc-293" style="vsdxID=55;fillColor=#2d5967;gradientColor=none;shape=stencil(pVfLctswDPwaXTEkQYrkOU3/I9M4taeunXGcNvn7QpX4AGRRcnuTaawILBYPdfjwtn963XVGvV0v5x+734fn677DL50xh9N+dzlc6anDxw4fXs6X3ffL+f30PP5+fRosh6ef51/DGz5GXN+D1QPKqM/xxCGo8Pfk6wg4Hk4VwDnw+H8A6yD6GvDt/TL6pCenDPQTYjqxBvR4h/owk5HPR5/TEVIwcbLCudV0hAoQl/2tERMA0Nxjr5aN6V29XzaWRASwnAfFOVA8/h50z8NXPHTdg4vL3inmmY6w2RY1mNCKRPE46kyl5IFyPBxLL0UeT8wRppBITKqRnQqQ1epcIyzwK/YyMoRgeHDOghNaBa15bFQV0fDYSrKnA+fTqxeuroJLVwcwgletoBd14iIYyy/XGqzj1/cKdEMA2oDhnWMFgJjElwDepuZzu3NYiP09N1ApRtsGzCpM5TwkDgsmcxgVBMs5pMYZRAJrK9wUYY1I2Wp0j/TnPxnPXJFUFEBpw0o03WBLM09iwmKFmZs8VFBa3c7c+hjic2veSHPzu60lD8Y17SUd9dxKDCEYzwmxAVTkhNRWpUmJIVSMFtpWVuWC/Sx7VQHn6eGQe0v9X4n0zWdGTS1u4XY9Fzx3FRul0BtkIOlQ9AGE2FCTDmlib7xhDqC8hma1GAOR0+1U6aoTuZQCI/qG02WTSQtJ1RhRWi1NHQso0l2/Oc1UB9qs30/5CPfeH8GvXk9bmxcznUjyeq04bExT+Ga27tXPuj3XZ83awpIxU0OVaJ0xYgsgyWihBmtBiV5BNeqFGsoitFT81SxOCSJJyylW1gWTVSSKf75g0bocWiNMLli0NtrGej1QadsAGR3JoRczumBydDQwrOhtVNZRxOfK4plbsQdnlx2uEZkRbDpcD5uUDlpNNHfY+vSaWg7OcYdrMW5beTfIlx7KB+HL4Xgcvyfr/+UHJB2NH5/4+Ac=);strokeColor=none;spacingTop=-3;spacingBottom=-3;spacingLeft=-3;spacingRight=-3;points=[];labelBackgroundColor=none;rounded=0;html=1;whiteSpace=wrap;" vertex="1" parent="krAw0Bd3Zgh0rd1mKWKc-292">
          <mxGeometry x="54" width="26" height="42" as="geometry" />
        </mxCell>
        <mxCell id="krAw0Bd3Zgh0rd1mKWKc-294" style="vsdxID=56;fillColor=#2d5967;gradientColor=none;shape=stencil(nZHRDoIwDEW/pq9ktGQ/gPgfJAzXODcypuLfu6UxIvEBfbu3PW2aW6B2tv1kANWcYjibOw/JAh0Akb01kVNWQB1QO4ZoTjFc/SB+6gtZ1CXcyoZF5mqlygyqh3hxR0Ed+xXa6KrWe+HPrairBvfCr5O+ott7f4L/RbN45zeycxL/ur/NO5fkV9Q9AQ==);strokeColor=none;spacingTop=-3;spacingBottom=-3;spacingLeft=-3;spacingRight=-3;points=[];labelBackgroundColor=none;rounded=0;html=1;whiteSpace=wrap;" vertex="1" parent="krAw0Bd3Zgh0rd1mKWKc-292">
          <mxGeometry x="70" y="31" width="2" height="10" as="geometry" />
        </mxCell>
        <mxCell id="krAw0Bd3Zgh0rd1mKWKc-295" style="vsdxID=57;fillColor=#2d5967;gradientColor=none;shape=stencil(nVfbchshDP2afdUA4vqcJv+RaZzaU9fOOE6b/n3lLrAgDF5npg8u0VlxpKMLEz68b5/fNpMS7+fT8efmz+7lvJ3w26TU7rDdnHZn+jXh44QPr8fT5sfp+HF4mf//9nyxvPz6dfx9+cLnjPMOCHL5J/7OJyaA0v9PnmbA94/TjJAZElyExCPjwcWjTxWt6Ch9WGUrFaIVRqsAOn0rHhkHXo38BwkOmX8DQdX+gwanmX8NpnYfHDjD3CMIX7rf7w5lvApaXwRok+LXI2hAh5qgViB9TVAKUdNDm2GJ32ITD1AAYv+yi300B1TrrUXflJIqdd+YR+BCtw6AqMkjgseavgVpa/alUQqIBRP61ywRERDgLnuUoPyIWgmRbeKWXHqmXk1fxpoghcnbmiCJSwxSViKyfI0ZMozq7gI4Q0lX0DXDBZMZMvFa8sPYMek6DVr2L1pLMUnzqmnIzepL1s1FmvpdEPHEWkDGX1ElshAIkKx+UaVyzWFYrK4nGMHK6ro3AFaDtWN+rKHdnhh3A+qZ1DaLXNvXMyRyZXTsmxFWNOWkWgTFRxhVXJ2i0ijJ0kNgI2SxWpmiBtD0QwOSNUQPBuvr6gCW3bftiWVscU1wbyejTl4Zjzx2wyAc1iS5ZQcIYTBRjQTv7/HQArQHPyxhQwXLRrARSbQ54laCNXXEyVce1Cm+Ni8necnIVh3/1oHlO5ZsVgDrQfMd64r/AJLvWLf8OwWB71itf0ebDN+xBDh5s0JIqm6gubs1tAJQq7SMXGdwNikpkr2UJevqtIhaPrc1CNYzKEjoWUTydO+3AM8UgT6LNPeAYr6nVYIafO3+ytpAe6Ef9Px2baC9SA8WSUpImmU9QNOTVVZO7skZs/RkuzwYUlOm5DOGV54V0oEZDakC0VmVmzFfjJ2UEXoaSXZhAZr1CFKEYQ+RUo/rNrkVCqYfy7Pvdbffz6/G8u/8mUhH8xMTH/8B);strokeColor=none;spacingTop=-3;spacingBottom=-3;spacingLeft=-3;spacingRight=-3;points=[];labelBackgroundColor=none;rounded=0;html=1;whiteSpace=wrap;" vertex="1" parent="krAw0Bd3Zgh0rd1mKWKc-292">
          <mxGeometry width="26" height="42" as="geometry" />
        </mxCell>
        <mxCell id="krAw0Bd3Zgh0rd1mKWKc-296" style="vsdxID=58;fillColor=#2d5967;gradientColor=none;shape=stencil(nZFhCsIwDIVPk7+jS8ouMOc9ButssLajqzpvb2sQh6Di/r3kfS+QBKidbT8ZQDWnGI7mykOyQDtAZG9N5JQVUAfUjiGaQwxnP0g99YUs6hQuZcIiOd1UtS4pVDfpqEe1F9ixX8FqG1irL+jT3ARjU2n8jP+13A84i9cNR3ZOXrD232+eW/Iv6u4=);strokeColor=none;spacingTop=-3;spacingBottom=-3;spacingLeft=-3;spacingRight=-3;points=[];labelBackgroundColor=none;rounded=0;html=1;whiteSpace=wrap;" vertex="1" parent="krAw0Bd3Zgh0rd1mKWKc-292">
          <mxGeometry x="7" y="31" width="2" height="10" as="geometry" />
        </mxCell>
        <mxCell id="krAw0Bd3Zgh0rd1mKWKc-297" style="vsdxID=59;fillColor=#2d5967;gradientColor=none;shape=stencil(pVjJchQxDP2auaoseT+z/AdFApkiJNQQlvw9Dt22LLnbPYHbxJFaT/uzT/bN97sP325PZL4/XR6/3P463zzdnezbE9H54e72cn4qv0723cm++fR4uf18efzxcLP8/e3Di+TLr6+PP1++8HvRiwEyvWiReV5OvAP8e/B+kf/447Io4KqRgfKqsR55ghCWo9+0HCUEE1ep9cgbILdK2VWKgPwqtR65BFbYvz8/dHiLRnICr4tg3b5CRAhCHhFw6mAoDlrpoINkpX+BAK30z0jfvIWkfDP7MJ0FzAKnmWG0DjJKjEYCpAgJJcDOixUQeXBOYjwMT6+DTcdnZd6x9+sREpik7LshRmjBTNKJDmS5ugApTOWjjGuplzUMOw5iAB+lg33pVm9SLTsu8FITUTloIKJ08Ki/EqSkrIcakmbdSMuheKlSa6TV6OpnN8NkRIjQTCo1Al4vnIDSf0gPqMdgkQpWCBCiDFaf0BowAzbLgBFHuQaNpTbhWg9ewB3kh7Yt4NTsDB4UXEdtYlW0uTlQ0bpc1RrYJrRjvJSRjlX3XZ5rkZR1D0TSerCQXxWqWBTC62KVHBhSeLusreAycoNVvKVCvcTbS13XEL3GFZWbCfL10vWf/yR82BM5g1O7ocyHumfbgs5g1YD2pZ6DDFxPD3bml0r0IZ+Q/MMSeLnPy8R2s6azvHh3NsYVyzIDJhkPm8GoeIQ2XFrXWd4mVgltoi3OO+melh/Yh+G84ICDWzIkCRYNBLUCeqm6XT3kaaz6/ud96Eja9xHU7uuFaqEgOG2eaoVtk6BcuQd3RvVqWyFAVNWjLWgHHTagEwfLoMZDB/vavTa+vQ42HafYcy9V7ZciTsf2D5rnuNtUe3at02htoJmHpbe8JjAdMar8sGOR+/cDooqO7wce0sTDfos3F+K043qmXLOUIKh5aQuTUySiLGqjWq6PVwXcRsB2So4j/GoFmcNu768HCZyfRWSDKRhIKoPFKumBaceJOfIUezABS1OjnoB2GIH9hYlGkHaUsjveH13EDi8MJcNZXRj4FsuAu1lFoxTHC3UB6RvxkC7iu/a+/X4VkfaMhzan3jah2f36uLpeKy+rd9wJ3HZ7+eBB0uLRter+jC2EnlQBbczYMi/8rKGHGVumWJwmcONaQFyGk4rnL88KCAvVm47s/qkC25dJL/3Eg51GlLW9OwJhtdQe6eDrxL77hc0Y7f6G+ZHzDOZlvnqNVSHVm8ce3k4Fx9JhkpQV4I2NsdXwusCPWNKgIFuosH95Ty35xkkFD/Kl8tyctMZGYZ6ZZxnFaqLhi0ntuASorxz8YMdLNU44dvS8L3Y4wvCGSdxK2KIaFd7+IbDmFFuntorjaNl/C+8gX37we+2n8/398tzb/1+/75aj5W3YvvsD);strokeColor=none;spacingTop=-3;spacingBottom=-3;spacingLeft=-3;spacingRight=-3;points=[];labelBackgroundColor=none;rounded=0;html=1;whiteSpace=wrap;" vertex="1" parent="krAw0Bd3Zgh0rd1mKWKc-292">
          <mxGeometry x="23" width="34" height="41" as="geometry" />
        </mxCell>
        <mxCell id="krAw0Bd3Zgh0rd1mKWKc-298" style="vsdxID=60;fillColor=#2d5967;gradientColor=none;shape=stencil(UzV2Ls5ILEhVNTIoLinKz04tz0wpyVA1dlE1MsrMy0gtyiwBslSNXVWNndPyi1LTi/JL81Ig/IJEkEoQKze/DGRCBUSfqbGehQVIl5FBJUTEAMxzgyjOycxDUmxAnkJDAzxKYZJkKTYy0zMxwq2cJM8RUAxkIMIwLTMnBxIFyPLoYQ4UgsSXsSsA);strokeColor=none;spacingTop=-3;spacingBottom=-3;spacingLeft=-3;spacingRight=-3;points=[];labelBackgroundColor=none;rounded=0;html=1;whiteSpace=wrap;" vertex="1" parent="krAw0Bd3Zgh0rd1mKWKc-292">
          <mxGeometry x="29" y="31" width="2" height="10" as="geometry" />
        </mxCell>
        <mxCell id="krAw0Bd3Zgh0rd1mKWKc-299" style="vsdxID=61;fillColor=#2d5967;gradientColor=none;shape=stencil(UzV2Ls5ILEhVNTIoLinKz04tz0wpyVA1dlE1MsrMy0gtyiwBslSNXVWNndPyi1LTi/JL81Ig/IJEkEoQKze/DGRCBUSfAUiHkUElhGdkpmdiBBZxgyjOyczDqdjQwAC3UpgkWYrxKDU11rMwIVYxBZ7DUAxkIMIwLTMnBxIFyPLoYQ4UgsSXsSsA);strokeColor=none;spacingTop=-3;spacingBottom=-3;spacingLeft=-3;spacingRight=-3;points=[];labelBackgroundColor=none;rounded=0;html=1;whiteSpace=wrap;" vertex="1" parent="krAw0Bd3Zgh0rd1mKWKc-292">
          <mxGeometry x="47" y="31" width="2" height="10" as="geometry" />
        </mxCell>
        <mxCell id="krAw0Bd3Zgh0rd1mKWKc-300" value="&lt;div style=&quot;font-size: 1px&quot;&gt;&lt;p style=&quot;align:center;margin-left:0;margin-right:0;margin-top:0px;margin-bottom:0px;text-indent:0;valign:middle;direction:ltr;&quot;&gt;&lt;font style=&quot;font-size:16.93px;font-family:Oracle Sans;color:#000000;direction:ltr;letter-spacing:0px;line-height:120%;opacity:1&quot;&gt;Users&lt;br&gt;&lt;/font&gt;&lt;/p&gt;&lt;/div&gt;" style="verticalAlign=middle;align=center;vsdxID=63;fillColor=none;gradientColor=none;shape=stencil(nZBLDoAgDERP0z3SIyjew0SURgSD+Lu9kMZoXLhwN9O+tukAlrNpJg1SzDH4QW/URgNYgZTkjA4UkwJUgGXng+6DX1zLfmoymdXo17xh5zmRJ6Q42BWCfc2oJfdAr+Yv+AP9Cb7OJ3H/2JG1HNGz/84klThPVCc=);strokeColor=none;spacingTop=-3;spacingBottom=-3;spacingLeft=-3;spacingRight=-3;points=[];labelBackgroundColor=none;rounded=0;html=1;whiteSpace=wrap;" vertex="1" parent="krAw0Bd3Zgh0rd1mKWKc-301">
          <mxGeometry y="50" width="94" height="20" as="geometry" />
        </mxCell>
        <mxCell id="krAw0Bd3Zgh0rd1mKWKc-246" style="vsdxID=38;fillColor=none;gradientColor=none;strokeColor=none;spacingTop=-3;spacingBottom=-3;spacingLeft=-3;spacingRight=-3;points=[];labelBackgroundColor=none;rounded=0;html=1;whiteSpace=wrap;aspect=fixed;" vertex="1" parent="1">
          <mxGeometry x="496" y="280" width="48.5" height="67" as="geometry" />
        </mxCell>
        <mxCell id="krAw0Bd3Zgh0rd1mKWKc-247" style="vsdxID=39;fillColor=#FFFFFF;gradientColor=none;shape=stencil(pZTdbsMgDEafhttPGJsA1233HpWaLqhpUqXZ39svGRdrIpWO7s6GcxDYwoo312Z/qZXR13HoT/VHPIyN4q0yJnZNPcRxihTvFG+O/VC/Dv1bd0j5ZT+Tc3Tu3+cTPpPnKwQ/W0Z/pRXS+id/SXgbuxu8ChC7wJ2DDfcFqUDyP8ELKMMTrF/zVU4QCC8FD3OfZwHTgg8enBM03LJGwUIkKxj5ew/IIpgiXKTkOkTwtuTBBFdSUClsmIa2a74Ed4LAGf55OFd1/TSa7Wbhf32IT8HvaDjGtk2T5XZ/PUqmpTSGePcN);strokeColor=none;spacingTop=-3;spacingBottom=-3;spacingLeft=-3;spacingRight=-3;points=[];labelBackgroundColor=none;rounded=0;html=1;whiteSpace=wrap;" vertex="1" parent="krAw0Bd3Zgh0rd1mKWKc-246">
          <mxGeometry x="0.5359269437764799" y="0.536" width="43.946009389671346" height="43.952000000000005" as="geometry" />
        </mxCell>
        <mxCell id="krAw0Bd3Zgh0rd1mKWKc-248" style="vsdxID=40;fillColor=#FFFFFF;gradientColor=none;shape=stencil(pZfbUsIwEIafprc7STbHa8X3cBSlI1KmgIe3N1hSmk27pXpXwv81ye6/m7TCu8Pmcb+ulDgc2+Zt/Vk/HzcV3ldK1bvNuq2P8anCVYV3L027fm2b0+65+71/PCvPT+/Nx/kNXx0XHFh1ppT47kYUoP8deOj023rH6q8jo4C3YN0SwAYwOeAMOD0NaAPC/A/wChQDYACPFPByCDyd2i6s8opcCNkjoUPEl+pFzl5UlyGPIJIKr6rL0Df2KsnsL87k8+U6kIHZny6SalISxgEBhgAxgtwMIgV4AGicBlQASwDeNtKlnN8OSLdkSdKCt0s2LVUB8GHVoBflrdgy9QV1ZQSS8ZMrMbfkQKFK32IxL/Yizziy7yk3FlyhdwiBc0uh14BL9Eub3n/1eROWQmRqMf3qPwpn4pGLfRRbLnhSUT0jx/SygZzrzorGzpvU/8arLNXgoGj45Tui9+CZZEpZ9AnHmjeWPT3xfOrz40CfnMEMbCcygDIHbGqXU4A2dAZ20wZsHqXk0fEcSxpUXq5AFJcIbjkRoDngN4xITToT0ngEkh3MJA1tkQPeFlpTW8wYT1u66RlnxxnIeTNTOhEQZAa+NnVhPL72dR/0G3tLCTifMjl+W/QLgbgAcpcLgbtMxRCavHRYa9NWvkj8V2l8uN7vX+rttvs8GP5PvwfiUPctgasf);strokeColor=none;spacingTop=-3;spacingBottom=-3;spacingLeft=-3;spacingRight=-3;points=[];labelBackgroundColor=none;rounded=0;html=1;whiteSpace=wrap;" vertex="1" parent="krAw0Bd3Zgh0rd1mKWKc-246">
          <mxGeometry width="45.0178632772243" height="45.023999999999994" as="geometry" />
        </mxCell>
        <mxCell id="krAw0Bd3Zgh0rd1mKWKc-249" style="vsdxID=41;fillColor=#2d5967;gradientColor=none;shape=stencil(pZNLDoMgEEBPw3aCjAisrb2HiVpJrRq1v9sXQ2ylqcTqbj7vkTCZIRj3ZdrmhNF+6JpzftfZUBI8EMZ0XeadHkxEMCEYF02Xn7rmWmc2b9ORHKNLcxtfeFiPjgajz3l2tGCl60UwQlBiGQ4AXZxB5MFDCITDcwWS+Xjm8u8HfuKKg8RdvKkI7hEocP6PIBhw6QimIj1CKEAFOwWcprZW8NDC/DhaTUsJ7ngC6tm0qbkJXr3B20ATfC6p0FVlD3He/748U7JXi8kL);strokeColor=none;spacingTop=-3;spacingBottom=-3;spacingLeft=-3;spacingRight=-3;points=[];labelBackgroundColor=none;rounded=0;html=1;whiteSpace=wrap;" vertex="1" parent="krAw0Bd3Zgh0rd1mKWKc-246">
          <mxGeometry x="1.0718538875529597" y="1.072" width="42.874155502118384" height="42.879999999999995" as="geometry" />
        </mxCell>
        <mxCell id="krAw0Bd3Zgh0rd1mKWKc-250" style="vsdxID=42;fillColor=#2d5967;gradientColor=none;shape=stencil(pZPZDoMgEEW/hteJbALPtv0PE7WSWjFqt7+vlJiKRrr4NsycO4FLLqJJV6ZNjkjU9a055Ted9SWiO0SIrsu81f1QIbpHNClMmx9bc6kzd25SS9rqbK52w93pKAclrIpED9eRDOJX4+D4StcTPhaAPRxH0To9DkeYE+D4ezyw+U+Qx6DYOrx042dB2L7PvP89WAL1/WYcQg4ueEyArPMSg9rGMwWxWBdwBUr6D8aAVUDAQBJPICSIwJWWgsEiGhBs93TOD8U7X4WuKhfP6Xyex6Hlskz3Tw==);strokeColor=none;spacingTop=-3;spacingBottom=-3;spacingLeft=-3;spacingRight=-3;points=[];labelBackgroundColor=none;rounded=0;html=1;whiteSpace=wrap;" vertex="1" parent="krAw0Bd3Zgh0rd1mKWKc-246">
          <mxGeometry x="11.790392763082556" y="10.719999999999999" width="9.646684987976636" height="14.472" as="geometry" />
        </mxCell>
        <mxCell id="krAw0Bd3Zgh0rd1mKWKc-251" style="vsdxID=43;fillColor=#2d5967;gradientColor=none;shape=stencil(pZNJDoMwDEVPk62FM2dN23sgASUqBQR0un2hESqDSAd2jv1+FP/oExY2WVQlhAZNW5en5GbjNiNsRyi1RZbUtu0qwvaEhWlZJ8e6vBSxO1dRT/bVubz2N9ydjgnQplfR4OE6moN8NQ6Oz20x4qUC1BMeg2AdH4YDLCgI/B733PwnKCQYvg4v7fhZ4PfvMz/9H9SAcsJzAT4HFzxSoOu8RlBsE88NSLUuEAa0mC6MgMYj4PMNlAbledJS0FnEPILtns75rngHLLV57vI5ns8D2bVcmNn+CQ==);strokeColor=none;spacingTop=-3;spacingBottom=-3;spacingLeft=-3;spacingRight=-3;points=[];labelBackgroundColor=none;rounded=0;html=1;whiteSpace=wrap;" vertex="1" parent="krAw0Bd3Zgh0rd1mKWKc-246">
          <mxGeometry x="23.580785526165112" y="10.719999999999999" width="9.646684987976636" height="14.472" as="geometry" />
        </mxCell>
        <mxCell id="krAw0Bd3Zgh0rd1mKWKc-252" style="vsdxID=44;fillColor=#2d5967;gradientColor=none;shape=stencil(lVjLctswDPwaXTkiwOc5bf8j0ziNp2mccZI2/fuClUiKoAVJN1kGSHCxwIIa8O7t6f71NMD49n69/Dz9OT+8Pw34ZQA4vzydrud3ehrw64B3j5fr6cf18vHyMP1+vU+W6enX5Xda4XPy0+OYfGD8O/1Gq6L9/+bbZP58flmYB698aB2Mckv77x/XaX1dPWYHXTxwchk/oRg5PVtBsdLzq08sVnY2mt8gquDXo41WadtEC7T3ur23yrrG3qgA6/aOwGrtNShrRAeI3AG04EAHbB3GdeOUu/3GlDd7JBTCOuKRwxJ41h5A06ioh/3JSru3y3ds4FxMLhmgSkYNLRmXVtBTFvvtsUK6Hu+hOmuNiQVRAJpC0S0NE8/CBhKaIUE+VndIaIYEWXnskCjbIy+MfZmmwjNh3b5nUqrsKJK73YBahxECwsLMhYOXNnAc8txIb5exUeMRc5uj3RmOo3DwyIEJcA9HEKW/8VDOFs26HCo0jL+hFC7HVDnpMtuqVHgmFQmuXiqKTlVOakEruBCmzit1n2O6uWneqnIYVWzTY10ugdv5jCr61iEyAnC4ycUYBrcurM5w+6C8Z3CDCgxu76sQZripZQp88o5LrfNqlPgEqj2gp5oV1jc5faUi8gJrFcSknCKU+E3ng3YDAiGITZeAc65FPMHL5IeSMDKCp1QxxCm9CC3iiQNCyRODTIsgsSwInLJWtaNeHPPIcLurk/yZQw6obDgSkaH1WofuzBxzDHUmWhC/hRy9QssgD6XNZMipZksp4ErKmUoAL+MNUgHpNtMhkbXal7lkV1UAciHdqDqASrOVuuaIgy6Nv/I+sMkCxsKtSnvNRiwyAtZVuq7G8Igcj42+GfMEW+xJSyQZ5PZEehDs+4CI9HOKbwO+OHMhPWoR8IplJb3jgNesZNK7IhkFcOiaCpFeauM9obAkeydj0zQoULwvCS1Tti86ClLKER2RRaTzpWutqXilGeTkMzLppCyUobLSHhnmlN48dmfMiTTiPQmVYYiEfDXb25jVKEDeN37Z3HHAN+KhIvatEnUn7qRT14m40p5/RqCZTTPpTHmxLeLUwRybDbuMM633RX/3UYpmYz7vb0437HK9URb9/LRReMsRrfBenMeXo18l/nyKOiAuxshKfH5HXM6nlfhGIEk/AhPvUbgFx244IN4fsrdWur8fnsl3ONBD/TD3eH5+nr7rLf/nH/Lo1fQREL/+Aw==);strokeColor=none;spacingTop=-3;spacingBottom=-3;spacingLeft=-3;spacingRight=-3;points=[];labelBackgroundColor=none;rounded=0;html=1;whiteSpace=wrap;" vertex="1" parent="krAw0Bd3Zgh0rd1mKWKc-246">
          <mxGeometry x="1.0718538875529597" y="24.655999999999995" width="19.293369975953272" height="19.296" as="geometry" />
        </mxCell>
        <mxCell id="krAw0Bd3Zgh0rd1mKWKc-253" style="vsdxID=45;fillColor=#2d5967;gradientColor=none;shape=stencil(jVbRcuMgDPwav2oAIUDPvfY/Om16yVwu6aTpXfL3lc8GjJzQe7OJ8Ea7q4UBHz62z++bwZmP8+n4a/N393reDvhjcG532G5Ou7M8Dfg44MPb8bT5eTp+Hl6n9/fnsXJ8+n38M37hMu0jAz6Nu5y5Tivm39vTVPzyeZqq7fSjNxB4LrfLenNx0ytasG6umJccsJ2LcF6RpTgXzUsJkHrI1kNyLbJFiNyip9pNBrdArkX3ELEFRwMUe+gGWLWNDMG14KZF9gyUWmRbmMjIxGBTDxkhYYsc0o22ybfgMUJQpFsCr0n3QNhDF6FQNc4WfFhp7pTmHMBGRbupCs5LnMBwD3+0p1bdKMcFA6hEZwajug8MXqnOBK6relzYqXZPSvYUwNkWP1FWteDLxkAtvmhkuuxzzPQsxU9K/EJIRhdPobJ8rcFqTtedt7IjGzEUK2RklknS47aYSSxkqMZllsl2iV9Qmp1QLFZ0x2LxazuBGXkZbngj3fa7w/9H4Xe5Kf85dBPMSwvUNlX3lK5kSqyeZSo2yJ0hgWosOrDdUZIh9QpeZsIpSSVKTGjhg5g5tPAu1Ko8XzKF/SjxdU/WtDjjUu2jk0yYtqp7+RQpeCF3/vo9eCppvIhw9qv2laWEaYeKfFs8fq1L/SCVz3g1yi6WaF+Ir89OWs2ytIoqyYSQLvroVqW9MO1Siy5yRKX9ePyoHJUbgALPXrwDLv7RGT62roZZ8oha7PEmoYQXk3uFLsT2mZfpQeU7ET4pfJlEVsp7Xw79gh/WB7jJwXQ/y1hnWVyFWfRgscWXfGNq8YUlq45wORC4m6XBr7I0iqrqCJe/VPxZKQkK/0agrmLvu1BdbZCHejt92+330+V2+bu+zcrSdBPGxy8=);strokeColor=none;spacingTop=-3;spacingBottom=-3;spacingLeft=-3;spacingRight=-3;points=[];labelBackgroundColor=none;rounded=0;html=1;whiteSpace=wrap;" vertex="1" parent="krAw0Bd3Zgh0rd1mKWKc-246">
          <mxGeometry x="6.431123325317759" y="30.552" width="7.502977212870717" height="7.5040000000000004" as="geometry" />
        </mxCell>
        <mxCell id="krAw0Bd3Zgh0rd1mKWKc-255" value="" style="group;aspect=fixed;" vertex="1" connectable="0" parent="krAw0Bd3Zgh0rd1mKWKc-246">
          <mxGeometry x="-3.484913546318544" width="51.984913546318545" height="66.99264798715157" as="geometry" />
        </mxCell>
        <mxCell id="krAw0Bd3Zgh0rd1mKWKc-254" value="&lt;div style=&quot;font-size: 1px&quot;&gt;&lt;p style=&quot;align:center;margin-left:0;margin-right:0;margin-top:0px;margin-bottom:0px;text-indent:0;valign:middle;direction:ltr;&quot;&gt;&lt;font style=&quot;font-size:16.93px;font-family:Oracle Sans;color:#000000;direction:ltr;letter-spacing:0px;line-height:120%;opacity:1&quot;&gt;Skill&lt;/font&gt;&lt;/p&gt;&lt;/div&gt;" style="verticalAlign=middle;align=center;vsdxID=47;fillColor=none;gradientColor=none;shape=stencil(nZBLDoAgDERP0z3SIyjew0SURgSD+Lu9kMZoXLhwN9O+tukAlrNpJg1SzDH4QW/URgNYgZTkjA4UkwJUgGXng+6DX1zLfmoymdXo17xh5zmRJ6Q42BWCfc2oJfdAr+Yv+AP9Cb7OJ3H/2JG1HNGz/84klThPVCc=);strokeColor=none;spacingTop=-3;spacingBottom=-3;spacingLeft=-3;spacingRight=-3;points=[];labelBackgroundColor=none;rounded=0;html=1;whiteSpace=wrap;" vertex="1" parent="krAw0Bd3Zgh0rd1mKWKc-255">
          <mxGeometry y="47.69876536685193" width="51.984913546318545" height="19.29388262029965" as="geometry" />
        </mxCell>
        <mxCell id="krAw0Bd3Zgh0rd1mKWKc-309" value="" style="endArrow=classic;html=1;rounded=0;exitX=0.472;exitY=-0.062;exitDx=0;exitDy=0;exitPerimeter=0;entryX=0;entryY=0.5;entryDx=0;entryDy=0;" edge="1" parent="1" source="krAw0Bd3Zgh0rd1mKWKc-283" target="krAw0Bd3Zgh0rd1mKWKc-26">
          <mxGeometry relative="1" as="geometry">
            <mxPoint x="270" y="380" as="sourcePoint" />
            <mxPoint x="370" y="380" as="targetPoint" />
            <Array as="points">
              <mxPoint x="10" y="270" />
            </Array>
          </mxGeometry>
        </mxCell>
        <mxCell id="krAw0Bd3Zgh0rd1mKWKc-310" value="1. Authentication" style="edgeLabel;resizable=0;html=1;align=center;verticalAlign=middle;" connectable="0" vertex="1" parent="krAw0Bd3Zgh0rd1mKWKc-309">
          <mxGeometry relative="1" as="geometry">
            <mxPoint x="30" y="-10" as="offset" />
          </mxGeometry>
        </mxCell>
        <mxCell id="krAw0Bd3Zgh0rd1mKWKc-311" value="" style="endArrow=none;html=1;rounded=0;" edge="1" parent="1">
          <mxGeometry width="50" height="50" relative="1" as="geometry">
            <mxPoint x="10" y="299" as="sourcePoint" />
            <mxPoint x="10" y="209" as="targetPoint" />
          </mxGeometry>
        </mxCell>
        <mxCell id="krAw0Bd3Zgh0rd1mKWKc-312" value="" style="endArrow=classic;html=1;rounded=0;entryX=0.079;entryY=1;entryDx=0;entryDy=0;entryPerimeter=0;" edge="1" parent="1" target="krAw0Bd3Zgh0rd1mKWKc-16">
          <mxGeometry relative="1" as="geometry">
            <mxPoint x="50" y="490" as="sourcePoint" />
            <mxPoint x="370" y="380" as="targetPoint" />
            <Array as="points">
              <mxPoint x="282" y="490" />
            </Array>
          </mxGeometry>
        </mxCell>
        <mxCell id="krAw0Bd3Zgh0rd1mKWKc-313" value="2. VB Service Homepage" style="edgeLabel;resizable=0;html=1;align=center;verticalAlign=middle;" connectable="0" vertex="1" parent="krAw0Bd3Zgh0rd1mKWKc-312">
          <mxGeometry relative="1" as="geometry">
            <mxPoint x="88" y="-18" as="offset" />
          </mxGeometry>
        </mxCell>
        <mxCell id="krAw0Bd3Zgh0rd1mKWKc-315" value="" style="endArrow=classic;html=1;rounded=0;entryX=0.138;entryY=1.003;entryDx=0;entryDy=0;entryPerimeter=0;" edge="1" parent="1" target="krAw0Bd3Zgh0rd1mKWKc-17">
          <mxGeometry relative="1" as="geometry">
            <mxPoint x="50" y="490" as="sourcePoint" />
            <mxPoint x="370" y="380" as="targetPoint" />
            <Array as="points">
              <mxPoint x="478" y="490" />
            </Array>
          </mxGeometry>
        </mxCell>
        <mxCell id="krAw0Bd3Zgh0rd1mKWKc-316" value="3. ODA Service Console" style="edgeLabel;resizable=0;html=1;align=center;verticalAlign=middle;" connectable="0" vertex="1" parent="krAw0Bd3Zgh0rd1mKWKc-315">
          <mxGeometry relative="1" as="geometry">
            <mxPoint x="193" y="-20" as="offset" />
          </mxGeometry>
        </mxCell>
        <mxCell id="krAw0Bd3Zgh0rd1mKWKc-317" value="" style="endArrow=classic;html=1;rounded=0;entryX=0.5;entryY=1.112;entryDx=0;entryDy=0;entryPerimeter=0;" edge="1" parent="1" target="krAw0Bd3Zgh0rd1mKWKc-137">
          <mxGeometry relative="1" as="geometry">
            <mxPoint x="50" y="490" as="sourcePoint" />
            <mxPoint x="370" y="380" as="targetPoint" />
            <Array as="points">
              <mxPoint x="660" y="490" />
            </Array>
          </mxGeometry>
        </mxCell>
        <mxCell id="krAw0Bd3Zgh0rd1mKWKc-318" value="4. LLM API Access" style="edgeLabel;resizable=0;html=1;align=center;verticalAlign=middle;" connectable="0" vertex="1" parent="krAw0Bd3Zgh0rd1mKWKc-317">
          <mxGeometry relative="1" as="geometry">
            <mxPoint x="199" y="-20" as="offset" />
          </mxGeometry>
        </mxCell>
        <mxCell id="krAw0Bd3Zgh0rd1mKWKc-319" value="" style="endArrow=classic;html=1;rounded=0;entryX=0.519;entryY=-0.012;entryDx=0;entryDy=0;entryPerimeter=0;" edge="1" parent="1" target="krAw0Bd3Zgh0rd1mKWKc-145">
          <mxGeometry width="50" height="50" relative="1" as="geometry">
            <mxPoint x="520" y="350" as="sourcePoint" />
            <mxPoint x="350" y="360" as="targetPoint" />
          </mxGeometry>
        </mxCell>
        <mxCell id="krAw0Bd3Zgh0rd1mKWKc-320" value="" style="endArrow=classic;html=1;rounded=0;exitX=0.503;exitY=0.993;exitDx=0;exitDy=0;exitPerimeter=0;entryX=0.453;entryY=0;entryDx=0;entryDy=0;entryPerimeter=0;" edge="1" parent="1" source="krAw0Bd3Zgh0rd1mKWKc-268" target="krAw0Bd3Zgh0rd1mKWKc-246">
          <mxGeometry width="50" height="50" relative="1" as="geometry">
            <mxPoint x="300" y="410" as="sourcePoint" />
            <mxPoint x="350" y="360" as="targetPoint" />
          </mxGeometry>
        </mxCell>
        <mxCell id="krAw0Bd3Zgh0rd1mKWKc-321" value="" style="endArrow=classic;html=1;rounded=0;exitX=1.035;exitY=0.618;exitDx=0;exitDy=0;exitPerimeter=0;entryX=-0.102;entryY=0.639;entryDx=0;entryDy=0;entryPerimeter=0;" edge="1" parent="1" source="krAw0Bd3Zgh0rd1mKWKc-148" target="krAw0Bd3Zgh0rd1mKWKc-134">
          <mxGeometry width="50" height="50" relative="1" as="geometry">
            <mxPoint x="300" y="410" as="sourcePoint" />
            <mxPoint x="350" y="360" as="targetPoint" />
            <Array as="points">
              <mxPoint x="600" y="399" />
              <mxPoint x="600" y="266" />
            </Array>
          </mxGeometry>
        </mxCell>
        <mxCell id="krAw0Bd3Zgh0rd1mKWKc-346" value="" style="endArrow=classic;html=1;rounded=0;exitX=1.025;exitY=0.643;exitDx=0;exitDy=0;exitPerimeter=0;" edge="1" parent="1" source="krAw0Bd3Zgh0rd1mKWKc-292">
          <mxGeometry relative="1" as="geometry">
            <mxPoint x="390" y="410" as="sourcePoint" />
            <mxPoint x="310" y="200" as="targetPoint" />
            <Array as="points">
              <mxPoint x="190" y="170" />
              <mxPoint x="190" y="200" />
            </Array>
          </mxGeometry>
        </mxCell>
        <mxCell id="krAw0Bd3Zgh0rd1mKWKc-347" value="2. Access &lt;br&gt;Application" style="edgeLabel;resizable=0;html=1;align=center;verticalAlign=middle;" connectable="0" vertex="1" parent="krAw0Bd3Zgh0rd1mKWKc-346">
          <mxGeometry relative="1" as="geometry">
            <mxPoint x="30" y="6" as="offset" />
          </mxGeometry>
        </mxCell>
      </root>
    </mxGraphModel>
  </diagram>
</mxfile>
